<?xml version="1.0" encoding="utf-8"?>
<!-- Generator: Adobe Illustrator 19.1.0, SVG Export Plug-In . SVG Version: 6.00 Build 0)  -->
<svg version="1.1" id="Layer_1" xmlns="http://www.w3.org/2000/svg" xmlns:xlink="http://www.w3.org/1999/xlink" x="0px" y="0px"
	 viewBox="-371 501 24 24" style="enable-background:new -371 501 24 24;" xml:space="preserve">
<style type="text/css">
	.st0{fill:#F9F9F9;}
	.st1{fill:#212121;}
</style>
<path class="st0" d="M-359,503c-5.5,0-10,4.5-10,10s4.5,10,10,10c5.5,0,10-4.5,10-10C-349,507.5-353.5,503-359,503z"/>
<path class="st1" d="M-359,520.2c-2.5,0-4.7-1.3-6-3.2c0-2,4-3.1,6-3.1s6,1.1,6,3.1C-354.3,518.9-356.5,520.2-359,520.2 M-359,506
	c1.7,0,3,1.3,3,3s-1.3,3-3,3s-3-1.3-3-3S-360.7,506-359,506 M-359,503c-5.5,0-10,4.5-10,10c0,5.5,4.5,10,10,10s10-4.5,10-10
	C-349,507.5-353.5,503-359,503z"/>
</svg>
