<?xml version="1.0" standalone="no"?>
<!DOCTYPE svg PUBLIC "-//W3C//DTD SVG 1.1//EN" "http://www.w3.org/Graphics/SVG/1.1/DTD/svg11.dtd" >
<svg xmlns="http://www.w3.org/2000/svg">
<metadata></metadata>
<defs>
<font id="din_alternatebold" horiz-adv-x="1024" >
<font-face units-per-em="2048" ascent="1638" descent="-410" />
<missing-glyph horiz-adv-x="491" />
<glyph horiz-adv-x="0" />
<glyph horiz-adv-x="0" />
<glyph unicode="&#xd;" horiz-adv-x="491" />
<glyph unicode=" "  horiz-adv-x="491" />
<glyph unicode="&#x09;" horiz-adv-x="491" />
<glyph unicode="&#xa0;" horiz-adv-x="491" />
<glyph unicode="!" horiz-adv-x="528" d="M133 1458l78 -1098h104l80 1098h-262zM160 0h209v209h-209v-209z" />
<glyph unicode="&#x22;" horiz-adv-x="682" d="M127 1098h160v360h-160v-360zM395 1098h160v360h-160v-360z" />
<glyph unicode="#" horiz-adv-x="983" d="M6 446h189l-64 -446h160l63 446h201l-64 -446h160l64 446h202v136h-188l45 294h203v136h-189l64 446h-160l-63 -446h-201l63 446h-159l-64 -446h-202v-136h188l-45 -294h-203v-136zM369 582l45 294h200l-45 -294h-200z" />
<glyph unicode="$" horiz-adv-x="983" d="M16 182q86 -84 195 -139q108 -53 227 -55v-221h105v221q172 26 272 143q100 113 102 285q5 331 -374 422v436q127 -10 227 -96l119 155q-154 135 -346 137v144h-105v-144q-350 -51 -356 -419q-8 -318 356 -410v-457q-94 11 -159 52q-68 38 -119 98zM291 1055q0 55 14 94 q12 39 31 65q43 52 102 60v-412q-82 27 -114 76q-33 47 -33 117zM543 184v432q98 -20 133 -73q33 -54 33 -125q0 -88 -35 -148q-37 -61 -131 -86z" />
<glyph unicode="%" horiz-adv-x="1063" d="M104 1128q2 -106 62 -153q55 -49 131 -49q78 0 135 49q29 24 43 63q14 37 14 90v140q-2 106 -57 155q-57 47 -135 47q-76 0 -131 -47q-60 -49 -62 -155v-140zM119 0h135l690 1458h-135zM221 1143v110q0 101 76 101t76 -101v-110q0 -101 -76 -101t-76 101zM573 190 q2 -106 62 -153q55 -49 131 -49q78 0 135 49q29 24 43 63q14 37 14 90v140q-2 106 -57 155q-57 47 -135 47q-76 0 -131 -47q-60 -49 -62 -155v-140zM690 205v110q0 101 76 101t76 -101v-110q0 -101 -76 -101t-76 101z" />
<glyph unicode="&#x26;" horiz-adv-x="1327" d="M80 436q2 -184 129 -313q123 -131 332 -135q116 2 217 47q102 45 190 112l135 -147h246l-246 293q62 67 111 151q49 82 80 164l-187 74q-41 -131 -127 -244l-311 375q248 123 244 326q-2 137 -90 233t-238 98q-149 -2 -237 -98q-90 -96 -90 -233q0 -74 36 -144 q31 -71 84 -133q-276 -153 -278 -426zM264 438q-2 160 211 285l352 -422q-151 -131 -293 -129q-110 0 -188 78q-80 74 -82 188zM422 1147q0 59 43 100q39 39 100 39q64 0 105 -39q39 -41 39 -100q0 -55 -37 -101q-41 -45 -142 -86q-47 45 -75 95q-33 47 -33 92z" />
<glyph unicode="'" horiz-adv-x="491" d="M166 1098h160v360h-160v-360z" />
<glyph unicode="(" horiz-adv-x="569" d="M123 625q0 -447 323 -834h82q-194 387 -196 834q2 446 196 833h-82q-323 -385 -323 -833z" />
<glyph unicode=")" horiz-adv-x="569" d="M41 -209h82q323 387 323 834q0 448 -323 833h-82q192 -387 197 -833q-5 -447 -197 -834z" />
<glyph unicode="*" horiz-adv-x="721" d="M74 1051l61 -95l164 95v-199h123v199l164 -95l61 95l-170 104l170 104l-61 95l-164 -95v199h-123v-199l-164 95l-61 -95l170 -104z" />
<glyph unicode="+" horiz-adv-x="1229" d="M96 438h438v-438h160v438h438v160h-438v438h-160v-438h-438v-160z" />
<glyph unicode="," horiz-adv-x="491" d="M141 -152l209 152v209h-209v-361z" />
<glyph unicode="-" horiz-adv-x="833" d="M109 463h616v209h-616v-209z" />
<glyph unicode="." horiz-adv-x="491" d="M141 0h209v209h-209v-209z" />
<glyph unicode="/" horiz-adv-x="682" d="M16 -12h160l490 1482h-160z" />
<glyph unicode="0" horiz-adv-x="983" d="M78 408q2 -201 129 -310q119 -108 284 -110q170 2 289 110q121 109 125 310v643q-4 202 -125 311q-119 108 -289 108q-165 0 -284 -108q-127 -109 -129 -311v-643zM287 420v618q4 219 204 223q199 -4 205 -223v-618q-6 -221 -205 -223q-200 2 -204 223z" />
<glyph unicode="1" horiz-adv-x="983" d="M190 1085l207 152v-1237h209v1458h-209l-207 -151v-222z" />
<glyph unicode="2" horiz-adv-x="983" d="M66 0h831v209h-557l469 588q88 112 88 256q-2 180 -121 297q-117 118 -305 120q-168 -2 -283 -118q-114 -119 -122 -301h208q11 100 70 155q57 55 143 55q97 -2 150 -63q51 -61 51 -143q0 -31 -8 -66q-12 -37 -45 -80l-569 -712v-197z" />
<glyph unicode="3" horiz-adv-x="983" d="M27 362q34 -182 149 -278t264 -96q193 2 316 123q125 118 127 323q0 92 -39 176q-41 84 -133 144q90 61 125 139q30 78 30 162q-2 166 -114 288q-117 125 -316 127q-157 -2 -270 -112q-115 -111 -131 -273h209q20 90 78 133q55 43 122 43q93 -2 152 -59q59 -59 61 -151 q0 -91 -59 -148q-59 -59 -166 -59h-72v-185h88q97 0 160 -59q64 -61 66 -172q-2 -109 -66 -168q-63 -63 -155 -63q-86 0 -138 47q-51 45 -79 118h-209z" />
<glyph unicode="4" horiz-adv-x="983" d="M25 217h608v-217h209v217h116v197h-116v419h-209v-419h-381l493 1044h-233l-487 -1044v-197z" />
<glyph unicode="5" horiz-adv-x="983" d="M76 367q30 -201 155 -291q123 -88 271 -88q110 2 190 51q82 47 125 104q49 58 70 133q20 76 20 218q0 92 -6 155q-6 62 -20 105q-27 79 -88 139q-41 45 -107 76q-70 28 -154 30q-131 0 -233 -80v330h580v209h-777v-788h197q37 67 84 94q47 26 104 26q64 0 107 -18 q43 -22 65 -59q41 -78 39 -203q0 -51 -2 -105q-4 -55 -22 -102q-17 -47 -60 -76q-45 -30 -120 -30q-175 2 -209 170h-209z" />
<glyph unicode="6" horiz-adv-x="983" d="M78 408q2 -201 129 -310q119 -108 284 -110q170 2 289 110q121 109 125 310v133q2 211 -96 309q-100 96 -244 96q-129 2 -278 -45v137q4 219 204 223q142 -2 191 -122h215q-31 161 -143 247q-115 84 -263 84q-165 0 -284 -108q-127 -109 -129 -311v-643zM287 420v119 q4 219 204 223q199 -4 205 -223v-119q-6 -221 -205 -223q-200 2 -204 223z" />
<glyph unicode="7" horiz-adv-x="983" d="M104 1038h209v211h387l-493 -1249h233l494 1249v209h-830v-420z" />
<glyph unicode="8" horiz-adv-x="983" d="M47 426q2 -197 133 -315q125 -121 311 -123q187 2 316 123q127 118 129 315q-2 211 -172 328q65 57 106 131q39 69 39 164q-2 182 -119 301q-116 118 -299 120q-180 -2 -294 -120q-121 -119 -123 -301q0 -95 43 -164q37 -74 102 -131q-170 -117 -172 -328zM256 428 q2 102 72 166q67 63 163 65q99 -2 166 -65q68 -64 70 -166q-2 -100 -70 -164q-67 -67 -166 -67q-96 0 -163 67q-70 64 -72 164zM283 1053q2 104 65 157q62 51 143 51q84 0 146 -51q61 -53 63 -157q-2 -101 -63 -154q-62 -55 -146 -55q-81 0 -143 55q-63 53 -65 154z" />
<glyph unicode="9" horiz-adv-x="983" d="M78 917q-2 -210 98 -307q100 -100 242 -98q129 -2 278 45v-137q-6 -221 -205 -223q-141 0 -190 122h-215q33 -159 147 -243q113 -86 258 -88q170 2 289 110q121 109 125 310v643q-4 202 -125 311q-119 108 -289 108q-165 0 -284 -108q-127 -109 -129 -311v-134zM287 919 v119q4 219 204 223q199 -4 205 -223v-119q-6 -221 -205 -223q-200 2 -204 223z" />
<glyph unicode=":" horiz-adv-x="491" d="M141 0h209v209h-209v-209zM141 465h209v209h-209v-209z" />
<glyph unicode=";" horiz-adv-x="491" d="M141 -152l209 152v209h-209v-361zM141 465h209v209h-209v-209z" />
<glyph unicode="&#x3c;" horiz-adv-x="1229" d="M96 444l1036 -460v172l-851 362l851 363v172l-1036 -461v-148z" />
<glyph unicode="=" horiz-adv-x="1229" d="M96 233h1036v160h-1036v-160zM96 643h1036v160h-1036v-160z" />
<glyph unicode="&#x3e;" horiz-adv-x="1229" d="M96 -16l1036 460v148l-1036 461v-172l852 -363l-852 -362v-172z" />
<glyph unicode="?" horiz-adv-x="948" d="M59 1038h209q0 123 58 174q51 49 131 49q65 0 120 -47q54 -49 56 -135q0 -63 -51 -135l-183 -254q-32 -45 -43 -90q-10 -47 -10 -106v-134h209v117q-2 76 35 129l186 256q64 86 66 215q-2 182 -121 289q-115 102 -275 104q-157 -2 -270 -112q-115 -109 -117 -279v-41z M346 0h209v209h-209v-209z" />
<glyph unicode="@" horiz-adv-x="1638" d="M78 737q2 -334 219 -538q211 -207 543 -211q450 6 675 350h-135q-84 -92 -209 -139q-125 -52 -307 -52q-289 2 -454 172q-170 162 -172 414q0 238 163 406q160 168 453 172q248 -2 395 -129q150 -127 152 -334q-4 -156 -92 -293q-41 -66 -88 -104q-50 -43 -97 -43 q-49 2 -47 59q0 47 21 104l163 531h-135l-24 -105h-4q-78 162 -232 160q-221 -4 -354 -178q-133 -170 -135 -383q0 -129 84 -217q80 -92 207 -94q102 0 161 41q60 39 97 90h4q24 -131 164 -131q145 2 301 159q159 156 165 414q-4 274 -208 442q-205 168 -508 170 q-332 -4 -545 -204q-217 -199 -221 -529zM537 610q0 137 94 271q43 63 104 102q60 39 131 39q74 -2 121 -55q45 -54 45 -127q-2 -131 -92 -269q-43 -65 -100 -106q-60 -45 -127 -45q-78 0 -125 55q-51 51 -51 135z" />
<glyph unicode="A" horiz-adv-x="1249" d="M2 0h234l112 326h553l113 -326h233l-530 1458h-185zM412 522l211 637h4l211 -637h-426z" />
<glyph unicode="B" horiz-adv-x="1249" d="M154 0h614q172 0 287 115q116 110 118 299q0 114 -57 211q-61 94 -180 125v4q63 30 106 67q43 35 66 74q43 79 43 164v8q0 176 -109 283q-108 106 -323 108h-565v-1458zM375 209v438h340q123 -2 180 -65q57 -64 57 -154q0 -88 -57 -152q-57 -65 -180 -67h-340zM375 844 v417h319q121 -2 178 -59q58 -61 58 -149t-58 -146q-57 -63 -178 -63h-319z" />
<glyph unicode="C" horiz-adv-x="1139" d="M104 729q0 -250 15 -338q8 -47 20 -78q13 -30 29 -63q53 -101 170 -178q115 -80 287 -84q190 0 329 108q135 109 183 312h-234q-92 -199 -278 -199q-78 0 -134 33q-57 28 -92 73q-43 47 -57 123q-16 76 -16 291t16 293q14 74 57 121q35 45 92 75q56 29 134 31 q106 -2 180 -61q71 -62 98 -150h234q-35 183 -168 307q-133 123 -344 125q-172 -2 -287 -82q-117 -79 -170 -180q-33 -53 -49 -139q-15 -86 -15 -340z" />
<glyph unicode="D" horiz-adv-x="1290" d="M154 0h495q164 0 277 72q114 67 178 170q24 39 41 75q16 37 24 84q17 93 17 328q0 221 -11 311q-14 90 -67 172q-148 244 -444 246h-510v-1458zM375 209v1040h264h10q161 0 250 -123q45 -51 57 -133q9 -82 9 -272q0 -195 -9 -266q-10 -72 -47 -119q-84 -127 -270 -127 h-264z" />
<glyph unicode="E" horiz-adv-x="1139" d="M154 0h931v209h-710v428h606v196h-606v416h710v209h-931v-1458z" />
<glyph unicode="F" horiz-adv-x="1100" d="M154 0h221v623h606v196h-606v430h710v209h-931v-1458z" />
<glyph unicode="G" horiz-adv-x="1249" d="M104 729q0 -250 15 -338q8 -47 20 -78q13 -30 29 -63q53 -101 170 -178q115 -80 287 -84q223 4 370 151q146 148 150 367v297h-518v-209h297v-76q-2 -137 -86 -221q-84 -88 -213 -88q-78 0 -134 33q-57 28 -92 73q-43 47 -57 123q-16 76 -16 291t16 293q14 74 57 121 q35 45 92 75q56 29 134 31q106 -2 180 -61q71 -62 98 -150h234q-35 183 -168 307q-133 123 -344 125q-172 -2 -287 -82q-117 -79 -170 -180q-33 -53 -49 -139q-15 -86 -15 -340z" />
<glyph unicode="H" horiz-adv-x="1327" d="M154 0h221v637h577v-637h221v1458h-221v-625h-577v625h-221v-1458z" />
<glyph unicode="I" horiz-adv-x="528" d="M154 0h221v1458h-221v-1458z" />
<glyph unicode="J" horiz-adv-x="985" d="M2 178q125 -184 379 -190q184 2 323 125q140 120 144 340v1005h-221v-983q0 -74 -23 -123q-22 -51 -61 -82q-78 -61 -163 -61h-5q-66 0 -115 31q-49 26 -80 67z" />
<glyph unicode="K" horiz-adv-x="1290" d="M154 0h221v444l256 269l397 -713h262l-516 883l467 575h-262l-600 -751h-4v751h-221v-1458z" />
<glyph unicode="L" horiz-adv-x="1139" d="M154 0h931v209h-710v1249h-221v-1458z" />
<glyph unicode="M" horiz-adv-x="1552" d="M154 0h221v909h4l305 -700h184l305 700h5v-909h221v1458h-209l-410 -950l-418 950h-208v-1458z" />
<glyph unicode="N" horiz-adv-x="1401" d="M154 0h221v1036h4l659 -1036h209v1458h-221v-1036h-4l-660 1036h-208v-1458z" />
<glyph unicode="O" horiz-adv-x="1249" d="M104 729q0 -250 15 -338q8 -47 20 -78q13 -30 29 -63q53 -101 170 -178q115 -80 287 -84q174 4 290 84q115 77 166 178q37 53 51 141q13 88 13 338q0 254 -13 340q-14 86 -51 139q-51 101 -166 180q-116 80 -290 82q-172 -2 -287 -82q-117 -79 -170 -180 q-33 -53 -49 -139q-15 -86 -15 -340zM326 729q0 215 16 293q14 74 57 121q35 45 92 75q56 29 134 31q79 -2 137 -31q55 -30 88 -75q43 -47 59 -121q15 -78 15 -293t-15 -291q-16 -76 -59 -123q-33 -45 -88 -73q-58 -33 -137 -33q-78 0 -134 33q-57 28 -92 73q-43 47 -57 123 q-16 76 -16 291z" />
<glyph unicode="P" horiz-adv-x="1214" d="M154 0h221v569h336q225 4 342 144q114 133 114 295q0 120 -45 208q-43 91 -112 140q-82 65 -162 86q-80 16 -166 16h-528v-1458zM375 778v471h319h8q85 0 150 -41q45 -26 70 -71q24 -50 24 -123q0 -88 -59 -160q-62 -74 -185 -76h-327z" />
<glyph unicode="Q" horiz-adv-x="1249" d="M104 729q0 -250 15 -338q8 -47 20 -78q13 -30 29 -63q53 -101 170 -178q115 -80 287 -84q215 4 344 127l184 -148l131 152l-192 153q30 50 43 140q10 90 10 317q0 254 -13 340q-14 86 -51 139q-51 101 -166 180q-116 80 -290 82q-172 -2 -287 -82q-117 -79 -170 -180 q-33 -53 -49 -139q-15 -86 -15 -340zM326 729q0 215 16 293q14 74 57 121q35 45 92 75q56 29 134 31q79 -2 137 -31q55 -30 88 -75q43 -47 59 -121q15 -78 15 -293q0 -231 -21 -305l-170 135l-131 -151l186 -148q-61 -51 -163 -51q-78 0 -134 33q-57 28 -92 73 q-43 47 -57 123q-16 76 -16 291z" />
<glyph unicode="R" horiz-adv-x="1249" d="M154 0h221v623h282l301 -623h263l-338 647q278 107 282 404q-6 202 -145 311q-115 96 -297 96h-569v-1458zM375 819v442h346q106 0 162 -45q71 -51 73 -165q0 -95 -61 -160q-62 -70 -186 -72h-334z" />
<glyph unicode="S" horiz-adv-x="1175" d="M27 188q233 -200 557 -200q501 6 512 424q0 155 -97 272q-98 119 -303 147q-104 13 -164 23q-108 20 -157 72q-49 51 -49 114q2 105 73 158q68 51 170 51q197 -4 361 -112l123 182q-201 145 -473 151q-226 -2 -349 -118q-127 -117 -127 -308q0 -159 101 -270 q98 -108 286 -139q105 -15 193 -27q192 -33 190 -196q-4 -199 -288 -203q-240 2 -414 145z" />
<glyph unicode="T" d="M2 1261h399v-1261h222v1261h399v197h-1020v-197z" />
<glyph unicode="U" horiz-adv-x="1290" d="M127 494q2 -230 152 -365q147 -139 366 -141q223 2 369 141q145 135 149 365v964h-221v-940q-2 -149 -84 -227q-84 -82 -213 -82t-211 82q-84 78 -86 227v940h-221v-964z" />
<glyph unicode="V" horiz-adv-x="1139" d="M2 1458l481 -1458h172l482 1458h-234l-332 -1110h-4l-331 1110h-234z" />
<glyph unicode="W" horiz-adv-x="1704" d="M23 1458l364 -1458h184l279 1051h4l278 -1051h185l364 1458h-233l-230 -1036h-4l-282 1036h-160l-283 -1036h-4l-229 1036h-233z" />
<glyph unicode="X" horiz-adv-x="1098" d="M-20 0h249l320 543l319 -543h250l-446 747l417 711h-249l-291 -506l-291 506h-250l418 -711z" />
<glyph unicode="Y" d="M-31 1458l439 -858v-600h208v600l439 858h-234l-309 -647l-309 647h-234z" />
<glyph unicode="Z" horiz-adv-x="1063" d="M66 0h931v209h-663l663 1083v166h-905v-197h635l-661 -1077v-184z" />
<glyph unicode="[" horiz-adv-x="569" d="M147 -209h379v135h-194v1397h194v135h-379v-1667z" />
<glyph unicode="\" horiz-adv-x="682" d="M16 1470l490 -1482h160l-490 1482h-160z" />
<glyph unicode="]" horiz-adv-x="569" d="M43 -74v-135h379v1667h-379v-135h195v-1397h-195z" />
<glyph unicode="^" horiz-adv-x="1229" d="M102 580h172l340 706l340 -706h172l-444 878h-135z" />
<glyph unicode="_" d="M0 -154v-102h1024v102h-1024z" />
<glyph unicode="`" horiz-adv-x="491" d="M-59 1470l290 -299h172l-188 299h-274z" />
<glyph unicode="a" d="M53 305q0 -137 99 -225q94 -90 268 -92q106 0 166 26q61 25 90 78h4v-92h209v709q-2 190 -119 268q-114 74 -303 74h-10h-12q-223 0 -339 -152l164 -125q27 45 74 64q45 16 123 16h12q203 0 201 -133v-109h-289q-166 -2 -252 -90q-86 -86 -86 -217zM250 318 q0 118 180 122h250v-75q0 -117 -49 -150q-51 -31 -170 -31h-15q-104 0 -149 41q-47 37 -47 93z" />
<glyph unicode="b" horiz-adv-x="1063" d="M135 0h209v109q104 -117 268 -121q97 2 166 39q70 36 113 96q43 49 59 133q15 80 15 264q0 187 -15 266q-16 80 -59 129q-88 131 -279 136q-80 0 -143 -33q-68 -35 -125 -90v530h-209v-1458zM344 520q0 60 6 115t25 102q20 47 63 76q41 29 111 29q74 0 117 -25 q43 -27 61 -74q20 -47 27 -102q2 -59 2 -121q0 -59 -2 -115q-7 -59 -27 -106q-18 -45 -61 -74q-43 -28 -117 -28q-70 0 -111 30q-43 29 -63 76q-19 47 -25 105q-6 57 -6 112z" />
<glyph unicode="c" horiz-adv-x="909" d="M55 518q4 -280 148 -405q139 -125 323 -125q121 2 213 53q92 49 160 127l-154 137q-79 -106 -211 -108h-8q-258 0 -262 321q4 324 264 324h6q132 -4 211 -109l154 137q-68 82 -160 131q-92 48 -213 50h-6q-180 0 -317 -123q-144 -127 -148 -410z" />
<glyph unicode="d" horiz-adv-x="1063" d="M135 520q0 -184 17 -264q14 -84 57 -133q47 -60 117 -96q67 -37 161 -39q166 4 269 121v-109h209v1458h-209v-530q-58 55 -121 90q-68 33 -148 33q-190 -5 -278 -136q-43 -49 -57 -129q-17 -79 -17 -266zM344 520q0 62 6 121q6 55 25 102q20 47 63 74q39 25 113 25 t117 -29t59 -76q20 -47 27 -102q2 -55 2 -115q0 -55 -2 -112q-7 -58 -27 -105q-16 -47 -59 -76q-43 -30 -117 -30t-113 28q-43 29 -63 74q-19 47 -25 106q-6 56 -6 115z" />
<glyph unicode="e" d="M84 516q0 -160 45 -260q41 -104 107 -162q34 -28 73 -47q37 -22 76 -35q78 -24 160 -24h5q212 0 369 168l-151 129q-100 -101 -227 -101q-109 0 -176 66q-72 65 -72 190h647v172q-2 205 -127 322q-123 115 -301 117q-74 0 -150 -27q-77 -27 -139 -88q-61 -60 -100 -164 q-39 -102 -39 -256zM293 612q6 121 65 183q60 59 154 59t154 -59q61 -62 65 -183h-438z" />
<glyph unicode="f" horiz-adv-x="569" d="M63 879h105v-879h209v879h209v159h-209v137v7q0 79 84 79h6h119v197h-135q-121 0 -201 -65q-82 -70 -82 -218v-137h-105v-159z" />
<glyph unicode="g" horiz-adv-x="1063" d="M98 518q0 -205 19 -278q18 -74 59 -125q37 -45 107 -84q67 -41 168 -43q165 4 268 121v-107q-2 -106 -66 -166q-65 -59 -172 -59q-57 2 -110 31q-52 26 -92 63l-162 -129q149 -170 360 -174q184 0 316 113q131 110 135 344v1013h-209v-110q-113 123 -268 123 q-101 -2 -168 -39q-70 -39 -107 -88q-41 -50 -59 -123q-19 -74 -19 -283zM307 518q0 121 8 168q7 47 33 76q21 28 64 55q41 23 102 25q61 -2 102 -25q41 -27 62 -55q26 -29 35 -76q6 -47 6 -168q0 -119 -6 -164q-9 -47 -35 -78q-21 -28 -62 -51q-41 -28 -102 -28t-102 28 q-43 23 -64 51q-26 31 -33 78q-8 45 -8 164z" />
<glyph unicode="h" horiz-adv-x="1100" d="M135 0h209v618q0 109 59 166q58 58 148 58t147 -58q58 -57 58 -166v-618h209v690q-5 178 -111 270q-107 91 -236 91q-167 0 -270 -123h-4v530h-209v-1458z" />
<glyph unicode="i" horiz-adv-x="491" d="M141 0h209v1038h-209v-1038zM141 1249h209v209h-209v-209z" />
<glyph unicode="j" horiz-adv-x="528" d="M-14 -223v-197h82q135 2 219 82q82 78 84 209v1167h-209v-1151q-2 -110 -117 -110h-59zM162 1249h209v209h-209v-209z" />
<glyph unicode="k" horiz-adv-x="1063" d="M135 0h209v299l164 186l276 -485h262l-407 633l358 405h-250l-399 -487h-4v907h-209v-1458z" />
<glyph unicode="l" horiz-adv-x="528" d="M135 252q0 -137 78 -195q74 -57 188 -57h93v197h-72q-78 0 -78 71v1190h-209v-1206z" />
<glyph unicode="m" horiz-adv-x="1745" d="M147 0h209v618q0 109 60 166q57 58 147 58t148 -58q57 -57 57 -166v-618h209v618q0 109 59 166q58 58 148 58t147 -58q57 -57 57 -166v-618h209v690q-4 178 -110 270q-107 91 -236 91h-6q-201 0 -321 -136q-54 60 -119 99q-66 35 -174 37q-168 0 -271 -123h-4v110h-209 v-1038z" />
<glyph unicode="n" horiz-adv-x="1100" d="M135 0h209v618q0 109 59 166q58 58 148 58t147 -58q58 -57 58 -166v-618h209v690q-5 178 -111 270q-107 91 -236 91q-167 0 -270 -123h-4v110h-209v-1038z" />
<glyph unicode="o" d="M84 520q0 -164 27 -250q28 -86 86 -149q43 -49 120 -88q76 -43 195 -45q123 2 199 45q41 18 67 43q29 22 49 45q62 63 88 149q25 86 25 250t-25 252q-26 86 -88 145q-41 52 -116 93q-76 39 -199 41q-119 -2 -195 -41q-77 -41 -120 -93q-58 -59 -86 -145q-27 -88 -27 -252 zM293 520q0 109 12 160q12 49 39 86q27 35 70 55q45 21 98 21q57 0 100 -21q45 -20 68 -55q31 -37 41 -86q10 -51 10 -162q0 -106 -10 -156q-10 -51 -41 -90q-23 -30 -68 -53q-43 -22 -100 -22q-53 0 -98 22q-43 23 -70 53q-27 39 -39 90q-12 50 -12 158z" />
<glyph unicode="p" horiz-adv-x="1063" d="M135 -420h209v531q57 -56 125 -88q63 -35 143 -35q97 2 166 39q70 36 113 96q43 51 59 131q15 80 15 264q0 189 -15 268q-16 80 -59 129q-88 131 -279 136q-164 -5 -268 -121v108h-209v-1458zM344 518q0 59 6 117q6 55 25 102q20 47 63 76q41 29 111 29q74 0 117 -25 q43 -27 61 -74q20 -45 27 -104q2 -59 2 -121q0 -59 -2 -115q-7 -57 -27 -104q-18 -45 -61 -74q-43 -28 -117 -28q-70 0 -111 30q-43 29 -63 76q-19 47 -25 105q-6 55 -6 110z" />
<glyph unicode="q" horiz-adv-x="1063" d="M98 518q0 -184 17 -264q14 -80 57 -131q47 -60 117 -96q67 -37 162 -39q79 0 147 35q63 32 121 88v-531h209v1458h-209v-108q-103 116 -268 121q-191 -5 -279 -136q-43 -49 -57 -129q-17 -79 -17 -268zM307 518q0 62 6 121t25 104q20 47 63 74q39 25 113 25t117 -29 t59 -76q21 -47 27 -102q2 -58 2 -117q0 -55 -2 -110q-6 -58 -27 -105q-16 -47 -59 -76q-43 -30 -117 -30t-113 28q-43 29 -63 74q-19 47 -25 104q-6 56 -6 115z" />
<glyph unicode="r" horiz-adv-x="797" d="M135 0h209v625q2 114 66 165q57 52 137 52q71 0 137 -52l152 181q-93 78 -218 80q-167 0 -270 -123h-4v110h-209v-1038z" />
<glyph unicode="s" horiz-adv-x="983" d="M20 174q203 -186 457 -186q187 2 307 86q121 82 123 233q0 129 -67 213q-72 86 -234 98l-172 13q-76 8 -106 37q-33 26 -31 61q0 55 41 90q39 35 137 35q86 0 152 -25q67 -28 127 -71l129 151q-76 66 -172 105q-50 18 -107 28q-57 9 -129 9q-166 0 -274 -80 q-111 -80 -113 -240q2 -133 86 -207q82 -76 213 -88l184 -16q58 -2 93 -25q34 -22 34 -78q0 -63 -57 -98t-147 -35q-201 0 -328 133z" />
<glyph unicode="t" horiz-adv-x="569" d="M43 879h104v-623q0 -123 72 -188q70 -68 180 -68h109v197h-78h-4q-72 0 -70 77v605h152v159h-152v316h-209v-316h-104v-159z" />
<glyph unicode="u" horiz-adv-x="1100" d="M135 348q2 -176 115 -266q104 -92 233 -94q166 0 269 123h4v-111h209v1038h-209v-618q0 -105 -58 -164q-57 -59 -147 -59t-148 59q-59 59 -59 164v618h-209v-690z" />
<glyph unicode="v" horiz-adv-x="909" d="M-12 1038l381 -1038h172l381 1038h-222l-243 -727h-4l-244 727h-221z" />
<glyph unicode="w" horiz-adv-x="1479" d="M4 1038l332 -1038h184l217 727h4l217 -727h185l331 1038h-221l-198 -727h-4l-236 727h-151l-236 -727h-4l-199 727h-221z" />
<glyph unicode="x" horiz-adv-x="983" d="M20 0h250l221 346l222 -346h249l-354 530l340 508h-250l-207 -336l-206 336h-250l340 -508z" />
<glyph unicode="y" horiz-adv-x="909" d="M-14 1038l372 -997l-57 -174q-14 -45 -49 -68q-35 -22 -76 -22h-61v-197h69q97 0 174 43q76 45 119 162l447 1253h-222l-245 -727h-4l-246 727h-221z" />
<glyph unicode="z" horiz-adv-x="909" d="M68 0h774v197h-520l520 675v166h-746v-184h492l-520 -688v-166z" />
<glyph unicode="{" horiz-adv-x="569" d="M29 557q80 -2 120 -74q39 -69 39 -176v-289q2 -106 62 -165q57 -60 139 -62h174v135h-100q-49 2 -70 56q-20 49 -20 114v262q0 72 -19 121q-18 49 -47 80q-24 31 -51 47q-27 14 -43 17v4q35 8 94 69q29 31 47 80q19 45 19 113v264q0 68 20 119q21 49 70 51h100v135h-174 q-82 0 -139 -59q-60 -60 -62 -168v-293q0 -100 -39 -172q-18 -35 -49 -53q-30 -21 -71 -21v-135z" />
<glyph unicode="|" horiz-adv-x="455" d="M147 -12h160v1482h-160v-1482z" />
<glyph unicode="}" horiz-adv-x="569" d="M6 -74v-135h174q86 2 144 62q55 59 57 165v293q0 105 43 174q41 70 117 72v135q-76 6 -117 76q-43 70 -43 174v289q-2 108 -57 168q-58 59 -144 59h-174v-135h100q50 -2 70 -51q21 -51 21 -119v-262q0 -70 22 -119q19 -49 47 -80q29 -31 53 -45q25 -14 37 -20v-4 q-30 -5 -90 -66q-28 -31 -47 -80q-22 -49 -22 -117v-264q0 -65 -21 -114q-20 -54 -70 -56h-100z" />
<glyph unicode="~" horiz-adv-x="1229" d="M141 489l74 -127q37 56 78 101q43 43 102 45q43 -2 99 -25q53 -22 110 -49q62 -24 119 -45q55 -22 108 -22q105 2 164 59q60 51 92 119l-73 129q-33 -56 -76 -99q-43 -47 -105 -49q-40 0 -96 25q-55 22 -112 49q-60 29 -115 49q-59 19 -113 19q-100 -2 -161 -56 q-62 -55 -95 -123z" />
<glyph unicode="&#xa1;" horiz-adv-x="528" d="M133 -420h262l-78 1098h-104zM160 829h209v209h-209v-209z" />
<glyph unicode="&#xa2;" horiz-adv-x="983" d="M70 518q2 -264 133 -391q123 -127 295 -139v-187h82v187q217 32 333 180l-153 137q-62 -82 -180 -108v645q118 -27 180 -109l153 137q-116 150 -333 181v186h-82v-186q-172 -11 -295 -138q-131 -127 -133 -395zM279 518q2 301 219 324v-645q-217 24 -219 321z" />
<glyph unicode="&#xa3;" horiz-adv-x="983" d="M59 614h164q19 -59 35 -114q14 -56 14 -101q-2 -84 -36 -174q-80 -2 -150 -41v-196q98 41 180 41q80 -2 207 -21q125 -18 193 -20q69 0 147 22q78 23 149 80l-129 162q-47 -37 -98 -51q-53 -17 -100 -17q-51 0 -117 15q-67 10 -113 14q62 109 64 221q-2 86 -37 180h279 v136h-330q-70 137 -72 303q4 217 187 221q170 0 182 -223h209q0 188 -99 303q-100 114 -307 116q-166 -2 -270 -108q-109 -109 -111 -305q-2 -144 72 -307h-113v-136z" />
<glyph unicode="&#xa4;" horiz-adv-x="983" d="M31 375l108 -107l101 101q45 -33 112 -56q66 -24 142 -24q155 2 251 80l101 -101l106 107l-98 100q76 94 80 254q-4 158 -80 254l98 100l-106 107l-101 -98q-96 75 -251 77q-160 -4 -254 -80l-101 101l-108 -107l100 -100q-76 -96 -78 -254q2 -160 78 -252zM213 729 q6 287 281 293q272 -6 280 -293q0 -135 -76 -213q-75 -80 -204 -80q-127 0 -203 80q-78 78 -78 213z" />
<glyph unicode="&#xa5;" horiz-adv-x="983" d="M-29 1458l328 -668h-213v-135h279l28 -55v-137h-307v-135h307v-328h197v328h307v135h-307v137l28 55h279v135h-213l328 668h-222l-299 -647l-299 647h-221z" />
<glyph unicode="&#xa6;" horiz-adv-x="455" d="M147 -12h160v555h-160v-555zM147 915h160v555h-160v-555z" />
<glyph unicode="&#xa7;" horiz-adv-x="983" d="M94 551q-2 -154 55 -236q58 -86 224 -141l78 -27q129 -38 169 -73q39 -37 37 -111q0 -76 -45 -117q-45 -43 -116 -43q-82 2 -125 52q-45 47 -52 125h-184q2 -175 105 -271q100 -100 241 -102q158 2 264 100q107 98 109 268q0 88 -31 156q-35 70 -127 107q125 65 162 141 q33 78 31 196q0 201 -82 283q-82 84 -252 129q-117 37 -164 72q-47 30 -47 96q0 49 37 88q35 39 110 41q78 0 117 -45q39 -47 39 -123h184q-2 180 -100 268q-96 84 -240 84q-141 -2 -233 -90q-96 -92 -98 -239q-4 -162 135 -244q-123 -51 -162 -129q-41 -80 -39 -215z M303 567q0 72 10 107q9 35 33 61q41 58 145 62q54 0 91 -17q36 -18 55 -45q24 -26 35 -61q8 -35 8 -107q2 -106 -35 -159q-37 -70 -154 -74q-57 0 -94 24q-41 23 -59 50q-37 53 -35 159z" />
<glyph unicode="&#xa8;" horiz-adv-x="491" d="M-45 1200h221v221h-221v-221zM315 1200h222v221h-222v-221z" />
<glyph unicode="&#xa9;" horiz-adv-x="1638" d="M78 729q4 -315 219 -522q207 -215 522 -219q316 4 526 219q211 207 215 522q-4 315 -215 526q-210 211 -526 215q-315 -4 -522 -215q-215 -211 -219 -526zM238 729q2 266 167 428q160 164 414 166q256 -2 418 -166q162 -162 164 -428q-2 -262 -164 -424 q-162 -168 -418 -170q-254 2 -414 170q-165 162 -167 424zM395 729q0 -207 121 -336q119 -135 330 -137q305 4 375 344h-148q-14 -88 -74 -141q-63 -56 -153 -56q-133 2 -211 103q-80 96 -80 227q0 137 76 229q76 91 211 93q90 0 153 -52q62 -51 78 -135h148 q-21 170 -125 252q-103 82 -256 82q-213 -2 -328 -131q-117 -129 -117 -342z" />
<glyph unicode="&#xaa;" horiz-adv-x="666" d="M12 1016q0 -72 64 -127q63 -58 209 -58q123 0 163 68h5v-59h159v426q-6 211 -305 204q-92 0 -149 -16q-60 -21 -103 -76l107 -90q16 27 47 39q31 8 104 8q52 0 95 -10q43 -12 45 -70v-37h-230q-100 0 -153 -57q-58 -57 -58 -145zM172 1028q2 70 117 68h164v-37 q2 -51 -25 -72q-31 -20 -129 -20q-45 0 -84 14q-18 8 -29 20q-14 13 -14 27z" />
<glyph unicode="&#xab;" horiz-adv-x="983" d="M96 567l418 -413v208l-209 205l209 205v209zM469 567l418 -413v208l-209 205l209 205v209z" />
<glyph unicode="&#xac;" horiz-adv-x="1229" d="M96 643h877v-422h159v582h-1036v-160z" />
<glyph unicode="&#xad;" horiz-adv-x="833" d="M109 463h616v209h-616v-209z" />
<glyph unicode="&#xae;" horiz-adv-x="1638" d="M78 729q4 -315 219 -522q207 -215 522 -219q316 4 526 219q211 207 215 522q-4 315 -215 526q-210 211 -526 215q-315 -4 -522 -215q-215 -211 -219 -526zM238 729q2 266 167 428q160 164 414 166q256 -2 418 -166q162 -162 164 -428q-2 -262 -164 -424 q-162 -168 -418 -170q-254 2 -414 170q-165 162 -167 424zM539 317h147v351h84l248 -351h172l-248 355q94 10 158 67q61 58 63 185q0 260 -297 258h-327v-865zM686 803v243h135q78 0 135 -22q58 -25 60 -100q-2 -80 -68 -103q-67 -20 -160 -18h-102z" />
<glyph unicode="&#xaf;" horiz-adv-x="491" d="M-49 1243h590v135h-590v-135z" />
<glyph unicode="&#xb0;" horiz-adv-x="819" d="M117 1178q2 -123 86 -207t207 -86q127 2 208 86q82 84 84 207q-2 126 -84 208q-81 82 -208 84q-123 -2 -207 -84t-86 -208zM221 1178q0 81 58 135q51 51 131 53q81 -2 135 -53q51 -54 53 -135q-2 -80 -53 -132q-54 -57 -135 -57q-80 0 -131 57q-58 52 -58 132z" />
<glyph unicode="&#xb1;" horiz-adv-x="1229" d="M96 0h1036v160h-1036v-160zM96 580h438v-297h160v297h438v159h-438v297h-160v-297h-438v-159z" />
<glyph unicode="&#xb2;" horiz-adv-x="639" d="M31 588h577v147h-368l303 320q39 43 53 82q12 38 12 81q-2 107 -80 181q-80 69 -211 71q-122 -2 -198 -73q-82 -76 -82 -201h172q10 125 115 127q53 0 84 -29q28 -28 28 -76q0 -55 -45 -98l-360 -385v-147z" />
<glyph unicode="&#xb3;" horiz-adv-x="639" d="M10 825q51 -248 301 -245q148 0 232 73q84 74 86 195q0 57 -25 106q-27 51 -90 86q61 37 84 84q20 47 20 97q0 100 -79 174q-80 73 -232 75q-125 -2 -201 -71q-77 -70 -90 -183h172q15 56 52 82q39 25 86 25q53 0 88 -29q32 -30 32 -76q0 -51 -38 -79q-41 -33 -109 -33 h-66v-135h76q64 0 105 -33q41 -35 43 -94q-2 -54 -37 -84q-39 -33 -98 -33q-109 2 -140 98h-172z" />
<glyph unicode="&#xb4;" horiz-adv-x="491" d="M88 1171h172l291 299h-275z" />
<glyph unicode="&#xb5;" horiz-adv-x="1100" d="M135 -420h209v438q68 -30 139 -30q166 0 269 123h4v-111h209v1038h-209v-618q0 -105 -58 -164q-57 -59 -147 -59t-148 59q-59 59 -59 164v618h-209v-1458z" />
<glyph unicode="&#xb6;" horiz-adv-x="1229" d="M98 1065q2 -164 123 -268q117 -111 307 -113v-1063h160v1702h148v-1702h159v1837h-430q-459 2 -467 -393z" />
<glyph unicode="&#xb8;" horiz-adv-x="491" d="M10 -414q107 -47 207 -49q105 0 178 49q72 45 74 144q0 65 -47 110t-133 45q-33 0 -56 -8h-4l90 123h-104l-129 -180l45 -39q39 24 78 22q43 0 72 -18q28 -18 28 -57q-4 -86 -119 -86q-73 2 -143 30z" />
<glyph unicode="&#xb9;" horiz-adv-x="639" d="M104 1200l136 90v-702h172v874h-172l-136 -90v-172z" />
<glyph unicode="&#xba;" horiz-adv-x="666" d="M31 1151q0 -92 14 -139q12 -50 51 -90q88 -91 236 -91q149 0 237 91q39 40 54 90q12 47 12 139t-12 141q-15 49 -54 88q-88 90 -235 90q-150 0 -238 -90q-39 -39 -51 -88q-14 -49 -14 -141zM190 1151q0 55 7 84q4 29 24 51q37 47 113 49q74 -2 110 -49q33 -39 31 -135 q0 -53 -4 -80q-6 -29 -27 -55q-36 -49 -112 -49q-74 0 -111 49q-35 39 -31 135z" />
<glyph unicode="&#xbb;" horiz-adv-x="983" d="M96 154l418 413l-418 414v-209l209 -205l-209 -205v-208zM469 154l418 413l-418 414v-209l209 -205l-209 -205v-208z" />
<glyph unicode="&#xbc;" horiz-adv-x="1477" d="M104 1200l136 90v-702h172v874h-172l-136 -90v-172zM199 -35h135l882 1528h-135zM770 127h401v-127h172v127h68v147h-68v226h-172v-226h-223l311 596h-172l-317 -596v-147z" />
<glyph unicode="&#xbd;" horiz-adv-x="1477" d="M104 1200l136 90v-702h172v874h-172l-136 -90v-172zM147 -35h136l882 1528h-135zM833 0h578v147h-369l303 320q39 43 54 82q12 39 12 82q-2 106 -80 180q-80 70 -211 72q-123 -2 -198 -74q-82 -76 -82 -201h172q10 125 114 127q54 0 84 -28q29 -29 29 -76q0 -56 -45 -99 l-361 -385v-147z" />
<glyph unicode="&#xbe;" horiz-adv-x="1477" d="M10 825q51 -248 301 -245q148 0 232 73q84 74 86 195q0 57 -25 106q-27 51 -90 86q61 37 84 84q20 47 20 97q0 100 -79 174q-80 73 -232 75q-125 -2 -201 -71q-77 -70 -90 -183h172q15 56 52 82q39 25 86 25q53 0 88 -29q32 -30 32 -76q0 -51 -38 -79q-41 -33 -109 -33 h-66v-135h76q64 0 105 -33q41 -35 43 -94q-2 -54 -37 -84q-39 -33 -98 -33q-109 2 -140 98h-172zM260 -35h135l883 1528h-135zM770 127h401v-127h172v127h68v147h-68v226h-172v-226h-223l311 596h-172l-317 -596v-147z" />
<glyph unicode="&#xbf;" horiz-adv-x="948" d="M106 -39q3 -180 123 -285q117 -106 273 -108q162 2 272 115q113 108 115 276v41h-209q-2 -121 -55 -172q-54 -51 -134 -51q-61 2 -116 51q-58 47 -60 131q0 66 52 135l182 254q33 47 45 94q8 45 8 103v133h-209v-117q2 -76 -35 -129l-186 -256q-66 -86 -66 -215zM393 829 h209v209h-209v-209z" />
<glyph unicode="&#xc0;" horiz-adv-x="1249" d="M2 0h234l112 326h553l113 -326h233l-530 1458h-185zM328 1828l290 -299h172l-188 299h-274zM412 522l211 637h4l211 -637h-426z" />
<glyph unicode="&#xc1;" horiz-adv-x="1249" d="M2 0h234l112 326h553l113 -326h233l-530 1458h-185zM412 522l211 637h4l211 -637h-426zM482 1529h172l291 299h-275z" />
<glyph unicode="&#xc2;" horiz-adv-x="1249" d="M2 0h234l112 326h553l113 -326h233l-530 1458h-185zM300 1529h197l137 176l137 -176h197l-218 299h-233zM412 522l211 637h4l211 -637h-426z" />
<glyph unicode="&#xc3;" horiz-adv-x="1249" d="M2 0h234l112 326h553l113 -326h233l-530 1458h-185zM268 1550h123q0 51 33 72q31 16 53 16q64 -2 141 -37q37 -14 78 -25q39 -14 76 -14q104 2 158 74q53 67 67 164h-123q-10 -54 -36 -72q-29 -20 -60 -18q-31 0 -61 14q-33 10 -70 27q-35 16 -72 26q-36 10 -75 10 q-95 0 -154 -63q-61 -66 -78 -174zM412 522l211 637h4l211 -637h-426z" />
<glyph unicode="&#xc4;" horiz-adv-x="1249" d="M2 0h234l112 326h553l113 -326h233l-530 1458h-185zM345 1558h221v221h-221v-221zM412 522l211 637h4l211 -637h-426zM705 1558h222v221h-222v-221z" />
<glyph unicode="&#xc5;" horiz-adv-x="1249" d="M2 0h234l112 326h553l113 -326h233l-530 1458h-185zM412 522l211 637h4l211 -637h-426zM427 1710q0 -88 63 -148q60 -63 148 -63q92 0 151 63q58 60 60 148q-2 92 -60 151q-59 57 -151 60q-88 -3 -148 -60q-63 -59 -63 -151zM509 1710q0 57 39 92q36 35 90 37 q57 -2 92 -37t37 -92q-2 -54 -37 -91q-35 -38 -92 -38q-54 0 -90 38q-39 37 -39 91z" />
<glyph unicode="&#xc6;" horiz-adv-x="1857" d="M-23 0h234l176 326h485v-326h932v209h-710v428h606v196h-606v416h710v209h-1034zM491 522l377 739h4v-739h-381z" />
<glyph unicode="&#xc7;" horiz-adv-x="1139" d="M104 729q0 -250 15 -338q8 -47 20 -78q13 -30 29 -63q53 -92 160 -170q106 -78 266 -92l-123 -168l45 -39q39 24 78 22q43 0 72 -18q28 -18 28 -57q-4 -86 -119 -86q-73 2 -143 30l-37 -86q107 -47 207 -49q105 0 178 49q72 45 74 144q0 65 -47 110t-133 45q-33 0 -56 -8 h-4l86 115q342 47 437 416h-234q-92 -199 -278 -199q-78 0 -134 33q-57 28 -92 73q-43 47 -57 123q-16 76 -16 291t16 293q14 74 57 121q35 45 92 75q56 29 134 31q106 -2 180 -61q71 -62 98 -150h234q-35 183 -168 307q-133 123 -344 125q-172 -2 -287 -82 q-117 -79 -170 -180q-33 -53 -49 -139q-15 -86 -15 -340z" />
<glyph unicode="&#xc8;" horiz-adv-x="1139" d="M154 0h931v209h-710v428h606v196h-606v416h710v209h-931v-1458zM331 1828l290 -299h172l-188 299h-274z" />
<glyph unicode="&#xc9;" horiz-adv-x="1139" d="M154 0h931v209h-710v428h606v196h-606v416h710v209h-931v-1458zM482 1529h172l291 299h-275z" />
<glyph unicode="&#xca;" horiz-adv-x="1139" d="M154 0h931v209h-710v428h606v196h-606v416h710v209h-931v-1458zM301 1529h197l137 176l137 -176h197l-218 299h-233z" />
<glyph unicode="&#xcb;" horiz-adv-x="1139" d="M154 0h931v209h-710v428h606v196h-606v416h710v209h-931v-1458zM345 1558h221v221h-221v-221zM705 1558h222v221h-222v-221z" />
<glyph unicode="&#xcc;" horiz-adv-x="528" d="M-47 1828l290 -299h172l-188 299h-274zM154 0h221v1458h-221v-1458z" />
<glyph unicode="&#xcd;" horiz-adv-x="528" d="M106 1529h172l291 299h-275zM154 0h221v1458h-221v-1458z" />
<glyph unicode="&#xce;" horiz-adv-x="528" d="M-76 1529h197l137 176l137 -176h197l-218 299h-233zM154 0h221v1458h-221v-1458z" />
<glyph unicode="&#xcf;" horiz-adv-x="528" d="M-31 1558h221v221h-221v-221zM154 0h221v1458h-221v-1458zM329 1558h222v221h-222v-221z" />
<glyph unicode="&#xd0;" horiz-adv-x="1290" d="M0 637h154v-637h495q164 0 277 72q114 67 178 170q24 39 41 75q16 37 24 84q17 93 17 328q0 221 -11 311q-14 90 -67 172q-148 244 -444 246h-510v-625h-154v-196zM375 209v428h278v196h-278v416h264q168 4 260 -123q45 -51 57 -133q9 -82 9 -272q0 -195 -9 -266 q-10 -72 -47 -119q-84 -127 -270 -127h-264z" />
<glyph unicode="&#xd1;" horiz-adv-x="1401" d="M154 0h221v1036h4l659 -1036h209v1458h-221v-1036h-4l-660 1036h-208v-1458zM341 1550h123q0 51 33 72q31 16 53 16q64 -2 141 -37q37 -14 78 -25q39 -14 76 -14q104 2 158 74q53 67 67 164h-123q-10 -54 -36 -72q-29 -20 -60 -18q-31 0 -61 14q-33 10 -70 27 q-35 16 -72 26q-36 10 -75 10q-95 0 -154 -63q-61 -66 -78 -174z" />
<glyph unicode="&#xd2;" horiz-adv-x="1249" d="M104 729q0 -250 15 -338q8 -47 20 -78q13 -30 29 -63q53 -101 170 -178q115 -80 287 -84q174 4 290 84q115 77 166 178q37 53 51 141q13 88 13 338q0 254 -13 340q-14 86 -51 139q-51 101 -166 180q-116 80 -290 82q-172 -2 -287 -82q-117 -79 -170 -180 q-33 -53 -49 -139q-15 -86 -15 -340zM326 729q0 215 16 293q14 74 57 121q35 45 92 75q56 29 134 31q79 -2 137 -31q55 -30 88 -75q43 -47 59 -121q15 -78 15 -293t-15 -291q-16 -76 -59 -123q-33 -45 -88 -73q-58 -33 -137 -33q-78 0 -134 33q-57 28 -92 73q-43 47 -57 123 q-16 76 -16 291zM326 1828l290 -299h172l-188 299h-274z" />
<glyph unicode="&#xd3;" horiz-adv-x="1249" d="M104 729q0 -250 15 -338q8 -47 20 -78q13 -30 29 -63q53 -101 170 -178q115 -80 287 -84q174 4 290 84q115 77 166 178q37 53 51 141q13 88 13 338q0 254 -13 340q-14 86 -51 139q-51 101 -166 180q-116 80 -290 82q-172 -2 -287 -82q-117 -79 -170 -180 q-33 -53 -49 -139q-15 -86 -15 -340zM326 729q0 215 16 293q14 74 57 121q35 45 92 75q56 29 134 31q79 -2 137 -31q55 -30 88 -75q43 -47 59 -121q15 -78 15 -293t-15 -291q-16 -76 -59 -123q-33 -45 -88 -73q-58 -33 -137 -33q-78 0 -134 33q-57 28 -92 73q-43 47 -57 123 q-16 76 -16 291zM477 1529h172l291 299h-275z" />
<glyph unicode="&#xd4;" horiz-adv-x="1249" d="M104 729q0 -250 15 -338q8 -47 20 -78q13 -30 29 -63q53 -101 170 -178q115 -80 287 -84q174 4 290 84q115 77 166 178q37 53 51 141q13 88 13 338q0 254 -13 340q-14 86 -51 139q-51 101 -166 180q-116 80 -290 82q-172 -2 -287 -82q-117 -79 -170 -180 q-33 -53 -49 -139q-15 -86 -15 -340zM295 1529h197l137 176l137 -176h197l-218 299h-233zM326 729q0 215 16 293q14 74 57 121q35 45 92 75q56 29 134 31q79 -2 137 -31q55 -30 88 -75q43 -47 59 -121q15 -78 15 -293t-15 -291q-16 -76 -59 -123q-33 -45 -88 -73 q-58 -33 -137 -33q-78 0 -134 33q-57 28 -92 73q-43 47 -57 123q-16 76 -16 291z" />
<glyph unicode="&#xd5;" horiz-adv-x="1249" d="M104 729q0 -250 15 -338q8 -47 20 -78q13 -30 29 -63q53 -101 170 -178q115 -80 287 -84q174 4 290 84q115 77 166 178q37 53 51 141q13 88 13 338q0 254 -13 340q-14 86 -51 139q-51 101 -166 180q-116 80 -290 82q-172 -2 -287 -82q-117 -79 -170 -180 q-33 -53 -49 -139q-15 -86 -15 -340zM265 1550h123q0 51 33 72q31 16 53 16q64 -2 141 -37q37 -14 78 -25q39 -14 76 -14q104 2 158 74q53 67 67 164h-123q-10 -54 -36 -72q-29 -20 -60 -18q-31 0 -61 14q-33 10 -70 27q-35 16 -72 26q-36 10 -75 10q-95 0 -154 -63 q-61 -66 -78 -174zM326 729q0 215 16 293q14 74 57 121q35 45 92 75q56 29 134 31q79 -2 137 -31q55 -30 88 -75q43 -47 59 -121q15 -78 15 -293t-15 -291q-16 -76 -59 -123q-33 -45 -88 -73q-58 -33 -137 -33q-78 0 -134 33q-57 28 -92 73q-43 47 -57 123q-16 76 -16 291z " />
<glyph unicode="&#xd6;" horiz-adv-x="1249" d="M104 729q0 -250 15 -338q8 -47 20 -78q13 -30 29 -63q53 -101 170 -178q115 -80 287 -84q174 4 290 84q115 77 166 178q37 53 51 141q13 88 13 338q0 254 -13 340q-14 86 -51 139q-51 101 -166 180q-116 80 -290 82q-172 -2 -287 -82q-117 -79 -170 -180 q-33 -53 -49 -139q-15 -86 -15 -340zM326 729q0 215 16 293q14 74 57 121q35 45 92 75q56 29 134 31q79 -2 137 -31q55 -30 88 -75q43 -47 59 -121q15 -78 15 -293t-15 -291q-16 -76 -59 -123q-33 -45 -88 -73q-58 -33 -137 -33q-78 0 -134 33q-57 28 -92 73q-43 47 -57 123 q-16 76 -16 291zM340 1558h221v221h-221v-221zM700 1558h222v221h-222v-221z" />
<glyph unicode="&#xd7;" horiz-adv-x="1229" d="M137 156l113 -113l364 367l363 -367l115 113l-367 362l367 365l-115 114l-363 -366l-364 366l-113 -114l367 -365z" />
<glyph unicode="&#xd8;" horiz-adv-x="1249" d="M104 729q0 -250 15 -338q8 -47 20 -78q13 -30 29 -63q27 -45 72 -98l-113 -203l94 -51l103 184q120 -92 301 -94q174 4 290 84q115 77 166 178q37 53 51 141q13 88 13 338q0 254 -13 340q-14 86 -51 139q-26 51 -73 101l110 200l-94 51l-100 -180q-121 88 -299 90 q-172 -2 -287 -82q-117 -79 -170 -180q-33 -53 -49 -139q-15 -86 -15 -340zM326 729q0 215 16 293q14 74 57 121q35 45 92 75q56 29 134 31q116 -2 188 -67l-451 -809q-20 39 -28 118q-8 78 -8 238zM434 281l451 808q24 -38 32 -116q7 -78 7 -244q0 -215 -15 -291 q-16 -76 -59 -123q-33 -45 -88 -73q-58 -33 -137 -33q-123 2 -191 72z" />
<glyph unicode="&#xd9;" horiz-adv-x="1290" d="M127 494q2 -230 152 -365q147 -139 366 -141q223 2 369 141q145 135 149 365v964h-221v-940q-2 -149 -84 -227q-84 -82 -213 -82t-211 82q-84 78 -86 227v940h-221v-964zM347 1828l290 -299h172l-188 299h-274z" />
<glyph unicode="&#xda;" horiz-adv-x="1290" d="M127 494q2 -230 152 -365q147 -139 366 -141q223 2 369 141q145 135 149 365v964h-221v-940q-2 -149 -84 -227q-84 -82 -213 -82t-211 82q-84 78 -86 227v940h-221v-964zM498 1529h172l291 299h-275z" />
<glyph unicode="&#xdb;" horiz-adv-x="1290" d="M127 494q2 -230 152 -365q147 -139 366 -141q223 2 369 141q145 135 149 365v964h-221v-940q-2 -149 -84 -227q-84 -82 -213 -82t-211 82q-84 78 -86 227v940h-221v-964zM316 1529h197l137 176l137 -176h197l-218 299h-233z" />
<glyph unicode="&#xdc;" horiz-adv-x="1290" d="M127 494q2 -230 152 -365q147 -139 366 -141q223 2 369 141q145 135 149 365v964h-221v-940q-2 -149 -84 -227q-84 -82 -213 -82t-211 82q-84 78 -86 227v940h-221v-964zM361 1558h221v221h-221v-221zM721 1558h222v221h-222v-221z" />
<glyph unicode="&#xdd;" d="M-31 1458l439 -858v-600h208v600l439 858h-234l-309 -647l-309 647h-234zM366 1529h172l291 299h-275z" />
<glyph unicode="&#xde;" horiz-adv-x="1214" d="M154 0h221v315h336q225 4 342 144q114 133 114 301t-114 303q-117 137 -342 141h-336v254h-221v-1458zM375 524v471h329q115 -2 179 -76q63 -71 63 -159q0 -86 -63 -158q-31 -33 -74 -55q-43 -23 -102 -23h-332z" />
<glyph unicode="&#xdf;" horiz-adv-x="1100" d="M131 0v1130q1 86 33.5 150t90.5 106t137.5 63t174.5 21q89 -1 162.5 -24.5t126.5 -67.5t82.5 -108t30.5 -146q-2 -170 -150 -231q150 -62 150 -227v-371q-1 -62 -21.5 -115.5t-58 -93t-90.5 -62.5t-119 -24h-129v197h74q74 0 104.5 23.5t30.5 84.5v365q0 60 -27.5 90 t-87.5 30h-121v197h125q49 0 80 26.5t31 94.5q0 87 -46.5 120t-145.5 33q-63 0 -106 -7.5t-70 -23.5t-39 -41t-13 -59v-1130h-209z" />
<glyph unicode="&#xe0;" d="M53 305q0 -137 99 -225q94 -90 268 -92q106 0 166 26q61 25 90 78h4v-92h209v709q-2 190 -119 268q-117 76 -313 74q-232 4 -351 -152l164 -125q27 45 74 64q45 16 123 16q215 4 213 -133v-109h-289q-166 -2 -252 -90q-86 -86 -86 -217zM212 1470l290 -299h172l-188 299 h-274zM250 315q-2 121 180 125h250v-75q0 -117 -49 -150q-54 -33 -185 -31q-104 0 -149 41q-47 37 -47 90z" />
<glyph unicode="&#xe1;" d="M53 305q0 -137 99 -225q94 -90 268 -92q106 0 166 26q61 25 90 78h4v-92h209v709q-2 190 -119 268q-117 76 -313 74q-232 4 -351 -152l164 -125q27 45 74 64q45 16 123 16q215 4 213 -133v-109h-289q-166 -2 -252 -90q-86 -86 -86 -217zM250 315q-2 121 180 125h250v-75 q0 -117 -49 -150q-54 -33 -185 -31q-104 0 -149 41q-47 37 -47 90zM363 1171h172l291 299h-275z" />
<glyph unicode="&#xe2;" d="M53 305q0 -137 99 -225q94 -90 268 -92q106 0 166 26q61 25 90 78h4v-92h209v709q-2 190 -119 268q-117 76 -313 74q-232 4 -351 -152l164 -125q27 45 74 64q45 16 123 16q215 4 213 -133v-109h-289q-166 -2 -252 -90q-86 -86 -86 -217zM182 1171h197l137 176l137 -176 h197l-218 299h-233zM250 315q-2 121 180 125h250v-75q0 -117 -49 -150q-54 -33 -185 -31q-104 0 -149 41q-47 37 -47 90z" />
<glyph unicode="&#xe3;" d="M53 305q0 -137 99 -225q94 -90 268 -92q106 0 166 26q61 25 90 78h4v-92h209v709q-2 190 -119 268q-117 76 -313 74q-232 4 -351 -152l164 -125q27 45 74 64q45 16 123 16q215 4 213 -133v-109h-289q-166 -2 -252 -90q-86 -86 -86 -217zM150 1192h123q0 51 33 72 q31 16 53 16q64 -2 141 -37q37 -14 78 -25q39 -14 76 -14q104 2 158 74q53 67 67 164h-123q-10 -54 -36 -72q-29 -20 -60 -18q-31 0 -61 14q-33 10 -70 27q-35 16 -72 26q-36 10 -75 10q-95 0 -154 -63q-61 -66 -78 -174zM250 315q-2 121 180 125h250v-75q0 -117 -49 -150 q-54 -33 -185 -31q-104 0 -149 41q-47 37 -47 90z" />
<glyph unicode="&#xe4;" d="M53 305q0 -137 99 -225q94 -90 268 -92q106 0 166 26q61 25 90 78h4v-92h209v709q-2 190 -119 268q-117 76 -313 74q-232 4 -351 -152l164 -125q27 45 74 64q45 16 123 16q215 4 213 -133v-109h-289q-166 -2 -252 -90q-86 -86 -86 -217zM226 1200h221v221h-221v-221z M250 315q-2 121 180 125h250v-75q0 -117 -49 -150q-54 -33 -185 -31q-104 0 -149 41q-47 37 -47 90zM586 1200h222v221h-222v-221z" />
<glyph unicode="&#xe5;" d="M53 305q0 -137 99 -225q94 -90 268 -92q106 0 166 26q61 25 90 78h4v-92h209v709q-2 190 -119 268q-117 76 -313 74q-232 4 -351 -152l164 -125q27 45 74 64q45 16 123 16q215 4 213 -133v-109h-289q-166 -2 -252 -90q-86 -86 -86 -217zM250 315q-2 121 180 125h250v-75 q0 -117 -49 -150q-54 -33 -185 -31q-104 0 -149 41q-47 37 -47 90zM309 1352q0 -88 63 -148q60 -63 148 -63q92 0 151 63q58 60 60 148q-2 92 -60 151q-59 57 -151 60q-88 -3 -148 -60q-63 -59 -63 -151zM391 1352q0 57 39 92q36 35 90 37q57 -2 92 -37t37 -92 q-2 -54 -37 -91q-35 -38 -92 -38q-54 0 -90 38q-39 37 -39 91z" />
<glyph unicode="&#xe6;" horiz-adv-x="1593" d="M39 305q2 -153 110 -235q107 -80 273 -82q92 0 182 37q88 34 148 122q73 -90 163 -124q88 -35 199 -35q215 -2 375 168l-152 129q-100 -101 -227 -101q-109 0 -176 66q-72 65 -72 190h647v172q-2 205 -127 322q-123 115 -301 117q-86 0 -168 -35q-84 -35 -133 -97 q-94 134 -338 132q-231 4 -350 -152l164 -125q27 45 74 64q45 16 123 16q215 4 213 -133v-109h-316q-151 -2 -229 -94q-82 -90 -82 -213zM236 315q-3 121 180 125h250v-75q0 -117 -50 -150q-53 -33 -184 -31q-104 0 -149 41q-47 37 -47 90zM862 612q6 121 66 183 q59 59 153 59t154 -59q61 -62 65 -183h-438z" />
<glyph unicode="&#xe7;" horiz-adv-x="909" d="M55 518q2 -266 133 -393q127 -127 301 -137l-122 -168l45 -39q39 24 77 22q43 0 72 -18t29 -57q-4 -86 -119 -86q-74 2 -143 30l-37 -86q106 -47 207 -49q104 0 178 49q71 45 74 144q0 65 -48 110q-47 45 -133 45q-32 0 -55 -8h-4l86 113q188 39 303 178l-154 137 q-79 -106 -211 -108q-266 -5 -270 321q4 328 270 324q132 -4 211 -109l154 137q-68 82 -160 131q-92 48 -213 50q-184 2 -323 -123q-144 -127 -148 -410z" />
<glyph unicode="&#xe8;" d="M84 516q0 -160 45 -260q41 -104 107 -162q34 -28 73 -47q37 -22 76 -35q78 -24 160 -24q215 -2 374 168l-151 129q-100 -101 -227 -101q-109 0 -176 66q-72 65 -72 190h647v172q-2 205 -127 322q-123 115 -301 117q-74 0 -150 -27q-77 -27 -139 -88q-61 -60 -100 -164 q-39 -102 -39 -256zM211 1470l290 -299h172l-188 299h-274zM293 612q6 121 65 183q60 59 154 59t154 -59q61 -62 65 -183h-438z" />
<glyph unicode="&#xe9;" d="M84 516q0 -160 45 -260q41 -104 107 -162q34 -28 73 -47q37 -22 76 -35q78 -24 160 -24q215 -2 374 168l-151 129q-100 -101 -227 -101q-109 0 -176 66q-72 65 -72 190h647v172q-2 205 -127 322q-123 115 -301 117q-74 0 -150 -27q-77 -27 -139 -88q-61 -60 -100 -164 q-39 -102 -39 -256zM293 612q6 121 65 183q60 59 154 59t154 -59q61 -62 65 -183h-438zM362 1171h172l291 299h-275z" />
<glyph unicode="&#xea;" d="M84 516q0 -160 45 -260q41 -104 107 -162q34 -28 73 -47q37 -22 76 -35q78 -24 160 -24q215 -2 374 168l-151 129q-100 -101 -227 -101q-109 0 -176 66q-72 65 -72 190h647v172q-2 205 -127 322q-123 115 -301 117q-74 0 -150 -27q-77 -27 -139 -88q-61 -60 -100 -164 q-39 -102 -39 -256zM181 1171h197l137 176l137 -176h197l-218 299h-233zM293 612q6 121 65 183q60 59 154 59t154 -59q61 -62 65 -183h-438z" />
<glyph unicode="&#xeb;" d="M84 516q0 -160 45 -260q41 -104 107 -162q34 -28 73 -47q37 -22 76 -35q78 -24 160 -24q215 -2 374 168l-151 129q-100 -101 -227 -101q-109 0 -176 66q-72 65 -72 190h647v172q-2 205 -127 322q-123 115 -301 117q-74 0 -150 -27q-77 -27 -139 -88q-61 -60 -100 -164 q-39 -102 -39 -256zM225 1200h221v221h-221v-221zM293 612q6 121 65 183q60 59 154 59t154 -59q61 -62 65 -183h-438zM585 1200h222v221h-222v-221z" />
<glyph unicode="&#xec;" horiz-adv-x="491" d="M-66 1470l290 -299h172l-188 299h-274zM141 0h209v1038h-209v-1038z" />
<glyph unicode="&#xed;" horiz-adv-x="491" d="M88 1171h172l291 299h-275zM141 0h209v1038h-209v-1038z" />
<glyph unicode="&#xee;" horiz-adv-x="491" d="M-94 1171h197l137 176l137 -176h197l-218 299h-233zM141 0h209v1038h-209v-1038z" />
<glyph unicode="&#xef;" horiz-adv-x="491" d="M-49 1200h221v221h-221v-221zM141 0h209v1038h-209v-1038zM311 1200h222v221h-222v-221z" />
<glyph unicode="&#xf0;" d="M84 520q0 -164 27 -250q28 -86 86 -149q43 -49 120 -88q76 -43 195 -45q123 2 199 45q41 18 67 43q29 22 49 45q72 76 95 164q20 86 18 268q2 305 -25 461q-32 155 -149 288l184 97l-78 112l-213 -110q-114 88 -299 143l-65 -154q106 -34 182 -83l-170 -89l78 -112 l207 106q96 -94 129 -250l-4 -4q-47 54 -103 74q-59 19 -120 19q-107 -2 -181 -41q-73 -41 -116 -93q-58 -59 -86 -145q-27 -88 -27 -252zM293 520q0 109 12 160q12 49 39 86q27 35 70 55q45 21 98 21q57 0 100 -21q45 -20 68 -55q31 -37 41 -86q10 -51 10 -162 q0 -106 -10 -156q-10 -51 -41 -90q-23 -30 -68 -53q-43 -22 -100 -22q-53 0 -98 22q-43 23 -70 53q-27 39 -39 90q-12 50 -12 158z" />
<glyph unicode="&#xf1;" horiz-adv-x="1100" d="M135 0h209v618q0 109 59 166q58 58 148 58t147 -58q58 -57 58 -166v-618h209v690q-5 178 -111 270q-107 91 -236 91q-167 0 -270 -123h-4v110h-209v-1038zM187 1192h123q0 51 33 72q31 16 53 16q64 -2 141 -37q37 -14 78 -25q39 -14 76 -14q104 2 158 74q53 67 67 164 h-123q-10 -54 -36 -72q-29 -20 -60 -18q-31 0 -61 14q-33 10 -70 27q-35 16 -72 26q-36 10 -75 10q-95 0 -154 -63q-61 -66 -78 -174z" />
<glyph unicode="&#xf2;" d="M84 520q0 -164 27 -250q28 -86 86 -149q43 -49 120 -88q76 -43 195 -45q123 2 199 45q41 18 67 43q29 22 49 45q62 63 88 149q25 86 25 250t-25 252q-26 86 -88 145q-41 52 -116 93q-76 39 -199 41q-119 -2 -195 -41q-77 -41 -120 -93q-58 -59 -86 -145q-27 -88 -27 -252 zM211 1470l290 -299h172l-188 299h-274zM293 520q0 109 12 160q12 49 39 86q27 35 70 55q45 21 98 21q57 0 100 -21q45 -20 68 -55q31 -37 41 -86q10 -51 10 -162q0 -106 -10 -156q-10 -51 -41 -90q-23 -30 -68 -53q-43 -22 -100 -22q-53 0 -98 22q-43 23 -70 53 q-27 39 -39 90q-12 50 -12 158z" />
<glyph unicode="&#xf3;" d="M84 520q0 -164 27 -250q28 -86 86 -149q43 -49 120 -88q76 -43 195 -45q123 2 199 45q41 18 67 43q29 22 49 45q62 63 88 149q25 86 25 250t-25 252q-26 86 -88 145q-41 52 -116 93q-76 39 -199 41q-119 -2 -195 -41q-77 -41 -120 -93q-58 -59 -86 -145q-27 -88 -27 -252 zM293 520q0 109 12 160q12 49 39 86q27 35 70 55q45 21 98 21q57 0 100 -21q45 -20 68 -55q31 -37 41 -86q10 -51 10 -162q0 -106 -10 -156q-10 -51 -41 -90q-23 -30 -68 -53q-43 -22 -100 -22q-53 0 -98 22q-43 23 -70 53q-27 39 -39 90q-12 50 -12 158zM362 1171h172 l291 299h-275z" />
<glyph unicode="&#xf4;" d="M84 520q0 -164 27 -250q28 -86 86 -149q43 -49 120 -88q76 -43 195 -45q123 2 199 45q41 18 67 43q29 22 49 45q62 63 88 149q25 86 25 250t-25 252q-26 86 -88 145q-41 52 -116 93q-76 39 -199 41q-119 -2 -195 -41q-77 -41 -120 -93q-58 -59 -86 -145q-27 -88 -27 -252 zM181 1171h197l137 176l137 -176h197l-218 299h-233zM293 520q0 109 12 160q12 49 39 86q27 35 70 55q45 21 98 21q57 0 100 -21q45 -20 68 -55q31 -37 41 -86q10 -51 10 -162q0 -106 -10 -156q-10 -51 -41 -90q-23 -30 -68 -53q-43 -22 -100 -22q-53 0 -98 22 q-43 23 -70 53q-27 39 -39 90q-12 50 -12 158z" />
<glyph unicode="&#xf5;" d="M84 520q0 -164 27 -250q28 -86 86 -149q43 -49 120 -88q76 -43 195 -45q123 2 199 45q41 18 67 43q29 22 49 45q62 63 88 149q25 86 25 250t-25 252q-26 86 -88 145q-41 52 -116 93q-76 39 -199 41q-119 -2 -195 -41q-77 -41 -120 -93q-58 -59 -86 -145q-27 -88 -27 -252 zM148 1192h123q0 51 33 72q31 16 53 16q64 -2 141 -37q37 -14 78 -25q39 -14 76 -14q104 2 158 74q53 67 67 164h-123q-10 -54 -36 -72q-29 -20 -60 -18q-31 0 -61 14q-33 10 -70 27q-35 16 -72 26q-36 10 -75 10q-95 0 -154 -63q-61 -66 -78 -174zM293 520q0 109 12 160 q12 49 39 86q27 35 70 55q45 21 98 21q57 0 100 -21q45 -20 68 -55q31 -37 41 -86q10 -51 10 -162q0 -106 -10 -156q-10 -51 -41 -90q-23 -30 -68 -53q-43 -22 -100 -22q-53 0 -98 22q-43 23 -70 53q-27 39 -39 90q-12 50 -12 158z" />
<glyph unicode="&#xf6;" d="M84 520q0 -164 27 -250q28 -86 86 -149q43 -49 120 -88q76 -43 195 -45q123 2 199 45q41 18 67 43q29 22 49 45q62 63 88 149q25 86 25 250t-25 252q-26 86 -88 145q-41 52 -116 93q-76 39 -199 41q-119 -2 -195 -41q-77 -41 -120 -93q-58 -59 -86 -145q-27 -88 -27 -252 zM225 1200h221v221h-221v-221zM293 520q0 109 12 160q12 49 39 86q27 35 70 55q45 21 98 21q57 0 100 -21q45 -20 68 -55q31 -37 41 -86q10 -51 10 -162q0 -106 -10 -156q-10 -51 -41 -90q-23 -30 -68 -53q-43 -22 -100 -22q-53 0 -98 22q-43 23 -70 53q-27 39 -39 90 q-12 50 -12 158zM585 1200h222v221h-222v-221z" />
<glyph unicode="&#xf7;" horiz-adv-x="1229" d="M96 438h1036v160h-1036v-160zM477 94q0 -57 41 -96q39 -39 96 -41q60 2 99 41t39 96q0 60 -39 98q-39 39 -99 39q-57 0 -96 -39q-41 -38 -41 -98zM477 942q0 -57 41 -96q39 -41 96 -41q60 0 99 41q39 39 39 96q0 59 -39 98t-99 39q-57 0 -96 -39q-41 -39 -41 -98z" />
<glyph unicode="&#xf8;" d="M84 520q-2 -141 25 -241q26 -101 104 -173l-96 -167l90 -54l92 158q80 -53 213 -55q123 2 199 45q41 18 67 43q29 22 49 45q62 63 88 149q25 86 25 250q0 88 -6 152q-6 65 -23 110q-30 88 -100 152l96 166l-90 53l-90 -156q-82 52 -215 54q-119 -2 -195 -41 q-77 -41 -120 -93q-58 -59 -86 -145q-27 -88 -27 -252zM293 520q0 109 12 160q12 49 39 86q27 35 70 55q45 21 98 21q61 0 108 -27l-294 -512q-19 31 -25 80q-8 47 -8 137zM403 225l295 512q19 -30 27 -78q6 -49 6 -141q0 -106 -10 -156q-10 -51 -41 -90q-23 -30 -68 -53 q-43 -22 -100 -22q-59 0 -109 28z" />
<glyph unicode="&#xf9;" horiz-adv-x="1100" d="M135 348q2 -176 115 -266q104 -92 233 -94q166 0 269 123h4v-111h209v1038h-209v-618q0 -105 -58 -164q-57 -59 -147 -59t-148 59q-59 59 -59 164v618h-209v-690zM236 1470l290 -299h172l-188 299h-274z" />
<glyph unicode="&#xfa;" horiz-adv-x="1100" d="M135 348q2 -176 115 -266q104 -92 233 -94q166 0 269 123h4v-111h209v1038h-209v-618q0 -105 -58 -164q-57 -59 -147 -59t-148 59q-59 59 -59 164v618h-209v-690zM389 1171h172l291 299h-275z" />
<glyph unicode="&#xfb;" horiz-adv-x="1100" d="M135 348q2 -176 115 -266q104 -92 233 -94q166 0 269 123h4v-111h209v1038h-209v-618q0 -105 -58 -164q-57 -59 -147 -59t-148 59q-59 59 -59 164v618h-209v-690zM208 1171h197l137 176l137 -176h197l-218 299h-233z" />
<glyph unicode="&#xfc;" horiz-adv-x="1100" d="M135 348q2 -176 115 -266q104 -92 233 -94q166 0 269 123h4v-111h209v1038h-209v-618q0 -105 -58 -164q-57 -59 -147 -59t-148 59q-59 59 -59 164v618h-209v-690zM252 1200h221v221h-221v-221zM612 1200h222v221h-222v-221z" />
<glyph unicode="&#xfd;" horiz-adv-x="909" d="M-14 1038l372 -997l-57 -174q-14 -45 -49 -68q-35 -22 -76 -22h-61v-197h69q97 0 174 43q76 45 119 162l447 1253h-222l-245 -727h-4l-246 727h-221zM306 1171h172l291 299h-275z" />
<glyph unicode="&#xfe;" horiz-adv-x="1063" d="M135 -420h209v531q57 -56 125 -88q63 -35 143 -35q97 2 166 39q70 36 113 96q43 51 59 131q15 80 15 264q0 189 -15 268q-16 80 -59 129q-88 131 -279 136q-164 -5 -268 -121v528h-209v-1878zM344 518q0 59 6 117q6 55 25 102q20 47 63 76q41 29 111 29q74 0 117 -25 q43 -27 61 -74q20 -45 27 -104q2 -59 2 -121q0 -59 -2 -115q-7 -57 -27 -104q-18 -45 -61 -74q-43 -28 -117 -28q-70 0 -111 30q-43 29 -63 76q-19 47 -25 105q-6 55 -6 110z" />
<glyph unicode="&#xff;" horiz-adv-x="909" d="M-14 1038l372 -997l-57 -174q-14 -45 -49 -68q-35 -22 -76 -22h-61v-197h69q97 0 174 43q76 45 119 162l447 1253h-222l-245 -727h-4l-246 727h-221zM169 1200h221v221h-221v-221zM529 1200h222v221h-222v-221z" />
<glyph unicode="&#x152;" horiz-adv-x="1896" d="M104 729q0 -250 15 -338q8 -47 20 -78q13 -30 29 -63q53 -101 170 -178q115 -80 287 -84q79 0 163 35q84 34 136 92v-115h919v209h-698v428h590v196h-590v416h694v209h-915v-113q-58 68 -136 97q-77 28 -163 28q-172 -2 -287 -82q-117 -79 -170 -180q-33 -53 -49 -139 q-15 -86 -15 -340zM326 729q0 215 16 293q14 74 57 121q35 45 92 75q56 29 134 31q79 -2 137 -31q55 -30 88 -75q43 -47 59 -121q15 -78 15 -293t-15 -291q-16 -76 -59 -123q-33 -45 -88 -73q-58 -33 -137 -33q-78 0 -134 33q-57 28 -92 73q-43 47 -57 123q-16 76 -16 291z " />
<glyph unicode="&#x153;" horiz-adv-x="1671" d="M84 520q0 -164 27 -250q28 -86 86 -149q43 -49 120 -88q76 -43 195 -45q211 4 326 166q100 -160 354 -166q215 -2 375 168l-152 129q-100 -101 -227 -101q-109 0 -176 66q-72 65 -72 190h647v172q-2 205 -127 322q-123 115 -301 117q-194 -2 -321 -162q-129 160 -326 162 q-119 -2 -195 -41q-77 -41 -120 -93q-58 -59 -86 -145q-27 -88 -27 -252zM293 520q0 119 12 170t39 88q27 35 70 55q45 21 98 21q57 0 100 -21q45 -20 68 -55q31 -37 41 -88q10 -53 10 -172q0 -117 -10 -168t-41 -90q-23 -31 -68 -53q-43 -23 -100 -23q-53 0 -98 23 q-43 22 -70 53q-27 39 -39 90t-12 170zM940 612q6 121 65 183q60 59 154 59t154 -59q61 -62 65 -183h-438z" />
<glyph unicode="&#x178;" d="M-31 1458l439 -858v-600h208v600l439 858h-234l-309 -647l-309 647h-234zM229 1558h221v221h-221v-221zM589 1558h222v221h-222v-221z" />
<glyph unicode="&#x2c6;" horiz-adv-x="491" d="M-88 1171h197l137 176l137 -176h197l-218 299h-233z" />
<glyph unicode="&#x2dc;" horiz-adv-x="491" d="M-119 1192h123q0 51 33 72q31 16 53 16q64 -2 141 -37q37 -14 78 -25q39 -14 76 -14q104 2 158 74q53 67 67 164h-123q-10 -54 -36 -72q-29 -20 -60 -18q-31 0 -61 14q-33 10 -70 27q-35 16 -72 26q-36 10 -75 10q-95 0 -154 -63q-61 -66 -78 -174z" />
<glyph unicode="&#x2000;" horiz-adv-x="960" />
<glyph unicode="&#x2001;" horiz-adv-x="1921" />
<glyph unicode="&#x2002;" horiz-adv-x="960" />
<glyph unicode="&#x2003;" horiz-adv-x="1921" />
<glyph unicode="&#x2004;" horiz-adv-x="640" />
<glyph unicode="&#x2005;" horiz-adv-x="480" />
<glyph unicode="&#x2006;" horiz-adv-x="320" />
<glyph unicode="&#x2007;" horiz-adv-x="320" />
<glyph unicode="&#x2008;" horiz-adv-x="240" />
<glyph unicode="&#x2009;" horiz-adv-x="384" />
<glyph unicode="&#x200a;" horiz-adv-x="106" />
<glyph unicode="&#x2010;" horiz-adv-x="833" d="M109 463h616v209h-616v-209z" />
<glyph unicode="&#x2011;" horiz-adv-x="833" d="M109 463h616v209h-616v-209z" />
<glyph unicode="&#x2012;" horiz-adv-x="833" d="M109 463h616v209h-616v-209z" />
<glyph unicode="&#x2013;" d="M0 469h1024v197h-1024v-197z" />
<glyph unicode="&#x2014;" horiz-adv-x="2048" d="M0 469h2048v197h-2048v-197z" />
<glyph unicode="&#x2018;" horiz-adv-x="491" d="M141 1098h209v360l-209 -151v-209z" />
<glyph unicode="&#x2019;" horiz-adv-x="491" d="M141 1098l209 151v209h-209v-360z" />
<glyph unicode="&#x201a;" horiz-adv-x="491" d="M141 -152l209 152v209h-209v-361z" />
<glyph unicode="&#x201c;" horiz-adv-x="682" d="M78 1098h209v360l-209 -151v-209zM395 1098h209v360l-209 -151v-209z" />
<glyph unicode="&#x201d;" horiz-adv-x="682" d="M78 1098l209 151v209h-209v-360zM395 1098l209 151v209h-209v-360z" />
<glyph unicode="&#x201e;" horiz-adv-x="682" d="M78 -152l209 152v209h-209v-361zM395 -152l209 152v209h-209v-361z" />
<glyph unicode="&#x2022;" d="M147 729q2 -154 109 -256q102 -106 256 -108q156 2 258 108q104 102 106 256q-2 156 -106 258q-102 105 -258 107q-154 -2 -256 -107q-107 -102 -109 -258z" />
<glyph unicode="&#x2026;" horiz-adv-x="2048" d="M238 0h208v209h-208v-209zM919 0h209v209h-209v-209zM1601 0h209v209h-209v-209z" />
<glyph unicode="&#x202f;" horiz-adv-x="384" />
<glyph unicode="&#x2039;" horiz-adv-x="606" d="M94 567l418 -413v208l-209 205l209 205v209z" />
<glyph unicode="&#x203a;" horiz-adv-x="606" d="M94 154l418 413l-418 414v-209l209 -205l-209 -205v-208z" />
<glyph unicode="&#x205f;" horiz-adv-x="480" />
<glyph unicode="&#x2122;" horiz-adv-x="2027" d="M82 1311h254v-697h160v697h254v147h-668v-147zM901 614h160v684h4l268 -684h105l270 684h4v-684h160v844h-250l-236 -622l-235 622h-250v-844z" />
</font>
</defs>
</svg>
