<?xml version="1.0" encoding="utf-8"?>
<!-- Generator: Adobe Illustrator 19.2.1, SVG Export Plug-In . SVG Version: 6.00 Build 0)  -->
<svg version="1.1" id="Layer_1" xmlns="http://www.w3.org/2000/svg" xmlns:xlink="http://www.w3.org/1999/xlink" x="0px" y="0px"
	 viewBox="0 0 664 283.2" style="enable-background:new 0 0 664 283.2;" xml:space="preserve">
<style type="text/css">
	.st0{fill:#FF00FF;}
	.st1{fill:#FFFFFF;}
</style>
<g>
	<path class="st0" d="M232.6,62.1c-7.8,0-13.7-1.7-18.7-6.8l6.5-6.5c3.2,3.2,7.6,4.3,12.4,4.3c5.9,0,9.1-2.2,9.1-6.3
		c0-1.8-0.5-3.3-1.6-4.3c-1-0.9-2.2-1.4-4.5-1.8l-6.2-0.9c-4.4-0.6-7.6-2-9.9-4.2c-2.4-2.4-3.7-5.8-3.7-10.1
		c0-9.1,6.8-15.6,17.9-15.6c7.1,0,12.2,1.7,16.6,6l-6.3,6.3c-3.2-3.1-7.1-3.5-10.5-3.5c-5.3,0-7.9,3-7.9,6.5c0,1.3,0.4,2.7,1.5,3.7
		c1,0.9,2.7,1.7,4.8,2l6,0.9c4.7,0.6,7.6,1.9,9.8,4c2.7,2.6,4,6.3,4,10.9C251.6,56.4,243.3,62.1,232.6,62.1z"/>
	<path class="st0" d="M292,56.4c-3.6,3.6-8,5.6-13.8,5.6c-5.8,0-10.3-2-13.9-5.6c-5.2-5.2-5-11.6-5-20.4s-0.1-15.3,5-20.4
		c3.6-3.6,8.1-5.6,13.9-5.6c5.8,0,10.2,2,13.8,5.6c5.2,5.2,5.1,11.6,5.1,20.4S297.2,51.3,292,56.4z M284.6,21.6
		c-1.4-1.7-3.7-2.7-6.4-2.7s-5,1.1-6.5,2.7c-1.9,2.2-2.4,4.5-2.4,14.4s0.5,12.2,2.4,14.4c1.4,1.7,3.7,2.7,6.5,2.7s5-1.1,6.4-2.7
		c1.9-2.2,2.5-4.5,2.5-14.4S286.6,23.8,284.6,21.6z"/>
	<path class="st0" d="M334.6,61.6l-10-20.5h-7.2v20.5h-10V10.4h20.1c10.4,0,16.6,7.1,16.6,15.7c0,7.2-4.4,11.7-9.4,13.5l11.4,22.1
		H334.6z M326.8,19.3h-9.4v13.5h9.4c4.4,0,7.3-2.8,7.3-6.8C334.1,22.1,331.2,19.3,326.8,19.3z"/>
	<path class="st0" d="M381.7,61.6l-10-20.5h-7.2v20.5h-10V10.4h20.1c10.4,0,16.6,7.1,16.6,15.7c0,7.2-4.4,11.7-9.4,13.5l11.4,22.1
		H381.7z M373.9,19.3h-9.4v13.5h9.4c4.4,0,7.3-2.8,7.3-6.8C381.2,22.1,378.3,19.3,373.9,19.3z"/>
	<path class="st0" d="M421.1,40.6v21h-9.9v-21l-15.4-30.2h10.9l9.6,20.7l9.4-20.7h10.9L421.1,40.6z"/>
	<path class="st0" d="M435.9,61.6V51h10.7v10.7H435.9z"/>
	<path class="st1" d="M79.6,87.5v23.2h-2.7V87.5h-7.4V85h17.6v2.4H79.6z"/>
	<path class="st1" d="M106.8,110.6V98.9H94.6v11.7h-2.7V85h2.7v11.5h12.2V85h2.7v25.6H106.8z"/>
	<path class="st1" d="M116.9,110.6V85h15.9v2.4h-13.2v9h11.2v2.4h-11.2v9.3h13.2v2.4H116.9z"/>
	<path class="st1" d="M157,100.1h-6.8v10.5h-2.7V85h9.5c4.7,0,7.9,2.9,7.9,7.5S161.7,100.1,157,100.1z M156.8,87.5h-6.6v10.2h6.6
		c3.2,0,5.4-1.7,5.4-5.1S160,87.5,156.8,87.5z"/>
	<path class="st1" d="M183.3,110.6l-2.1-5.8H170l-2.1,5.8h-2.9l9.4-25.6h2.3l9.4,25.6H183.3z M175.7,88.9l-4.8,13.5h9.6L175.7,88.9z
		"/>
	<path class="st1" d="M204.8,107.9c-1.8,1.9-4.2,3-6.8,3c-2.5,0-4.8-0.9-6.6-2.7c-2.4-2.4-2.4-4.9-2.4-10.4s0-8,2.4-10.4
		c1.7-1.7,4-2.7,6.6-2.7c4.9,0,8.2,3.2,9,7.7h-2.7c-0.7-3.2-3-5.2-6.2-5.2c-1.7,0-3.3,0.7-4.4,1.8c-1.6,1.7-1.8,3.4-1.8,8.7
		s0.2,7.1,1.8,8.8c1.1,1.2,2.7,1.8,4.4,1.8c1.9,0,3.7-0.8,4.9-2.2c1-1.3,1.4-2.7,1.4-4.6v-1.9H198v-2.4h9v4.1
		C207,104.2,206.4,106.2,204.8,107.9z"/>
	<path class="st1" d="M213.4,110.6V85h15.9v2.4h-13.2v9h11.2v2.4h-11.2v9.3h13.2v2.4H213.4z"/>
	<path class="st1" d="M250.9,100v10.6h-2.7V100l-7.6-15h3l6,12.3l6-12.3h3L250.9,100z"/>
	<path class="st1" d="M276.6,108.2c-1.7,1.7-4,2.7-6.6,2.7s-4.8-0.9-6.6-2.7c-2.4-2.4-2.4-4.9-2.4-10.4s0-8,2.4-10.4
		c1.7-1.7,4-2.7,6.6-2.7s4.8,0.9,6.6,2.7c2.4,2.4,2.4,4.9,2.4,10.4S279,105.8,276.6,108.2z M274.5,89.1c-1.1-1.2-2.7-1.8-4.4-1.8
		s-3.3,0.7-4.4,1.8c-1.6,1.7-1.8,3.4-1.8,8.7s0.2,7.1,1.8,8.7c1.1,1.2,2.7,1.8,4.4,1.8s3.3-0.7,4.4-1.8c1.6-1.7,1.8-3.4,1.8-8.7
		S276.1,90.7,274.5,89.1z"/>
	<path class="st1" d="M294.1,110.8c-5.2,0-8.9-3.6-8.9-8.7V85h2.7v17c0,3.9,2.4,6.4,6.2,6.4c3.7,0,6.2-2.6,6.2-6.4V85h2.7v17.2
		C303,107.3,299.2,110.8,294.1,110.8z"/>
	<path class="st1" d="M309.5,90.9V85h3.1v3L309.5,90.9z"/>
	<path class="st1" d="M334.3,110.6l-5.8-11.4h-6.2v11.4h-2.7V85h9.8c4.5,0,7.6,2.7,7.6,7.1c0,3.7-2.3,6.2-5.6,6.9l6.1,11.6H334.3z
		 M329.1,87.5h-6.8v9.4h6.8c3,0,5.1-1.5,5.1-4.7C334.2,89,332.1,87.5,329.1,87.5z"/>
	<path class="st1" d="M343.2,110.6V85h15.9v2.4h-13.2v9h11.2v2.4h-11.2v9.3h13.2v2.4H343.2z"/>
	<path class="st1" d="M373.7,110.6V85h2.7v23.2h13.1v2.4H373.7z"/>
	<path class="st1" d="M407.6,108.2c-1.7,1.7-4,2.7-6.6,2.7s-4.8-0.9-6.6-2.7c-2.4-2.4-2.4-4.9-2.4-10.4s0-8,2.4-10.4
		c1.7-1.7,4-2.7,6.6-2.7s4.8,0.9,6.6,2.7c2.4,2.4,2.4,4.9,2.4,10.4S410,105.8,407.6,108.2z M405.5,89.1c-1.1-1.2-2.7-1.8-4.4-1.8
		c-1.7,0-3.3,0.7-4.4,1.8c-1.6,1.7-1.8,3.4-1.8,8.7s0.2,7.1,1.8,8.7c1.1,1.2,2.7,1.8,4.4,1.8c1.7,0,3.3-0.7,4.4-1.8
		c1.6-1.7,1.8-3.4,1.8-8.7S407.1,90.7,405.5,89.1z"/>
	<path class="st1" d="M431,108.2c-1.7,1.7-4,2.7-6.6,2.7s-4.8-0.9-6.6-2.7c-2.4-2.4-2.4-4.9-2.4-10.4s0-8,2.4-10.4
		c1.7-1.7,4-2.7,6.6-2.7s4.8,0.9,6.6,2.7c2.4,2.4,2.4,4.9,2.4,10.4S433.4,105.8,431,108.2z M428.9,89.1c-1.1-1.2-2.7-1.8-4.4-1.8
		s-3.3,0.7-4.4,1.8c-1.6,1.7-1.8,3.4-1.8,8.7s0.2,7.1,1.8,8.7c1.1,1.2,2.7,1.8,4.4,1.8s3.3-0.7,4.4-1.8c1.6-1.7,1.8-3.4,1.8-8.7
		S430.5,90.7,428.9,89.1z"/>
	<path class="st1" d="M455.8,110.6L448,97l-5.4,6.5v7.2h-2.7V85h2.7v14.7l12-14.7h3.3l-8.1,9.9l9.2,15.7H455.8z"/>
	<path class="st1" d="M463.3,110.6V85h2.7v25.6H463.3z"/>
	<path class="st1" d="M489.7,110.6l-13.6-20.6v20.6h-2.7V85h2.6l13.6,20.5V85h2.7v25.6H489.7z"/>
	<path class="st1" d="M514.6,107.9c-1.8,1.9-4.2,3-6.8,3c-2.5,0-4.8-0.9-6.6-2.7c-2.4-2.4-2.4-4.9-2.4-10.4s0-8,2.4-10.4
		c1.7-1.7,4-2.7,6.6-2.7c4.9,0,8.2,3.2,9,7.7H514c-0.7-3.2-3-5.2-6.2-5.2c-1.7,0-3.3,0.7-4.4,1.8c-1.6,1.7-1.8,3.4-1.8,8.7
		s0.2,7.1,1.8,8.8c1.1,1.2,2.7,1.8,4.4,1.8c1.9,0,3.7-0.8,4.9-2.2c1-1.3,1.4-2.7,1.4-4.6v-1.9h-6.3v-2.4h9v4.1
		C516.8,104.2,516.2,106.2,514.6,107.9z"/>
	<path class="st1" d="M534.9,87.5v9.4h11.2v2.4h-11.2v11.3h-2.7V85H548v2.4H534.9z"/>
	<path class="st1" d="M566.8,108.2c-1.7,1.7-4,2.7-6.6,2.7s-4.8-0.9-6.6-2.7c-2.4-2.4-2.4-4.9-2.4-10.4s0-8,2.4-10.4
		c1.7-1.7,4-2.7,6.6-2.7s4.8,0.9,6.6,2.7c2.4,2.4,2.4,4.9,2.4,10.4S569.2,105.8,566.8,108.2z M564.7,89.1c-1.1-1.2-2.7-1.8-4.4-1.8
		s-3.3,0.7-4.4,1.8c-1.6,1.7-1.8,3.4-1.8,8.7s0.2,7.1,1.8,8.7c1.1,1.2,2.7,1.8,4.4,1.8s3.3-0.7,4.4-1.8c1.6-1.7,1.8-3.4,1.8-8.7
		S566.3,90.7,564.7,89.1z"/>
	<path class="st1" d="M590.4,110.6l-5.8-11.4h-6.2v11.4h-2.7V85h9.8c4.5,0,7.6,2.7,7.6,7.1c0,3.7-2.3,6.2-5.6,6.9l6.1,11.6H590.4z
		 M585.3,87.5h-6.8v9.4h6.8c3,0,5.1-1.5,5.1-4.7C590.4,89,588.2,87.5,585.3,87.5z"/>
	<path class="st1" d="M197.6,149.8c-2.5,0-4.8-0.9-6.6-2.7c-2.4-2.4-2.4-4.9-2.4-10.4s0-8,2.4-10.4c1.7-1.7,4-2.7,6.6-2.7
		c4.6,0,8,2.8,8.9,7.6h-2.8c-0.7-3.1-2.9-5.2-6.1-5.2c-1.7,0-3.3,0.6-4.4,1.8c-1.6,1.7-1.8,3.4-1.8,8.8s0.2,7.1,1.8,8.8
		c1.1,1.2,2.7,1.8,4.4,1.8c3.2,0,5.5-2.1,6.2-5.2h2.7C205.7,147,202.2,149.8,197.6,149.8z"/>
	<path class="st1" d="M227.1,149.6l-2.1-5.8h-11.2l-2.1,5.8h-2.9l9.4-25.6h2.3l9.4,25.6H227.1z M219.6,127.9l-4.8,13.5h9.6
		L219.6,127.9z"/>
	<path class="st1" d="M250.5,149.6l-13.6-20.6v20.6h-2.7V124h2.6l13.6,20.5V124h2.7v25.6H250.5z"/>
	<path class="st1" d="M260,129.9V124h3.1v3L260,129.9z"/>
	<path class="st1" d="M277.5,126.5v23.2h-2.7v-23.2h-7.4V124H285v2.4H277.5z"/>
	<path class="st1" d="M308.7,149.6h-10V124h9.6c4.5,0,7.6,2.6,7.6,6.8c0,2.7-1.6,4.8-3.8,5.6c2.4,0.9,4.2,3,4.2,6.1
		C316.3,147.2,313.2,149.6,308.7,149.6z M308.1,126.5h-6.7v8.9h6.7c2.8,0,5-1.4,5-4.5C313.2,127.8,311,126.5,308.1,126.5z
		 M308.4,137.8h-7v9.4h7c3.2,0,5.1-1.8,5.1-4.7C313.6,139.6,311.6,137.8,308.4,137.8z"/>
	<path class="st1" d="M322.8,149.6V124h15.9v2.4h-13.2v9h11.2v2.4h-11.2v9.3h13.2v2.4H322.8z"/>
	<path class="st1" d="M356.1,126.5v9.4h11.2v2.4h-11.2v11.3h-2.7V124h15.9v2.4H356.1z"/>
	<path class="st1" d="M388,147.2c-1.7,1.7-4,2.7-6.6,2.7s-4.8-0.9-6.6-2.7c-2.4-2.4-2.4-4.9-2.4-10.4s0-8,2.4-10.4
		c1.7-1.7,4-2.7,6.6-2.7s4.8,0.9,6.6,2.7c2.4,2.4,2.4,4.9,2.4,10.4S390.4,144.8,388,147.2z M385.9,128.1c-1.1-1.2-2.7-1.8-4.4-1.8
		s-3.3,0.7-4.4,1.8c-1.6,1.7-1.8,3.4-1.8,8.7s0.2,7.1,1.8,8.7c1.1,1.2,2.7,1.8,4.4,1.8s3.3-0.7,4.4-1.8c1.6-1.7,1.8-3.4,1.8-8.7
		S387.5,129.7,385.9,128.1z"/>
	<path class="st1" d="M405.5,149.8c-5.2,0-8.9-3.6-8.9-8.7V124h2.7v17c0,3.9,2.4,6.4,6.2,6.4c3.7,0,6.2-2.6,6.2-6.4v-17h2.7v17.2
		C414.4,146.3,410.6,149.8,405.5,149.8z"/>
	<path class="st1" d="M437.8,149.6l-13.6-20.6v20.6h-2.7V124h2.6l13.6,20.5V124h2.7v25.6H437.8z"/>
	<path class="st1" d="M463.1,147.3c-1.5,1.5-3.8,2.4-6.5,2.4h-8.8V124h8.8c2.7,0,4.9,0.8,6.5,2.4c2.7,2.7,2.5,6.6,2.5,10.2
		C465.6,140.1,465.8,144.6,463.1,147.3z M461.2,128.3c-1.3-1.4-3.1-1.9-5-1.9h-5.6v20.7h5.6c2,0,3.7-0.5,5-1.9
		c1.8-1.8,1.7-5.7,1.7-8.8C462.9,133.4,462.9,130.2,461.2,128.3z"/>
	<path class="st1" d="M471.5,149.6v-3.4h3.4v3.4H471.5z"/>
	<path class="st1" d="M82,232.8l-2.1-4.3h-1.5v4.3h-2.1v-10.7h4.2c2.2,0,3.5,1.5,3.5,3.3c0,1.5-0.9,2.4-1.9,2.8l2.4,4.6H82z
		 M80.4,224h-2v2.8h2c0.9,0,1.5-0.6,1.5-1.4S81.3,224,80.4,224z"/>
	<path class="st1" d="M87.5,229.5c0,1,0.6,1.7,1.7,1.7c0.9,0,1.3-0.2,1.8-0.7l1.2,1.2c-0.8,0.8-1.6,1.2-3,1.2c-1.8,0-3.6-0.8-3.6-4
		c0-2.6,1.4-4,3.4-4c2.2,0,3.4,1.6,3.4,3.7v0.9H87.5z M90.3,227.4c-0.2-0.5-0.6-0.8-1.3-0.8s-1.1,0.3-1.3,0.8
		c-0.1,0.3-0.2,0.5-0.2,0.8h3C90.5,227.9,90.4,227.6,90.3,227.4z"/>
	<path class="st1" d="M98.5,235.7v-3.6c-0.5,0.6-1.1,0.8-1.9,0.8c-0.8,0-1.5-0.3-1.9-0.7c-0.8-0.8-0.8-2.1-0.8-3.3s0-2.5,0.8-3.3
		c0.4-0.4,1.2-0.7,1.9-0.7c0.8,0,1.4,0.2,1.9,0.8V225h1.9v10.7H98.5z M97.2,226.7c-1.2,0-1.3,1-1.3,2.2c0,1.3,0.1,2.2,1.3,2.2
		s1.3-1,1.3-2.2C98.5,227.6,98.3,226.7,97.2,226.7z"/>
	<path class="st1" d="M107.1,232.8v-0.7c-0.5,0.5-1.2,0.8-2,0.8c-0.8,0-1.4-0.3-1.8-0.7c-0.6-0.6-0.8-1.4-0.8-2.2v-5h2v4.7
		c0,1.1,0.7,1.4,1.3,1.4c0.6,0,1.3-0.4,1.3-1.4V225h1.9v7.8H107.1z"/>
	<path class="st1" d="M112.8,229.5c0,1,0.6,1.7,1.7,1.7c0.9,0,1.3-0.2,1.8-0.7l1.2,1.2c-0.8,0.8-1.6,1.2-3,1.2c-1.8,0-3.6-0.8-3.6-4
		c0-2.6,1.4-4,3.4-4c2.2,0,3.4,1.6,3.4,3.7v0.9H112.8z M115.5,227.4c-0.2-0.5-0.6-0.8-1.3-0.8s-1.1,0.3-1.3,0.8
		c-0.1,0.3-0.2,0.5-0.2,0.8h3C115.7,227.9,115.7,227.6,115.5,227.4z"/>
	<path class="st1" d="M122,232.9c-1.2,0-2.3-0.1-3.3-1.1l1.3-1.3c0.6,0.6,1.5,0.7,2.1,0.7c0.7,0,1.4-0.2,1.4-0.8
		c0-0.4-0.2-0.7-0.8-0.7l-1.2-0.1c-1.4-0.1-2.3-0.8-2.3-2.2c0-1.6,1.4-2.5,3-2.5c1.2,0,2.2,0.2,3,0.9l-1.2,1.2
		c-0.4-0.4-1.1-0.5-1.8-0.5c-0.8,0-1.1,0.4-1.1,0.8c0,0.3,0.1,0.6,0.8,0.7l1.2,0.1c1.5,0.1,2.3,1,2.3,2.3
		C125.3,232.1,123.9,232.9,122,232.9z"/>
	<path class="st1" d="M129.3,232.8c-1.6,0-2.3-1.1-2.3-2.2v-3.9h-0.8v-1.5h0.8v-2.3h2v2.3h1.4v1.5h-1.4v3.8c0,0.5,0.2,0.7,0.7,0.7
		h0.7v1.6H129.3z"/>
	<path class="st1" d="M133.6,229.5c0,1,0.6,1.7,1.7,1.7c0.9,0,1.3-0.2,1.8-0.7l1.2,1.2c-0.8,0.8-1.6,1.2-3,1.2c-1.8,0-3.6-0.8-3.6-4
		c0-2.6,1.4-4,3.4-4c2.2,0,3.4,1.6,3.4,3.7v0.9H133.6z M136.4,227.4c-0.2-0.5-0.6-0.8-1.3-0.8s-1.1,0.3-1.3,0.8
		c-0.1,0.3-0.2,0.5-0.2,0.8h3C136.5,227.9,136.5,227.6,136.4,227.4z"/>
	<path class="st1" d="M144.6,232.8v-0.7c-0.5,0.6-1.1,0.8-1.9,0.8c-0.8,0-1.5-0.3-1.9-0.7c-0.8-0.8-0.8-2.1-0.8-3.3s0-2.5,0.8-3.3
		c0.4-0.4,1.1-0.7,1.9-0.7c0.8,0,1.4,0.2,1.9,0.8v-3.6h2v10.7H144.6z M143.2,226.7c-1.2,0-1.3,1-1.3,2.2c0,1.3,0.1,2.2,1.3,2.2
		s1.3-1,1.3-2.2C144.5,227.6,144.4,226.7,143.2,226.7z"/>
	<path class="st1" d="M157.9,232.2c-0.4,0.4-1.1,0.7-1.9,0.7c-0.8,0-1.4-0.2-1.9-0.8v3.6h-2V225h1.9v0.7c0.5-0.6,1.1-0.8,1.9-0.8
		c0.8,0,1.5,0.3,1.9,0.7c0.8,0.8,0.8,2.1,0.8,3.3S158.7,231.4,157.9,232.2z M155.4,226.7c-1.2,0-1.3,1-1.3,2.2
		c0,1.3,0.2,2.2,1.3,2.2s1.3-1,1.3-2.2C156.8,227.6,156.6,226.7,155.4,226.7z"/>
	<path class="st1" d="M164.6,232.8v-0.7c-0.5,0.5-1,0.8-1.9,0.8c-0.9,0-1.5-0.2-2-0.7c-0.4-0.4-0.6-1.1-0.6-1.8
		c0-1.2,0.9-2.3,2.7-2.3h1.8v-0.4c0-0.9-0.4-1.2-1.5-1.2c-0.8,0-1.1,0.2-1.5,0.6l-1.2-1.2c0.8-0.8,1.5-1.1,2.8-1.1
		c2.2,0,3.3,0.9,3.3,2.8v5.1H164.6z M164.5,229.5H163c-0.7,0-1.1,0.3-1.1,0.9c0,0.5,0.4,0.9,1.1,0.9c0.5,0,0.9,0,1.2-0.4
		c0.2-0.2,0.3-0.5,0.3-1V229.5z"/>
	<path class="st1" d="M171.3,235.8c-1.2,0-2-0.2-2.8-1l1.2-1.2c0.4,0.4,0.9,0.6,1.5,0.6c1.2,0,1.6-0.8,1.6-1.6v-0.8
		c-0.5,0.6-1.1,0.8-1.9,0.8c-0.8,0-1.4-0.3-1.9-0.7c-0.7-0.7-0.8-1.7-0.8-3.1c0-1.4,0.1-2.4,0.8-3.1c0.4-0.4,1.1-0.7,1.9-0.7
		c0.8,0,1.4,0.2,1.9,0.8V225h1.9v7.5C174.7,234.4,173.4,235.8,171.3,235.8z M171.5,226.7c-1.2,0-1.3,1-1.3,2c0,1,0.1,2,1.3,2
		c1.2,0,1.3-1,1.3-2C172.8,227.7,172.6,226.7,171.5,226.7z"/>
	<path class="st1" d="M178.4,229.5c0,1,0.6,1.7,1.7,1.7c0.9,0,1.3-0.2,1.8-0.7l1.2,1.2c-0.8,0.8-1.6,1.2-3,1.2c-1.8,0-3.6-0.8-3.6-4
		c0-2.6,1.4-4,3.4-4c2.2,0,3.4,1.6,3.4,3.7v0.9H178.4z M181.2,227.4c-0.2-0.5-0.6-0.8-1.3-0.8s-1.1,0.3-1.3,0.8
		c-0.1,0.3-0.2,0.5-0.2,0.8h3C181.4,227.9,181.3,227.6,181.2,227.4z"/>
	<path class="st1" d="M188.6,223.7v-1.6h2v1.6H188.6z M188.6,232.8V225h2v7.8H188.6z"/>
	<path class="st1" d="M195.3,232.9c-1.2,0-2.3-0.1-3.3-1.1l1.3-1.3c0.6,0.6,1.5,0.7,2.1,0.7c0.7,0,1.4-0.2,1.4-0.8
		c0-0.4-0.2-0.7-0.8-0.7l-1.2-0.1c-1.4-0.1-2.3-0.8-2.3-2.2c0-1.6,1.4-2.5,3-2.5c1.2,0,2.2,0.2,3,0.9l-1.2,1.2
		c-0.4-0.4-1.1-0.5-1.8-0.5c-0.8,0-1.1,0.4-1.1,0.8c0,0.3,0.1,0.6,0.8,0.7l1.2,0.1c1.5,0.1,2.3,1,2.3,2.3
		C198.6,232.1,197.1,232.9,195.3,232.9z"/>
	<path class="st1" d="M208.3,232.8v-4.7c0-1.1-0.7-1.4-1.3-1.4c-0.6,0-1.3,0.4-1.3,1.4v4.7h-2V225h1.9v0.7c0.5-0.5,1.2-0.8,2-0.8
		c0.8,0,1.4,0.3,1.8,0.7c0.6,0.6,0.8,1.4,0.8,2.2v5H208.3z"/>
	<path class="st1" d="M217.7,232c-0.5,0.5-1.3,1-2.4,1c-1.2,0-1.9-0.4-2.4-1c-0.7-0.7-0.9-1.6-0.9-3c0-1.4,0.2-2.3,0.9-3
		c0.5-0.5,1.3-1,2.4-1c1.2,0,1.9,0.5,2.4,1c0.7,0.7,0.9,1.6,0.9,3C218.6,230.3,218.4,231.2,217.7,232z M216.2,227
		c-0.2-0.2-0.5-0.3-0.9-0.3c-0.4,0-0.7,0.1-0.9,0.3c-0.4,0.4-0.5,1.1-0.5,1.9c0,0.8,0,1.5,0.5,1.9c0.2,0.2,0.5,0.3,0.9,0.3
		c0.4,0,0.7-0.1,0.9-0.3c0.4-0.4,0.4-1.1,0.4-1.9C216.6,228.1,216.6,227.4,216.2,227z"/>
	<path class="st1" d="M222.9,232.8c-1.6,0-2.3-1.1-2.3-2.2v-3.9h-0.8v-1.5h0.8v-2.3h2v2.3h1.4v1.5h-1.4v3.8c0,0.5,0.2,0.7,0.7,0.7
		h0.7v1.6H222.9z"/>
	<path class="st1" d="M231.4,226.7v6.1h-1.9v-6.1h-0.8v-1.5h0.8v-1c0-1.1,0.7-2.2,2.3-2.2h1.1v1.7h-0.8c-0.5,0-0.7,0.3-0.7,0.7v0.9
		h1.4v1.5H231.4z"/>
	<path class="st1" d="M239.5,232c-0.5,0.5-1.3,1-2.4,1c-1.2,0-1.9-0.4-2.4-1c-0.7-0.7-0.9-1.6-0.9-3c0-1.4,0.2-2.3,0.9-3
		c0.5-0.5,1.3-1,2.4-1c1.2,0,1.9,0.5,2.4,1c0.7,0.7,0.9,1.6,0.9,3C240.4,230.3,240.2,231.2,239.5,232z M238,227
		c-0.2-0.2-0.5-0.3-0.9-0.3c-0.4,0-0.7,0.1-0.9,0.3c-0.4,0.4-0.5,1.1-0.5,1.9c0,0.8,0,1.5,0.5,1.9c0.2,0.2,0.5,0.3,0.9,0.3
		c0.4,0,0.7-0.1,0.9-0.3c0.4-0.4,0.4-1.1,0.4-1.9C238.4,228.1,238.4,227.4,238,227z"/>
	<path class="st1" d="M246.7,232.8v-0.7c-0.5,0.5-1.2,0.8-2,0.8c-0.8,0-1.4-0.3-1.8-0.7c-0.6-0.6-0.8-1.4-0.8-2.2v-5h2v4.7
		c0,1.1,0.7,1.4,1.3,1.4c0.6,0,1.3-0.4,1.3-1.4V225h1.9v7.8H246.7z"/>
	<path class="st1" d="M255.4,232.8v-4.7c0-1.1-0.7-1.4-1.3-1.4s-1.3,0.4-1.3,1.4v4.7h-2V225h1.9v0.7c0.5-0.5,1.2-0.8,1.9-0.8
		c0.8,0,1.4,0.3,1.8,0.7c0.6,0.6,0.8,1.4,0.8,2.2v5H255.4z"/>
	<path class="st1" d="M263.8,232.8v-0.7c-0.5,0.6-1.1,0.8-1.9,0.8c-0.8,0-1.5-0.3-1.9-0.7c-0.8-0.8-0.8-2.1-0.8-3.3s0-2.5,0.8-3.3
		c0.4-0.4,1.1-0.7,1.9-0.7c0.8,0,1.4,0.2,1.9,0.8v-3.6h2v10.7H263.8z M262.4,226.7c-1.2,0-1.3,1-1.3,2.2c0,1.3,0.1,2.2,1.3,2.2
		s1.3-1,1.3-2.2C263.7,227.6,263.5,226.7,262.4,226.7z"/>
	<path class="st1" d="M267.8,232.8v-2.2h2.2v2.2H267.8z"/>
	<path class="st1" d="M279.8,224v8.8h-2.1V224H275v-1.9h7.7v1.9H279.8z"/>
	<path class="st1" d="M288.7,232.8v-4.8c0-1-0.7-1.4-1.3-1.4c-0.6,0-1.3,0.4-1.3,1.4v4.8h-2v-10.7h2v3.6c0.5-0.5,1.2-0.8,1.9-0.8
		c1.7,0,2.6,1.2,2.6,2.8v5.1H288.7z"/>
	<path class="st1" d="M292.7,223.7v-1.6h2v1.6H292.7z M292.7,232.8V225h2v7.8H292.7z"/>
	<path class="st1" d="M299.4,232.9c-1.2,0-2.3-0.1-3.3-1.1l1.3-1.3c0.6,0.6,1.5,0.7,2.1,0.7c0.7,0,1.4-0.2,1.4-0.8
		c0-0.4-0.2-0.7-0.8-0.7l-1.2-0.1c-1.4-0.1-2.3-0.8-2.3-2.2c0-1.6,1.4-2.5,3-2.5c1.2,0,2.2,0.2,3,0.9l-1.2,1.2
		c-0.4-0.4-1.1-0.5-1.8-0.5c-0.8,0-1.1,0.4-1.1,0.8c0,0.3,0.1,0.6,0.8,0.7l1.2,0.1c1.5,0.1,2.3,1,2.3,2.3
		C302.7,232.1,301.2,232.9,299.4,232.9z"/>
	<path class="st1" d="M316.9,232.8v-4.7c0-1.1-0.7-1.4-1.3-1.4c-0.6,0-1.3,0.4-1.3,1.4v4.8h-2v-4.7c0-1.1-0.7-1.4-1.3-1.4
		c-0.6,0-1.3,0.4-1.3,1.4v4.7h-2V225h1.9v0.7c0.5-0.5,1.2-0.8,2-0.8c0.9,0,1.6,0.3,2.1,1c0.7-0.7,1.4-1,2.3-1c0.8,0,1.5,0.3,1.9,0.7
		c0.6,0.6,0.9,1.4,0.9,2.2v5H316.9z"/>
	<path class="st1" d="M325,232.8v-0.7c-0.5,0.5-1,0.8-1.9,0.8c-0.9,0-1.5-0.2-2-0.7c-0.4-0.4-0.6-1.1-0.6-1.8c0-1.2,0.9-2.3,2.7-2.3
		h1.8v-0.4c0-0.9-0.4-1.2-1.5-1.2c-0.8,0-1.1,0.2-1.5,0.6l-1.2-1.2c0.8-0.8,1.5-1.1,2.8-1.1c2.2,0,3.3,0.9,3.3,2.8v5.1H325z
		 M324.9,229.5h-1.5c-0.7,0-1.1,0.3-1.1,0.9c0,0.5,0.4,0.9,1.1,0.9c0.5,0,0.9,0,1.2-0.4c0.2-0.2,0.3-0.5,0.3-1V229.5z"/>
	<path class="st1" d="M331.9,234.1c-0.2,0.4-0.3,0.8-0.6,1c-0.5,0.4-1,0.6-1.7,0.6h-0.8v-1.8h0.4c0.6,0,0.8-0.1,1-0.7l0.3-1
		l-2.7-7.3h2.1l1.6,4.8l1.6-4.8h2.1L331.9,234.1z"/>
	<path class="st1" d="M344.4,232.8v-4.8c0-1-0.7-1.4-1.3-1.4c-0.6,0-1.3,0.4-1.3,1.4v4.8h-2v-10.7h2v3.6c0.5-0.5,1.2-0.8,1.9-0.8
		c1.7,0,2.6,1.2,2.6,2.8v5.1H344.4z"/>
	<path class="st1" d="M352.4,232.8v-0.7c-0.5,0.5-1,0.8-1.9,0.8c-0.9,0-1.5-0.2-2-0.7c-0.4-0.4-0.6-1.1-0.6-1.8
		c0-1.2,0.9-2.3,2.7-2.3h1.8v-0.4c0-0.9-0.4-1.2-1.5-1.2c-0.8,0-1.1,0.2-1.5,0.6l-1.2-1.2c0.8-0.8,1.5-1.1,2.8-1.1
		c2.2,0,3.3,0.9,3.3,2.8v5.1H352.4z M352.4,229.5h-1.5c-0.7,0-1.1,0.3-1.1,0.9c0,0.5,0.4,0.9,1.1,0.9c0.5,0,0.9,0,1.2-0.4
		c0.2-0.2,0.3-0.5,0.3-1V229.5z"/>
	<path class="st1" d="M362.2,232.2c-0.4,0.4-1.1,0.7-1.9,0.7c-0.8,0-1.4-0.2-1.9-0.8v3.6h-2V225h1.9v0.7c0.5-0.6,1.1-0.8,2-0.8
		c0.8,0,1.5,0.3,1.9,0.7c0.8,0.8,0.8,2.1,0.8,3.3S362.9,231.4,362.2,232.2z M359.7,226.7c-1.2,0-1.3,1-1.3,2.2
		c0,1.3,0.1,2.2,1.3,2.2s1.3-1,1.3-2.2C361,227.6,360.8,226.7,359.7,226.7z"/>
	<path class="st1" d="M370.6,232.2c-0.4,0.4-1.1,0.7-1.9,0.7c-0.8,0-1.4-0.2-1.9-0.8v3.6h-2V225h1.9v0.7c0.5-0.6,1.1-0.8,1.9-0.8
		c0.8,0,1.5,0.3,1.9,0.7c0.8,0.8,0.8,2.1,0.8,3.3S371.3,231.4,370.6,232.2z M368.1,226.7c-1.2,0-1.3,1-1.3,2.2
		c0,1.3,0.2,2.2,1.3,2.2s1.3-1,1.3-2.2C369.4,227.6,369.3,226.7,368.1,226.7z"/>
	<path class="st1" d="M374.7,229.5c0,1,0.6,1.7,1.7,1.7c0.9,0,1.3-0.2,1.8-0.7l1.2,1.2c-0.8,0.8-1.6,1.2-3,1.2c-1.8,0-3.6-0.8-3.6-4
		c0-2.6,1.4-4,3.4-4c2.2,0,3.4,1.6,3.4,3.7v0.9H374.7z M377.5,227.4c-0.2-0.5-0.6-0.8-1.3-0.8s-1.1,0.3-1.3,0.8
		c-0.1,0.3-0.2,0.5-0.2,0.8h3C377.7,227.9,377.6,227.6,377.5,227.4z"/>
	<path class="st1" d="M386,232.8v-4.7c0-1.1-0.7-1.4-1.3-1.4s-1.3,0.4-1.3,1.4v4.7h-2V225h1.9v0.7c0.5-0.5,1.2-0.8,1.9-0.8
		c0.8,0,1.4,0.3,1.8,0.7c0.6,0.6,0.8,1.4,0.8,2.2v5H386z"/>
	<path class="st1" d="M397.8,232.8v-0.7c-0.5,0.6-1.1,0.8-1.9,0.8c-0.8,0-1.5-0.3-1.9-0.7c-0.8-0.8-0.8-2.1-0.8-3.3s0-2.5,0.8-3.3
		c0.4-0.4,1.1-0.7,1.9-0.7c0.8,0,1.4,0.2,1.9,0.8v-3.6h2v10.7H397.8z M396.4,226.7c-1.2,0-1.3,1-1.3,2.2c0,1.3,0.2,2.2,1.3,2.2
		s1.3-1,1.3-2.2C397.8,227.6,397.6,226.7,396.4,226.7z"/>
	<path class="st1" d="M406.4,232.8v-0.7c-0.5,0.5-1.2,0.8-1.9,0.8c-0.8,0-1.4-0.3-1.8-0.7c-0.6-0.6-0.8-1.4-0.8-2.2v-5h2v4.7
		c0,1.1,0.7,1.4,1.3,1.4s1.3-0.4,1.3-1.4V225h2v7.8H406.4z"/>
	<path class="st1" d="M412,229.5c0,1,0.6,1.7,1.7,1.7c0.9,0,1.3-0.2,1.8-0.7l1.2,1.2c-0.8,0.8-1.6,1.2-3,1.2c-1.8,0-3.6-0.8-3.6-4
		c0-2.6,1.4-4,3.4-4c2.2,0,3.4,1.6,3.4,3.7v0.9H412z M414.8,227.4c-0.2-0.5-0.6-0.8-1.3-0.8s-1.1,0.3-1.3,0.8
		c-0.1,0.3-0.2,0.5-0.2,0.8h3C415,227.9,415,227.6,414.8,227.4z"/>
	<path class="st1" d="M424.7,232.8c-1.6,0-2.3-1.1-2.3-2.2v-3.9h-0.8v-1.5h0.8v-2.3h2v2.3h1.4v1.5h-1.4v3.8c0,0.5,0.2,0.7,0.7,0.7
		h0.7v1.6H424.7z"/>
	<path class="st1" d="M432.8,232c-0.5,0.5-1.3,1-2.4,1s-1.9-0.4-2.4-1c-0.7-0.7-0.9-1.6-0.9-3c0-1.4,0.2-2.3,0.9-3
		c0.5-0.5,1.3-1,2.4-1s2,0.5,2.4,1c0.7,0.7,0.9,1.6,0.9,3C433.7,230.3,433.6,231.2,432.8,232z M431.3,227c-0.2-0.2-0.5-0.3-0.9-0.3
		s-0.7,0.1-0.9,0.3c-0.4,0.4-0.5,1.1-0.5,1.9c0,0.8,0,1.5,0.5,1.9c0.2,0.2,0.5,0.3,0.9,0.3s0.7-0.1,0.9-0.3c0.4-0.4,0.5-1.1,0.5-1.9
		C431.8,228.1,431.7,227.4,431.3,227z"/>
	<path class="st1" d="M441.5,232.8c-1.6,0-2.3-1.1-2.3-2.2v-3.9h-0.8v-1.5h0.8v-2.3h2v2.3h1.4v1.5h-1.4v3.8c0,0.5,0.2,0.7,0.7,0.7
		h0.7v1.6H441.5z"/>
	<path class="st1" d="M448.8,232.8v-4.8c0-1-0.7-1.4-1.3-1.4s-1.3,0.4-1.3,1.4v4.8h-2v-10.7h2v3.6c0.5-0.5,1.2-0.8,1.9-0.8
		c1.7,0,2.6,1.2,2.6,2.8v5.1H448.8z"/>
	<path class="st1" d="M454.4,229.5c0,1,0.6,1.7,1.7,1.7c0.9,0,1.3-0.2,1.8-0.7l1.2,1.2c-0.8,0.8-1.6,1.2-3,1.2c-1.8,0-3.6-0.8-3.6-4
		c0-2.6,1.4-4,3.4-4c2.2,0,3.4,1.6,3.4,3.7v0.9H454.4z M457.2,227.4c-0.2-0.5-0.6-0.8-1.3-0.8s-1.1,0.3-1.3,0.8
		c-0.1,0.3-0.2,0.5-0.2,0.8h3C457.4,227.9,457.3,227.6,457.2,227.4z"/>
	<path class="st1" d="M466.8,226.7v6.1h-1.9v-6.1H464v-1.5h0.8v-1c0-1.1,0.7-2.2,2.3-2.2h1.1v1.7h-0.8c-0.5,0-0.7,0.3-0.7,0.7v0.9
		h1.4v1.5H466.8z"/>
	<path class="st1" d="M474.9,232c-0.5,0.5-1.3,1-2.4,1s-1.9-0.4-2.4-1c-0.7-0.7-0.9-1.6-0.9-3c0-1.4,0.2-2.3,0.9-3
		c0.5-0.5,1.3-1,2.4-1s2,0.5,2.4,1c0.7,0.7,0.9,1.6,0.9,3C475.8,230.3,475.6,231.2,474.9,232z M473.4,227c-0.2-0.2-0.5-0.3-0.9-0.3
		s-0.7,0.1-0.9,0.3c-0.4,0.4-0.5,1.1-0.5,1.9c0,0.8,0,1.5,0.5,1.9c0.2,0.2,0.5,0.3,0.9,0.3s0.7-0.1,0.9-0.3c0.4-0.4,0.5-1.1,0.5-1.9
		C473.8,228.1,473.8,227.4,473.4,227z"/>
	<path class="st1" d="M479.8,232.8c-1.6,0-2.3-1.1-2.3-2.2v-8.4h2v8.3c0,0.5,0.2,0.7,0.7,0.7h0.8v1.6H479.8z"/>
	<path class="st1" d="M484.7,232.8c-1.6,0-2.3-1.1-2.3-2.2v-8.4h2v8.3c0,0.5,0.2,0.7,0.7,0.7h0.8v1.6H484.7z"/>
	<path class="st1" d="M492.5,232c-0.5,0.5-1.3,1-2.4,1s-1.9-0.4-2.4-1c-0.7-0.7-0.9-1.6-0.9-3c0-1.4,0.2-2.3,0.9-3
		c0.5-0.5,1.3-1,2.4-1s2,0.5,2.4,1c0.7,0.7,0.9,1.6,0.9,3C493.4,230.3,493.2,231.2,492.5,232z M491,227c-0.2-0.2-0.5-0.3-0.9-0.3
		s-0.7,0.1-0.9,0.3c-0.4,0.4-0.5,1.1-0.5,1.9c0,0.8,0,1.5,0.5,1.9c0.2,0.2,0.5,0.3,0.9,0.3s0.7-0.1,0.9-0.3c0.4-0.4,0.5-1.1,0.5-1.9
		C491.4,228.1,491.4,227.4,491,227z"/>
	<path class="st1" d="M502.9,232.8h-1.6l-1.6-4.9l-1.6,4.9h-1.6l-2.4-7.8h2.1l1.3,4.8l1.6-4.8h1.4l1.6,4.8l1.3-4.8h2.1L502.9,232.8z
		"/>
	<path class="st1" d="M506.4,223.7v-1.6h2v1.6H506.4z M506.5,232.8V225h2v7.8H506.5z"/>
	<path class="st1" d="M515.1,232.8v-4.7c0-1.1-0.7-1.4-1.3-1.4s-1.3,0.4-1.3,1.4v4.7h-2V225h1.9v0.7c0.5-0.5,1.2-0.8,1.9-0.8
		c0.8,0,1.4,0.3,1.8,0.7c0.6,0.6,0.8,1.4,0.8,2.2v5H515.1z"/>
	<path class="st1" d="M521.9,235.8c-1.2,0-2-0.2-2.8-1l1.2-1.2c0.4,0.4,0.9,0.6,1.5,0.6c1.2,0,1.6-0.8,1.6-1.6v-0.8
		c-0.5,0.6-1.1,0.8-1.9,0.8c-0.8,0-1.4-0.3-1.9-0.7c-0.7-0.7-0.8-1.7-0.8-3.1c0-1.4,0.1-2.4,0.8-3.1c0.4-0.4,1.1-0.7,1.9-0.7
		c0.8,0,1.4,0.2,1.9,0.8V225h1.9v7.5C525.3,234.4,524,235.8,521.9,235.8z M522.1,226.7c-1.2,0-1.3,1-1.3,2c0,1,0.1,2,1.3,2
		s1.3-1,1.3-2C523.4,227.7,523.2,226.7,522.1,226.7z"/>
	<path class="st1" d="M535.2,227.1c-0.3-0.3-0.6-0.5-1-0.5c-0.6,0-1.3,0.5-1.3,1.4v4.7h-2V225h1.9v0.8c0.4-0.4,1.1-0.8,2-0.8
		c0.8,0,1.3,0.2,1.8,0.7L535.2,227.1z"/>
	<path class="st1" d="M538.9,229.5c0,1,0.6,1.7,1.7,1.7c0.9,0,1.3-0.2,1.8-0.7l1.2,1.2c-0.8,0.8-1.6,1.2-3,1.2c-1.8,0-3.6-0.8-3.6-4
		c0-2.6,1.4-4,3.4-4c2.2,0,3.4,1.6,3.4,3.7v0.9H538.9z M541.7,227.4c-0.2-0.5-0.6-0.8-1.3-0.8s-1.1,0.3-1.3,0.8
		c-0.1,0.3-0.2,0.5-0.2,0.8h3C541.8,227.9,541.8,227.6,541.7,227.4z"/>
	<path class="st1" d="M549.6,232.8v-0.7c-0.5,0.5-1,0.8-1.9,0.8c-0.9,0-1.5-0.2-2-0.7c-0.4-0.4-0.6-1.1-0.6-1.8
		c0-1.2,0.9-2.3,2.7-2.3h1.8v-0.4c0-0.9-0.4-1.2-1.5-1.2c-0.8,0-1.1,0.2-1.5,0.6l-1.2-1.2c0.8-0.8,1.5-1.1,2.8-1.1
		c2.2,0,3.3,0.9,3.3,2.8v5.1H549.6z M549.5,229.5H548c-0.7,0-1.1,0.3-1.1,0.9c0,0.5,0.4,0.9,1.1,0.9c0.5,0,0.9,0,1.2-0.4
		c0.2-0.2,0.3-0.5,0.3-1V229.5z"/>
	<path class="st1" d="M556.2,232.9c-1.2,0-2.3-0.1-3.3-1.1l1.3-1.3c0.6,0.6,1.5,0.7,2.1,0.7c0.7,0,1.4-0.2,1.4-0.8
		c0-0.4-0.2-0.7-0.8-0.7l-1.2-0.1c-1.4-0.1-2.3-0.8-2.3-2.2c0-1.6,1.4-2.5,3-2.5c1.2,0,2.2,0.2,3,0.9l-1.2,1.2
		c-0.4-0.4-1.1-0.5-1.8-0.5c-0.8,0-1.1,0.4-1.1,0.8c0,0.3,0.1,0.6,0.8,0.7l1.2,0.1c1.5,0.1,2.3,1,2.3,2.3
		C559.5,232.1,558,232.9,556.2,232.9z"/>
	<path class="st1" d="M566.5,232c-0.5,0.5-1.3,1-2.4,1s-1.9-0.4-2.4-1c-0.7-0.7-0.9-1.6-0.9-3c0-1.4,0.2-2.3,0.9-3
		c0.5-0.5,1.3-1,2.4-1s2,0.5,2.4,1c0.7,0.7,0.9,1.6,0.9,3C567.4,230.3,567.2,231.2,566.5,232z M565,227c-0.2-0.2-0.5-0.3-0.9-0.3
		s-0.7,0.1-0.9,0.3c-0.4,0.4-0.5,1.1-0.5,1.9c0,0.8,0,1.5,0.5,1.9c0.2,0.2,0.5,0.3,0.9,0.3s0.7-0.1,0.9-0.3c0.4-0.4,0.5-1.1,0.5-1.9
		C565.4,228.1,565.4,227.4,565,227z"/>
	<path class="st1" d="M573.8,232.8v-4.7c0-1.1-0.7-1.4-1.3-1.4s-1.3,0.4-1.3,1.4v4.7h-2V225h1.9v0.7c0.5-0.5,1.2-0.8,1.9-0.8
		c0.8,0,1.4,0.3,1.8,0.7c0.6,0.6,0.8,1.4,0.8,2.2v5H573.8z"/>
	<path class="st1" d="M580.4,232.9c-1.2,0-2.3-0.1-3.3-1.1l1.3-1.3c0.6,0.6,1.5,0.7,2.1,0.7c0.7,0,1.4-0.2,1.4-0.8
		c0-0.4-0.2-0.7-0.8-0.7l-1.2-0.1c-1.4-0.1-2.3-0.8-2.3-2.2c0-1.6,1.4-2.5,3-2.5c1.2,0,2.2,0.2,3,0.9l-1.2,1.2
		c-0.4-0.4-1.1-0.5-1.8-0.5c-0.8,0-1.1,0.4-1.1,0.8c0,0.3,0.1,0.6,0.8,0.7l1.2,0.1c1.5,0.1,2.3,1,2.3,2.3
		C583.7,232.1,582.3,232.9,580.4,232.9z"/>
	<path class="st1" d="M585.7,228.8v-2.2h2.2v2.2H585.7z M585.7,232.8v-2.2h2.2v2.2H585.7z"/>
	<path class="st1" d="M141.5,255.4h-2.8v4.4h-1.1v-10.7h4c2,0,3.3,1.2,3.3,3.1S143.4,255.4,141.5,255.4z M141.4,250.2h-2.7v4.2h2.7
		c1.3,0,2.3-0.7,2.3-2.1C143.7,250.9,142.7,250.2,141.4,250.2z"/>
	<path class="st1" d="M150.8,259.8v-0.7c-0.6,0.6-1.1,0.8-2.1,0.8c-1,0-1.6-0.2-2.1-0.7c-0.4-0.4-0.6-0.9-0.6-1.5
		c0-1.3,0.9-2.1,2.5-2.1h2.2v-0.7c0-1.1-0.5-1.6-1.9-1.6c-0.9,0-1.4,0.2-1.9,0.8l-0.7-0.7c0.7-0.9,1.4-1.1,2.6-1.1c2,0,3,0.9,3,2.5
		v5H150.8z M150.8,256.4h-2.1c-1.1,0-1.7,0.4-1.7,1.3s0.5,1.3,1.7,1.3c0.6,0,1.2,0,1.6-0.5c0.3-0.2,0.4-0.7,0.4-1.3V256.4z"/>
	<path class="st1" d="M156.9,263.2c-1.1,0-1.7-0.3-2.5-1l0.7-0.7c0.5,0.5,0.9,0.7,1.8,0.7c1.4,0,2-1,2-2.3v-1.2
		c-0.6,0.8-1.3,1-2.1,1c-0.8,0-1.4-0.3-1.8-0.7c-0.7-0.7-0.9-1.9-0.9-3.1c0-1.2,0.2-2.3,0.9-3.1c0.4-0.4,1-0.6,1.8-0.6
		c0.8,0,1.5,0.2,2.1,1v-0.9h1.1v7.6C160,261.9,158.8,263.2,156.9,263.2z M157.1,253.3c-1.6,0-1.8,1.4-1.8,2.8c0,1.4,0.2,2.8,1.8,2.8
		c1.6,0,1.8-1.4,1.8-2.8C158.9,254.7,158.7,253.3,157.1,253.3z"/>
	<path class="st1" d="M163.3,256.4c0,1.6,0.8,2.5,2.2,2.5c0.9,0,1.4-0.3,1.9-0.8l0.7,0.6c-0.8,0.8-1.4,1.1-2.7,1.1
		c-2,0-3.2-1.2-3.2-3.8c0-2.4,1.2-3.8,3-3.8c1.9,0,3,1.4,3,3.6v0.5H163.3z M167,254.4c-0.3-0.7-0.9-1.1-1.7-1.1s-1.4,0.4-1.7,1.1
		c-0.2,0.4-0.2,0.6-0.2,1.2h3.9C167.2,255,167.2,254.8,167,254.4z"/>
	<path class="st1" d="M179.1,259.1c-0.5,0.5-1.2,0.8-2.1,0.8s-1.6-0.3-2.1-0.8c-0.8-0.8-0.9-1.8-0.9-2.9c0-1.1,0.1-2.2,0.9-2.9
		c0.5-0.5,1.2-0.8,2.1-0.8s1.6,0.3,2.1,0.8c0.8,0.8,0.9,1.8,0.9,2.9C180,257.3,179.8,258.3,179.1,259.1z M178.3,253.9
		c-0.3-0.3-0.8-0.5-1.3-0.5s-1,0.2-1.3,0.5c-0.5,0.5-0.6,1.5-0.6,2.3c0,0.8,0.1,1.7,0.6,2.3c0.3,0.3,0.8,0.5,1.3,0.5s1-0.2,1.3-0.5
		c0.5-0.5,0.6-1.5,0.6-2.3C178.9,255.3,178.9,254.4,178.3,253.9z"/>
	<path class="st1" d="M186.4,253.9c-0.4-0.4-0.7-0.5-1.3-0.5c-1.1,0-1.8,0.9-1.8,2v4.5h-1.1v-7.4h1.1v0.9c0.4-0.6,1.2-1,2.1-1
		c0.7,0,1.2,0.2,1.8,0.7L186.4,253.9z"/>
	<path class="st1" d="M193.7,253.3v6.5h-1.1v-6.5h-0.9v-0.8h0.9v-1.4c0-1.1,0.6-2,1.9-2h0.8v0.9h-0.6c-0.7,0-1,0.4-1,1.1v1.4h1.6
		v0.8H193.7z"/>
	<path class="st1" d="M197,250.4v-1.2h1.2v1.2H197z M197.1,259.8v-7.4h1.1v7.4H197.1z"/>
	<path class="st1" d="M202.7,259.8c-1.3,0-1.9-0.8-1.9-2v-8.7h1.1v8.7c0,0.7,0.2,1.1,1,1.1h0.6v0.9H202.7z"/>
	<path class="st1" d="M205.6,256.4c0,1.6,0.8,2.5,2.2,2.5c0.9,0,1.3-0.3,1.9-0.8l0.7,0.6c-0.8,0.8-1.4,1.1-2.7,1.1
		c-2,0-3.2-1.2-3.2-3.8c0-2.4,1.2-3.8,3-3.8c1.9,0,3,1.4,3,3.6v0.5H205.6z M209.3,254.4c-0.3-0.7-0.9-1.1-1.7-1.1
		c-0.8,0-1.4,0.4-1.7,1.1c-0.2,0.4-0.2,0.6-0.2,1.2h3.9C209.5,255,209.4,254.8,209.3,254.4z"/>
	<path class="st1" d="M216.6,250.4v-1.2h1.2v1.2H216.6z M216.6,259.8v-7.4h1.1v7.4H216.6z"/>
	<path class="st1" d="M222.7,259.9c-1.2,0-2.2-0.3-3-1.1l0.7-0.7c0.6,0.6,1.4,0.9,2.3,0.9c1.2,0,2-0.4,2-1.3c0-0.6-0.4-1-1.2-1.1
		l-1.2-0.1c-1.4-0.1-2.2-0.8-2.2-2c0-1.4,1.1-2.2,2.7-2.2c1,0,2,0.3,2.7,0.8l-0.7,0.7c-0.5-0.4-1.2-0.6-2-0.6
		c-1.1,0-1.7,0.5-1.7,1.2c0,0.6,0.4,1,1.3,1.1l1.2,0.1c1.3,0.1,2.2,0.6,2.2,2C225.7,259.1,224.5,259.9,222.7,259.9z"/>
	<path class="st1" d="M236.3,259.1c-0.5,0.5-1.2,0.8-2.1,0.8s-1.6-0.3-2.1-0.8c-0.8-0.8-0.9-1.8-0.9-2.9c0-1.1,0.1-2.2,0.9-2.9
		c0.5-0.5,1.2-0.8,2.1-0.8s1.6,0.3,2.1,0.8c0.8,0.8,0.9,1.8,0.9,2.9C237.2,257.3,237.1,258.3,236.3,259.1z M235.6,253.9
		c-0.3-0.3-0.8-0.5-1.3-0.5s-1,0.2-1.3,0.5c-0.5,0.5-0.6,1.5-0.6,2.3c0,0.8,0.1,1.7,0.6,2.3c0.3,0.3,0.8,0.5,1.3,0.5s1-0.2,1.3-0.5
		c0.5-0.5,0.6-1.5,0.6-2.3C236.1,255.3,236.1,254.4,235.6,253.9z"/>
	<path class="st1" d="M244.2,259.8V259c-0.5,0.6-1.3,0.9-2.1,0.9c-0.8,0-1.5-0.2-1.9-0.7c-0.5-0.5-0.8-1.2-0.8-2.1v-4.7h1.1v4.5
		c0,1.3,0.7,2,1.8,2c1.1,0,1.8-0.7,1.8-2v-4.5h1.1v7.4H244.2z"/>
	<path class="st1" d="M250,259.8c-1.3,0-1.9-0.9-1.9-2v-4.5h-0.9v-0.8h0.9v-2.3h1.1v2.3h1.6v0.8h-1.6v4.5c0,0.7,0.3,1.1,1,1.1h0.6
		v0.9H250z"/>
	<path class="st1" d="M257.4,259.8v-0.9c-0.6,0.8-1.3,1-2.1,1c-0.8,0-1.4-0.3-1.8-0.6c-0.8-0.8-0.9-2-0.9-3.1c0-1.2,0.1-2.4,0.9-3.1
		c0.4-0.4,1-0.6,1.8-0.6c0.8,0,1.5,0.2,2.1,0.9v-4.2h1.1v10.7H257.4z M255.5,253.3c-1.6,0-1.9,1.4-1.9,2.8s0.3,2.8,1.9,2.8
		c1.6,0,1.8-1.4,1.8-2.8S257.1,253.3,255.5,253.3z"/>
	<path class="st1" d="M265.3,259.8v-0.7c-0.6,0.6-1.1,0.8-2.1,0.8c-1,0-1.6-0.2-2.1-0.7c-0.4-0.4-0.6-0.9-0.6-1.5
		c0-1.3,0.9-2.1,2.5-2.1h2.2v-0.7c0-1.1-0.5-1.6-1.9-1.6c-0.9,0-1.4,0.2-1.9,0.8l-0.7-0.7c0.7-0.9,1.4-1.1,2.6-1.1c2,0,3,0.9,3,2.5
		v5H265.3z M265.3,256.4h-2.1c-1.1,0-1.7,0.4-1.7,1.3s0.5,1.3,1.7,1.3c0.6,0,1.2,0,1.6-0.5c0.3-0.2,0.4-0.7,0.4-1.3V256.4z"/>
	<path class="st1" d="M271.1,259.8c-1.3,0-1.9-0.9-1.9-2v-4.5h-0.9v-0.8h0.9v-2.3h1.1v2.3h1.6v0.8h-1.6v4.5c0,0.7,0.3,1.1,1,1.1h0.6
		v0.9H271.1z"/>
	<path class="st1" d="M274.5,256.4c0,1.6,0.8,2.5,2.2,2.5c0.9,0,1.4-0.3,1.9-0.8l0.7,0.6c-0.8,0.8-1.4,1.1-2.7,1.1
		c-2,0-3.2-1.2-3.2-3.8c0-2.4,1.2-3.8,3-3.8c1.9,0,3,1.4,3,3.6v0.5H274.5z M278.2,254.4c-0.3-0.7-0.9-1.1-1.7-1.1s-1.4,0.4-1.7,1.1
		c-0.2,0.4-0.2,0.6-0.2,1.2h3.9C278.4,255,278.4,254.8,278.2,254.4z"/>
	<path class="st1" d="M286.2,259.8v-0.9c-0.6,0.8-1.3,1-2.1,1c-0.8,0-1.4-0.3-1.8-0.6c-0.8-0.8-0.9-2-0.9-3.1c0-1.2,0.1-2.4,0.9-3.1
		c0.4-0.4,1-0.6,1.8-0.6c0.8,0,1.5,0.2,2.1,0.9v-4.2h1.1v10.7H286.2z M284.4,253.3c-1.6,0-1.9,1.4-1.9,2.8s0.3,2.8,1.9,2.8
		c1.6,0,1.8-1.4,1.8-2.8S286,253.3,284.4,253.3z"/>
	<path class="st1" d="M290,262v-3.5h1.3v2.3L290,262z"/>
	<path class="st1" d="M301.8,253.9c-0.4-0.4-0.7-0.5-1.3-0.5c-1.1,0-1.8,0.9-1.8,2v4.5h-1.1v-7.4h1.1v0.9c0.4-0.6,1.2-1,2.1-1
		c0.7,0,1.2,0.2,1.8,0.7L301.8,253.9z"/>
	<path class="st1" d="M304.2,256.4c0,1.6,0.8,2.5,2.2,2.5c0.9,0,1.4-0.3,1.9-0.8l0.7,0.6c-0.8,0.8-1.4,1.1-2.7,1.1
		c-2,0-3.2-1.2-3.2-3.8c0-2.4,1.2-3.8,3-3.8c1.9,0,3,1.4,3,3.6v0.5H304.2z M307.8,254.4c-0.3-0.7-0.9-1.1-1.7-1.1s-1.4,0.4-1.7,1.1
		c-0.2,0.4-0.2,0.6-0.2,1.2h3.9C308,255,308,254.8,307.8,254.4z"/>
	<path class="st1" d="M316.2,259.8v-4.5c0-1.3-0.7-2-1.8-2c-1.1,0-1.8,0.7-1.8,2v4.5h-1.1v-7.4h1.1v0.8c0.5-0.6,1.2-0.9,2.1-0.9
		c0.8,0,1.4,0.2,1.9,0.7c0.5,0.5,0.8,1.2,0.8,2.1v4.7H316.2z"/>
	<path class="st1" d="M324.1,259.8v-0.7c-0.6,0.6-1.1,0.8-2.1,0.8c-1,0-1.6-0.2-2.1-0.7c-0.4-0.4-0.6-0.9-0.6-1.5
		c0-1.3,0.9-2.1,2.5-2.1h2.2v-0.7c0-1.1-0.5-1.6-1.9-1.6c-0.9,0-1.4,0.2-1.9,0.8l-0.7-0.7c0.7-0.9,1.4-1.1,2.6-1.1c2,0,3,0.9,3,2.5
		v5H324.1z M324.1,256.4H322c-1.1,0-1.7,0.4-1.7,1.3s0.5,1.3,1.7,1.3c0.6,0,1.2,0,1.6-0.5c0.3-0.2,0.4-0.7,0.4-1.3V256.4z"/>
	<path class="st1" d="M337.2,259.8v-4.5c0-1.3-0.7-2-1.8-2c-1.1,0-1.8,0.7-1.8,1.8v4.7h-1.1v-4.5c0-1.3-0.7-2-1.8-2
		c-1.1,0-1.8,0.7-1.8,2v4.5h-1.1v-7.4h1.1v0.8c0.5-0.6,1.3-0.9,2.1-0.9c1,0,1.8,0.4,2.3,1.2c0.6-0.8,1.4-1.2,2.4-1.2
		c0.8,0,1.5,0.3,1.9,0.7c0.5,0.5,0.8,1.2,0.8,2.1v4.7H337.2z"/>
	<path class="st1" d="M341.6,256.4c0,1.6,0.8,2.5,2.2,2.5c0.9,0,1.4-0.3,1.9-0.8l0.7,0.6c-0.8,0.8-1.4,1.1-2.7,1.1
		c-2,0-3.2-1.2-3.2-3.8c0-2.4,1.2-3.8,3-3.8c1.9,0,3,1.4,3,3.6v0.5H341.6z M345.3,254.4c-0.3-0.7-0.9-1.1-1.7-1.1s-1.4,0.4-1.7,1.1
		c-0.2,0.4-0.2,0.6-0.2,1.2h3.9C345.5,255,345.5,254.8,345.3,254.4z"/>
	<path class="st1" d="M353.3,259.8v-0.9c-0.6,0.8-1.3,1-2.1,1c-0.8,0-1.4-0.3-1.8-0.6c-0.8-0.8-0.9-2-0.9-3.1c0-1.2,0.1-2.4,0.9-3.1
		c0.4-0.4,1-0.6,1.8-0.6c0.8,0,1.5,0.2,2.1,0.9v-4.2h1.1v10.7H353.3z M351.4,253.3c-1.6,0-1.9,1.4-1.9,2.8s0.3,2.8,1.9,2.8
		c1.6,0,1.8-1.4,1.8-2.8S353.1,253.3,351.4,253.3z"/>
	<path class="st1" d="M357,262v-3.5h1.3v2.3L357,262z"/>
	<path class="st1" d="M374.2,259.8v-4.5c0-1.3-0.7-2-1.8-2c-1.1,0-1.8,0.7-1.8,1.8v4.7h-1.1v-4.5c0-1.3-0.7-2-1.8-2
		c-1.1,0-1.8,0.7-1.8,2v4.5h-1.1v-7.4h1.1v0.8c0.5-0.6,1.3-0.9,2.1-0.9c1,0,1.8,0.4,2.3,1.2c0.6-0.8,1.4-1.2,2.4-1.2
		c0.8,0,1.5,0.3,1.9,0.7c0.5,0.5,0.8,1.2,0.8,2.1v4.7H374.2z"/>
	<path class="st1" d="M382.7,259.1c-0.5,0.5-1.2,0.8-2.1,0.8s-1.6-0.3-2.1-0.8c-0.8-0.8-0.9-1.8-0.9-2.9c0-1.1,0.1-2.2,0.9-2.9
		c0.5-0.5,1.2-0.8,2.1-0.8s1.6,0.3,2.1,0.8c0.8,0.8,0.9,1.8,0.9,2.9C383.6,257.3,383.4,258.3,382.7,259.1z M381.9,253.9
		c-0.3-0.3-0.8-0.5-1.3-0.5s-1,0.2-1.3,0.5c-0.5,0.5-0.6,1.5-0.6,2.3c0,0.8,0.1,1.7,0.6,2.3c0.3,0.3,0.8,0.5,1.3,0.5s1-0.2,1.3-0.5
		c0.5-0.5,0.6-1.5,0.6-2.3C382.5,255.3,382.5,254.4,381.9,253.9z"/>
	<path class="st1" d="M388.2,259.8h-1l-2.7-7.4h1.2l2,5.9l2-5.9h1.2L388.2,259.8z"/>
	<path class="st1" d="M393,256.4c0,1.6,0.8,2.5,2.2,2.5c0.9,0,1.4-0.3,1.9-0.8l0.7,0.6c-0.8,0.8-1.4,1.1-2.7,1.1
		c-2,0-3.2-1.2-3.2-3.8c0-2.4,1.2-3.8,3-3.8c1.9,0,3,1.4,3,3.6v0.5H393z M396.7,254.4c-0.3-0.7-0.9-1.1-1.7-1.1s-1.4,0.4-1.7,1.1
		c-0.2,0.4-0.2,0.6-0.2,1.2h3.9C396.9,255,396.8,254.8,396.7,254.4z"/>
	<path class="st1" d="M404.7,259.8v-0.9c-0.6,0.8-1.3,1-2.1,1c-0.8,0-1.4-0.3-1.8-0.6c-0.8-0.8-0.9-2-0.9-3.1c0-1.2,0.1-2.4,0.9-3.1
		c0.4-0.4,1-0.6,1.8-0.6c0.8,0,1.5,0.2,2.1,0.9v-4.2h1.1v10.7H404.7z M402.8,253.3c-1.6,0-1.9,1.4-1.9,2.8s0.3,2.8,1.9,2.8
		c1.6,0,1.8-1.4,1.8-2.8S404.4,253.3,402.8,253.3z"/>
	<path class="st1" d="M408.4,262v-3.5h1.3v2.3L408.4,262z"/>
	<path class="st1" d="M420.9,259.1c-0.5,0.5-1.2,0.8-2.1,0.8s-1.6-0.3-2.1-0.8c-0.8-0.8-0.9-1.8-0.9-2.9c0-1.1,0.1-2.2,0.9-2.9
		c0.5-0.5,1.2-0.8,2.1-0.8s1.6,0.3,2.1,0.8c0.8,0.8,0.9,1.8,0.9,2.9C421.8,257.3,421.6,258.3,420.9,259.1z M420.1,253.9
		c-0.3-0.3-0.8-0.5-1.3-0.5s-1,0.2-1.3,0.5c-0.5,0.5-0.6,1.5-0.6,2.3c0,0.8,0.1,1.7,0.6,2.3c0.3,0.3,0.8,0.5,1.3,0.5s1-0.2,1.3-0.5
		c0.5-0.5,0.6-1.5,0.6-2.3C420.7,255.3,420.6,254.4,420.1,253.9z"/>
	<path class="st1" d="M428.2,253.9c-0.4-0.4-0.7-0.5-1.3-0.5c-1.1,0-1.8,0.9-1.8,2v4.5h-1.1v-7.4h1.1v0.9c0.4-0.6,1.2-1,2.1-1
		c0.7,0,1.2,0.2,1.8,0.7L428.2,253.9z"/>
	<path class="st1" d="M438.5,259.8v-0.9c-0.6,0.8-1.3,1-2.1,1c-0.8,0-1.4-0.3-1.8-0.6c-0.8-0.8-0.9-2-0.9-3.1c0-1.2,0.1-2.4,0.9-3.1
		c0.4-0.4,1-0.6,1.8-0.6c0.8,0,1.5,0.2,2.1,0.9v-4.2h1.1v10.7H438.5z M436.7,253.3c-1.6,0-1.9,1.4-1.9,2.8s0.3,2.8,1.9,2.8
		c1.6,0,1.8-1.4,1.8-2.8S438.3,253.3,436.7,253.3z"/>
	<path class="st1" d="M447,259.1c-0.5,0.5-1.2,0.8-2.1,0.8s-1.6-0.3-2.1-0.8c-0.8-0.8-0.9-1.8-0.9-2.9c0-1.1,0.1-2.2,0.9-2.9
		c0.5-0.5,1.2-0.8,2.1-0.8s1.6,0.3,2.1,0.8c0.8,0.8,0.9,1.8,0.9,2.9C447.9,257.3,447.8,258.3,447,259.1z M446.3,253.9
		c-0.3-0.3-0.8-0.5-1.3-0.5s-1,0.2-1.3,0.5c-0.5,0.5-0.6,1.5-0.6,2.3c0,0.8,0.1,1.7,0.6,2.3c0.3,0.3,0.8,0.5,1.3,0.5s1-0.2,1.3-0.5
		c0.5-0.5,0.6-1.5,0.6-2.3C446.9,255.3,446.8,254.4,446.3,253.9z"/>
	<path class="st1" d="M450.9,256.4c0,1.6,0.8,2.5,2.2,2.5c0.9,0,1.4-0.3,1.9-0.8l0.7,0.6c-0.8,0.8-1.4,1.1-2.7,1.1
		c-2,0-3.2-1.2-3.2-3.8c0-2.4,1.2-3.8,3-3.8c1.9,0,3,1.4,3,3.6v0.5H450.9z M454.6,254.4c-0.3-0.7-0.9-1.1-1.7-1.1s-1.4,0.4-1.7,1.1
		c-0.2,0.4-0.2,0.6-0.2,1.2h3.9C454.8,255,454.8,254.8,454.6,254.4z"/>
	<path class="st1" d="M460.5,259.9c-1.2,0-2.2-0.3-3-1.1l0.7-0.7c0.6,0.6,1.4,0.9,2.3,0.9c1.2,0,2-0.4,2-1.3c0-0.6-0.4-1-1.2-1.1
		l-1.2-0.1c-1.4-0.1-2.2-0.8-2.2-2c0-1.4,1.1-2.2,2.7-2.2c1,0,2,0.3,2.7,0.8l-0.7,0.7c-0.5-0.4-1.2-0.6-2-0.6
		c-1.1,0-1.7,0.5-1.7,1.2c0,0.6,0.4,1,1.3,1.1l1.2,0.1c1.3,0.1,2.2,0.6,2.2,2C463.5,259.1,462.3,259.9,460.5,259.9z"/>
	<path class="st1" d="M474.1,259.8v-4.5c0-1.3-0.7-2-1.8-2c-1.1,0-1.8,0.7-1.8,2v4.5h-1.1v-7.4h1.1v0.8c0.5-0.6,1.2-0.9,2.1-0.9
		c0.8,0,1.4,0.2,1.9,0.7c0.5,0.5,0.8,1.2,0.8,2.1v4.7H474.1z"/>
	<path class="st1" d="M482.5,259.1c-0.5,0.5-1.2,0.8-2.1,0.8s-1.6-0.3-2.1-0.8c-0.8-0.8-0.9-1.8-0.9-2.9c0-1.1,0.1-2.2,0.9-2.9
		c0.5-0.5,1.2-0.8,2.1-0.8s1.6,0.3,2.1,0.8c0.8,0.8,0.9,1.8,0.9,2.9C483.4,257.3,483.3,258.3,482.5,259.1z M481.8,253.9
		c-0.3-0.3-0.8-0.5-1.3-0.5s-1,0.2-1.3,0.5c-0.5,0.5-0.6,1.5-0.6,2.3c0,0.8,0.1,1.7,0.6,2.3c0.3,0.3,0.8,0.5,1.3,0.5s1-0.2,1.3-0.5
		c0.5-0.5,0.6-1.5,0.6-2.3C482.4,255.3,482.3,254.4,481.8,253.9z"/>
	<path class="st1" d="M487.8,259.8c-1.3,0-1.9-0.9-1.9-2v-4.5H485v-0.8h0.9v-2.3h1.1v2.3h1.6v0.8H487v4.5c0,0.7,0.3,1.1,1,1.1h0.6
		v0.9H487.8z"/>
	<path class="st1" d="M495.1,256.4c0,1.6,0.8,2.5,2.2,2.5c0.9,0,1.4-0.3,1.9-0.8l0.7,0.6c-0.8,0.8-1.4,1.1-2.7,1.1
		c-2,0-3.2-1.2-3.2-3.8c0-2.4,1.2-3.8,3-3.8c1.9,0,3,1.4,3,3.6v0.5H495.1z M498.8,254.4c-0.3-0.7-0.9-1.1-1.7-1.1s-1.4,0.4-1.7,1.1
		c-0.2,0.4-0.2,0.6-0.2,1.2h3.9C499,255,499,254.8,498.8,254.4z"/>
	<path class="st1" d="M506.2,259.8l-1.8-2.9l-1.8,2.9h-1.3l2.5-3.8l-2.4-3.6h1.3l1.7,2.7l1.7-2.7h1.3l-2.4,3.6l2.5,3.8H506.2z"/>
	<path class="st1" d="M509.3,250.4v-1.2h1.2v1.2H509.3z M509.4,259.8v-7.4h1.1v7.4H509.4z"/>
	<path class="st1" d="M515.5,259.9c-1.2,0-2.2-0.3-3-1.1l0.7-0.7c0.6,0.6,1.4,0.9,2.3,0.9c1.2,0,2-0.4,2-1.3c0-0.6-0.4-1-1.2-1.1
		l-1.2-0.1c-1.4-0.1-2.2-0.8-2.2-2c0-1.4,1.1-2.2,2.7-2.2c1,0,2,0.3,2.7,0.8l-0.7,0.7c-0.5-0.4-1.2-0.6-2-0.6
		c-1.1,0-1.7,0.5-1.7,1.2c0,0.6,0.4,1,1.3,1.1l1.2,0.1c1.3,0.1,2.2,0.6,2.2,2C518.5,259.1,517.3,259.9,515.5,259.9z"/>
	<path class="st1" d="M522.5,259.8c-1.3,0-1.9-0.9-1.9-2v-4.5h-0.9v-0.8h0.9v-2.3h1.1v2.3h1.6v0.8h-1.6v4.5c0,0.7,0.3,1.1,1,1.1h0.6
		v0.9H522.5z"/>
	<path class="st1" d="M525.4,262v-3.5h1.3v2.3L525.4,262z"/>
	<path class="st1" d="M218.4,279.1c-0.5,0.5-1.2,0.8-2.1,0.8c-0.9,0-1.6-0.3-2.1-0.8c-0.8-0.8-0.9-1.8-0.9-2.9
		c0-1.1,0.2-2.2,0.9-2.9c0.5-0.5,1.2-0.8,2.1-0.8c0.9,0,1.6,0.3,2.1,0.8c0.8,0.8,0.9,1.8,0.9,2.9
		C219.3,277.3,219.1,278.3,218.4,279.1z M217.6,273.9c-0.3-0.3-0.8-0.5-1.4-0.5c-0.5,0-1,0.2-1.3,0.5c-0.5,0.5-0.6,1.5-0.6,2.3
		c0,0.8,0.1,1.7,0.6,2.3c0.3,0.3,0.8,0.5,1.3,0.5c0.5,0,1-0.2,1.4-0.5c0.5-0.5,0.6-1.5,0.6-2.3C218.2,275.3,218.2,274.4,217.6,273.9
		z"/>
	<path class="st1" d="M225.7,273.9c-0.4-0.4-0.7-0.5-1.3-0.5c-1.1,0-1.8,0.9-1.8,2v4.5h-1.1v-7.4h1.1v0.9c0.4-0.6,1.2-1,2.1-1
		c0.7,0,1.2,0.2,1.8,0.7L225.7,273.9z"/>
	<path class="st1" d="M233.5,281.6c-0.1,0.4-0.3,0.7-0.5,0.9c-0.4,0.4-0.9,0.5-1.4,0.5h-0.5v-1h0.3c0.8,0,1-0.2,1.2-0.9l0.5-1.4
		l-2.7-7.2h1.2l2,5.9l2-5.9h1.2L233.5,281.6z"/>
	<path class="st1" d="M243,279.1c-0.5,0.5-1.2,0.8-2.1,0.8s-1.6-0.3-2.1-0.8c-0.8-0.8-0.9-1.8-0.9-2.9c0-1.1,0.1-2.2,0.9-2.9
		c0.5-0.5,1.2-0.8,2.1-0.8s1.6,0.3,2.1,0.8c0.8,0.8,0.9,1.8,0.9,2.9C243.9,277.3,243.7,278.3,243,279.1z M242.2,273.9
		c-0.3-0.3-0.8-0.5-1.3-0.5s-1,0.2-1.3,0.5c-0.5,0.5-0.6,1.5-0.6,2.3c0,0.8,0.1,1.7,0.6,2.3c0.3,0.3,0.8,0.5,1.3,0.5s1-0.2,1.3-0.5
		c0.5-0.5,0.6-1.5,0.6-2.3C242.8,275.3,242.7,274.4,242.2,273.9z"/>
	<path class="st1" d="M250.8,279.8V279c-0.5,0.6-1.3,0.9-2.1,0.9c-0.8,0-1.5-0.2-1.9-0.7c-0.5-0.5-0.8-1.2-0.8-2.1v-4.7h1.1v4.5
		c0,1.3,0.7,2,1.8,2c1.1,0,1.8-0.7,1.8-2v-4.5h1.1v7.4H250.8z"/>
	<path class="st1" d="M260.4,279.8c-1.3,0-1.9-0.9-1.9-2v-4.5h-0.9v-0.8h0.9v-2.3h1.1v2.3h1.6v0.8h-1.6v4.5c0,0.7,0.3,1.1,1,1.1h0.6
		v0.9H260.4z"/>
	<path class="st1" d="M265.1,281.6c-0.2,0.4-0.3,0.7-0.5,0.9c-0.4,0.4-0.9,0.5-1.4,0.5h-0.5v-1h0.3c0.8,0,1-0.2,1.2-0.9l0.5-1.4
		l-2.7-7.2h1.2l2,5.9l2-5.9h1.2L265.1,281.6z"/>
	<path class="st1" d="M275,279.3c-0.4,0.4-1,0.6-1.8,0.6c-0.8,0-1.5-0.2-2.1-1v4.2H270v-10.7h1.1v0.9c0.6-0.8,1.3-1,2.1-1
		c0.8,0,1.4,0.3,1.8,0.6c0.8,0.8,0.9,2,0.9,3.1C275.9,277.3,275.7,278.5,275,279.3z M273,273.3c-1.6,0-1.9,1.4-1.9,2.8
		s0.3,2.8,1.9,2.8c1.6,0,1.8-1.4,1.8-2.8S274.6,273.3,273,273.3z"/>
	<path class="st1" d="M278.9,276.4c0,1.6,0.8,2.5,2.2,2.5c0.9,0,1.4-0.3,1.9-0.8l0.7,0.6c-0.8,0.8-1.4,1.1-2.7,1.1
		c-2,0-3.2-1.2-3.2-3.8c0-2.4,1.2-3.8,3-3.8c1.9,0,3,1.4,3,3.6v0.5H278.9z M282.5,274.4c-0.3-0.7-0.9-1.1-1.7-1.1s-1.4,0.4-1.7,1.1
		c-0.2,0.4-0.2,0.6-0.2,1.2h3.9C282.7,275,282.7,274.8,282.5,274.4z"/>
	<path class="st1" d="M290.5,279.8v-0.9c-0.6,0.8-1.3,1-2.1,1c-0.8,0-1.4-0.3-1.8-0.6c-0.8-0.8-0.9-2-0.9-3.1c0-1.2,0.1-2.4,0.9-3.1
		c0.4-0.4,1-0.6,1.8-0.6c0.8,0,1.5,0.2,2.1,0.9v-4.2h1.1v10.7H290.5z M288.7,273.3c-1.6,0-1.9,1.4-1.9,2.8s0.3,2.8,1.9,2.8
		c1.6,0,1.8-1.4,1.8-2.8S290.3,273.3,288.7,273.3z"/>
	<path class="st1" d="M300.1,279.8c-1.3,0-1.9-0.9-1.9-2v-4.5h-0.9v-0.8h0.9v-2.3h1.1v2.3h1.6v0.8h-1.6v4.5c0,0.7,0.3,1.1,1,1.1h0.6
		v0.9H300.1z"/>
	<path class="st1" d="M307.8,279.8v-4.6c0-1.3-0.7-2-1.8-2c-1.1,0-1.8,0.7-1.8,2v4.6H303v-10.7h1.1v4.1c0.5-0.6,1.2-0.9,2.1-0.9
		c1.7,0,2.7,1.1,2.7,2.7v4.7H307.8z"/>
	<path class="st1" d="M312.1,276.4c0,1.6,0.8,2.5,2.2,2.5c0.9,0,1.4-0.3,1.9-0.8l0.7,0.6c-0.8,0.8-1.4,1.1-2.7,1.1
		c-2,0-3.2-1.2-3.2-3.8c0-2.4,1.2-3.8,3-3.8c1.9,0,3,1.4,3,3.6v0.5H312.1z M315.8,274.4c-0.3-0.7-0.9-1.1-1.7-1.1s-1.4,0.4-1.7,1.1
		c-0.2,0.4-0.2,0.6-0.2,1.2h3.9C316,275,316,274.8,315.8,274.4z"/>
	<path class="st1" d="M327.3,279.8v-0.7c-0.6,0.6-1.1,0.8-2.1,0.8c-1,0-1.6-0.2-2.1-0.7c-0.4-0.4-0.6-0.9-0.6-1.5
		c0-1.3,0.9-2.1,2.5-2.1h2.2v-0.7c0-1.1-0.5-1.6-1.9-1.6c-0.9,0-1.4,0.2-1.9,0.8l-0.7-0.7c0.7-0.9,1.4-1.1,2.6-1.1c2,0,3,0.9,3,2.5
		v5H327.3z M327.3,276.4h-2.1c-1.1,0-1.7,0.4-1.7,1.3s0.5,1.3,1.7,1.3c0.6,0,1.2,0,1.6-0.5c0.3-0.2,0.4-0.7,0.4-1.3V276.4z"/>
	<path class="st1" d="M335.4,279.8v-0.9c-0.6,0.8-1.3,1-2.1,1c-0.8,0-1.4-0.3-1.8-0.6c-0.8-0.8-0.9-2-0.9-3.1c0-1.2,0.1-2.4,0.9-3.1
		c0.4-0.4,1-0.6,1.8-0.6c0.8,0,1.5,0.2,2.1,0.9v-4.2h1.1v10.7H335.4z M333.6,273.3c-1.6,0-1.9,1.4-1.9,2.8s0.3,2.8,1.9,2.8
		c1.6,0,1.8-1.4,1.8-2.8S335.2,273.3,333.6,273.3z"/>
	<path class="st1" d="M343.6,279.8v-0.9c-0.6,0.8-1.3,1-2.1,1c-0.8,0-1.4-0.3-1.8-0.6c-0.8-0.8-0.9-2-0.9-3.1c0-1.2,0.1-2.4,0.9-3.1
		c0.4-0.4,1-0.6,1.8-0.6c0.8,0,1.5,0.2,2.1,0.9v-4.2h1.1v10.7H343.6z M341.8,273.3c-1.6,0-1.9,1.4-1.9,2.8s0.3,2.8,1.9,2.8
		c1.6,0,1.8-1.4,1.8-2.8S343.4,273.3,341.8,273.3z"/>
	<path class="st1" d="M351.5,273.9c-0.4-0.4-0.7-0.5-1.3-0.5c-1.1,0-1.8,0.9-1.8,2v4.5h-1.1v-7.4h1.1v0.9c0.4-0.6,1.2-1,2.1-1
		c0.7,0,1.2,0.2,1.8,0.7L351.5,273.9z"/>
	<path class="st1" d="M353.9,276.4c0,1.6,0.8,2.5,2.2,2.5c0.9,0,1.4-0.3,1.9-0.8l0.7,0.6c-0.8,0.8-1.4,1.1-2.7,1.1
		c-2,0-3.2-1.2-3.2-3.8c0-2.4,1.2-3.8,3-3.8c1.9,0,3,1.4,3,3.6v0.5H353.9z M357.5,274.4c-0.3-0.7-0.9-1.1-1.7-1.1s-1.4,0.4-1.7,1.1
		c-0.2,0.4-0.2,0.6-0.2,1.2h3.9C357.7,275,357.7,274.8,357.5,274.4z"/>
	<path class="st1" d="M363.5,279.9c-1.2,0-2.2-0.3-3-1.1l0.7-0.7c0.6,0.6,1.4,0.9,2.3,0.9c1.2,0,2-0.4,2-1.3c0-0.6-0.4-1-1.2-1.1
		l-1.2-0.1c-1.4-0.1-2.2-0.8-2.2-2c0-1.4,1.1-2.2,2.7-2.2c1,0,2,0.3,2.7,0.8l-0.7,0.7c-0.5-0.4-1.2-0.6-2-0.6
		c-1.1,0-1.7,0.5-1.7,1.2c0,0.6,0.4,1,1.3,1.1l1.2,0.1c1.3,0.1,2.2,0.6,2.2,2C366.5,279.1,365.2,279.9,363.5,279.9z"/>
	<path class="st1" d="M370.7,279.9c-1.2,0-2.2-0.3-3-1.1l0.7-0.7c0.6,0.6,1.4,0.9,2.3,0.9c1.2,0,2-0.4,2-1.3c0-0.6-0.4-1-1.2-1.1
		l-1.2-0.1c-1.4-0.1-2.2-0.8-2.2-2c0-1.4,1.1-2.2,2.7-2.2c1,0,2,0.3,2.7,0.8l-0.7,0.7c-0.5-0.4-1.2-0.6-2-0.6
		c-1.1,0-1.7,0.5-1.7,1.2c0,0.6,0.4,1,1.3,1.1l1.2,0.1c1.3,0.1,2.2,0.6,2.2,2C373.7,279.1,372.4,279.9,370.7,279.9z"/>
	<path class="st1" d="M379.4,270.4v-1.2h1.2v1.2H379.4z M379.5,279.8v-7.4h1.1v7.4H379.5z"/>
	<path class="st1" d="M388,279.8v-4.5c0-1.3-0.7-2-1.8-2c-1.1,0-1.8,0.7-1.8,2v4.5h-1.1v-7.4h1.1v0.8c0.5-0.6,1.2-0.9,2.1-0.9
		c0.8,0,1.4,0.2,1.9,0.7c0.5,0.5,0.8,1.2,0.8,2.1v4.7H388z"/>
	<path class="st1" d="M394.6,279.9c-1.9,0-3.3-1.3-3.3-3.8s1.4-3.8,3.3-3.8c1,0,1.7,0.3,2.4,1.1l-0.7,0.7c-0.6-0.6-1-0.8-1.7-0.8
		c-0.7,0-1.3,0.3-1.7,0.8c-0.3,0.5-0.5,1.1-0.5,2s0.1,1.5,0.5,2c0.4,0.6,1,0.8,1.7,0.8c0.7,0,1.1-0.2,1.7-0.8l0.7,0.7
		C396.3,279.7,395.6,279.9,394.6,279.9z"/>
	<path class="st1" d="M403.6,279.1c-0.5,0.5-1.2,0.8-2.1,0.8s-1.6-0.3-2.1-0.8c-0.8-0.8-0.9-1.8-0.9-2.9c0-1.1,0.1-2.2,0.9-2.9
		c0.5-0.5,1.2-0.8,2.1-0.8s1.6,0.3,2.1,0.8c0.8,0.8,0.9,1.8,0.9,2.9C404.5,277.3,404.3,278.3,403.6,279.1z M402.8,273.9
		c-0.3-0.3-0.8-0.5-1.3-0.5s-1,0.2-1.3,0.5c-0.5,0.5-0.6,1.5-0.6,2.3c0,0.8,0.1,1.7,0.6,2.3c0.3,0.3,0.8,0.5,1.3,0.5s1-0.2,1.3-0.5
		c0.5-0.5,0.6-1.5,0.6-2.3C403.4,275.3,403.4,274.4,402.8,273.9z"/>
	<path class="st1" d="M410.9,273.9c-0.4-0.4-0.7-0.5-1.3-0.5c-1.1,0-1.8,0.9-1.8,2v4.5h-1.1v-7.4h1.1v0.9c0.4-0.6,1.2-1,2.1-1
		c0.7,0,1.2,0.2,1.8,0.7L410.9,273.9z"/>
	<path class="st1" d="M417.2,273.9c-0.4-0.4-0.7-0.5-1.3-0.5c-1.1,0-1.8,0.9-1.8,2v4.5h-1.1v-7.4h1.1v0.9c0.4-0.6,1.2-1,2.1-1
		c0.7,0,1.2,0.2,1.8,0.7L417.2,273.9z"/>
	<path class="st1" d="M419.6,276.4c0,1.6,0.8,2.5,2.2,2.5c0.9,0,1.4-0.3,1.9-0.8l0.7,0.6c-0.8,0.8-1.4,1.1-2.7,1.1
		c-2,0-3.2-1.2-3.2-3.8c0-2.4,1.2-3.8,3-3.8c1.9,0,3,1.4,3,3.6v0.5H419.6z M423.3,274.4c-0.3-0.7-0.9-1.1-1.7-1.1s-1.4,0.4-1.7,1.1
		c-0.2,0.4-0.2,0.6-0.2,1.2h3.9C423.5,275,423.4,274.8,423.3,274.4z"/>
	<path class="st1" d="M429.7,279.9c-1.9,0-3.3-1.3-3.3-3.8s1.4-3.8,3.3-3.8c1,0,1.7,0.3,2.4,1.1l-0.7,0.7c-0.6-0.6-1-0.8-1.7-0.8
		c-0.7,0-1.3,0.3-1.7,0.8c-0.3,0.5-0.5,1.1-0.5,2s0.1,1.5,0.5,2c0.4,0.6,1,0.8,1.7,0.8c0.7,0,1.1-0.2,1.7-0.8l0.7,0.7
		C431.4,279.7,430.8,279.9,429.7,279.9z"/>
	<path class="st1" d="M436.3,279.8c-1.3,0-1.9-0.9-1.9-2v-4.5h-0.9v-0.8h0.9v-2.3h1.1v2.3h1.6v0.8h-1.6v4.5c0,0.7,0.3,1.1,1,1.1h0.6
		v0.9H436.3z"/>
	<path class="st1" d="M441,279.8c-1.3,0-1.9-0.8-1.9-2v-8.7h1.1v8.7c0,0.7,0.2,1.1,1,1.1h0.6v0.9H441z"/>
	<path class="st1" d="M445.1,281.6c-0.1,0.4-0.3,0.7-0.5,0.9c-0.4,0.4-0.9,0.5-1.4,0.5h-0.5v-1h0.3c0.8,0,1-0.2,1.2-0.9l0.5-1.4
		l-2.7-7.2h1.2l2,5.9l2-5.9h1.2L445.1,281.6z"/>
	<path class="st1" d="M449,279.8v-1.4h1.4v1.4H449z"/>
</g>
</svg>
