<?xml version="1.0" encoding="utf-8"?>
<!-- Generator: Adobe Illustrator 19.1.0, SVG Export Plug-In . SVG Version: 6.00 Build 0)  -->
<svg version="1.1" id="Layer_1" xmlns="http://www.w3.org/2000/svg" xmlns:xlink="http://www.w3.org/1999/xlink" x="0px" y="0px"
	 viewBox="0 0 1280 720.1" enable-background="new 0 0 1280 720.1" xml:space="preserve">
<g>
	<g>
	</g>
	<g>
	</g>
	<g>
	</g>
	<g>
	</g>
	<g>
	</g>
	<g>
	</g>
	<g>
	</g>
	<g>
	</g>
	<g>
	</g>
	<g>
	</g>
	<g>
	</g>
	<g>
	</g>
	<g>
	</g>
	<g>
	</g>
	<g>
	</g>
	<g>
	</g>
	<g>
	</g>
	<g>
	</g>
	<g>
	</g>
	<g>
	</g>
	<g>
	</g>
	<g>
	</g>
	<g>
	</g>
	<g>
	</g>
	<g>
	</g>
	<g>
	</g>
	<g>
	</g>
	<g>
	</g>
	<g>
	</g>
	<g>
	</g>
	<g>
		<g>
		</g>
		<g>
		</g>
		<g>
		</g>
		<g>
		</g>
		<g>
		</g>
		<g>
		</g>
		<g>
		</g>
		<g>
		</g>
		<g>
		</g>
		<g>
		</g>
	</g>
	<g>
		<g>
		</g>
		<g>
		</g>
		<g>
		</g>
		<g>
		</g>
		<g>
		</g>
		<g>
		</g>
		<g>
		</g>
		<g>
		</g>
		<g>
		</g>
		<g>
		</g>
	</g>
</g>
<rect width="1280" height="720"/>
<path fill="none" stroke="#FFFFFF" stroke-width="4" stroke-miterlimit="10" d="M1008.5,150.8"/>
<g>
	<defs>
		<rect id="SVGID_1_" width="1280" height="720"/>
	</defs>
	<clipPath id="SVGID_2_">
		<use xlink:href="#SVGID_1_"  overflow="visible"/>
	</clipPath>
	<g clip-path="url(#SVGID_2_)">
		<g>
			<path fill="#1A1A1A" d="M662.1,207c2.8,7.7,11.2,11.7,18.9,8.9c7.7-2.8,11.7-11.2,8.9-18.9c-2.8-7.7-11.2-11.7-18.9-8.9
				C663.3,190.8,659.3,199.3,662.1,207z"/>
			<circle fill="#1A1A1A" cx="684.7" cy="106.4" r="96.1"/>
		</g>
		<g>
			<path fill="#1A1A1A" d="M567.3,257.1c6.6,4.8,15.9,3.4,20.7-3.3c4.8-6.6,3.4-15.9-3.3-20.7c-6.6-4.8-15.9-3.4-20.7,3.3
				C559.2,243.1,560.7,252.3,567.3,257.1z"/>
			<path fill="#1A1A1A" d="M495.7,241.4c33.2,24.1,79.7,16.8,103.8-16.4c24.1-33.2,16.8-79.7-16.4-103.8
				c-33.2-24.1-79.7-16.8-103.8,16.4C455.1,170.8,462.5,217.3,495.7,241.4z"/>
		</g>
		<g>
			<path fill="#1A1A1A" d="M805.4,290.5c1.2,8.1,8.8,13.6,16.8,12.4c8.1-1.2,13.6-8.8,12.4-16.8c-1.2-8.1-8.8-13.6-16.8-12.4
				C809.7,274.9,804.2,282.4,805.4,290.5z"/>
			<path fill="#1A1A1A" d="M777.9,197.7c14.8,98,106.3,165.5,204.3,150.6c98-14.8,165.5-106.3,150.6-204.3
				C1118.1,46,1026.6-21.5,928.6-6.7C830.6,8.2,763.1,99.6,777.9,197.7z"/>
		</g>
		<path fill="none" stroke="#FFFFFF" stroke-width="4" stroke-miterlimit="10" d="M671.9,414.1"/>
		<g>
			<line fill="none" stroke="#1A1A1A" stroke-width="4" stroke-miterlimit="10" x1="672" y1="416.3" x2="677" y2="102.6"/>
			<line fill="none" stroke="#1A1A1A" stroke-width="4" stroke-miterlimit="10" x1="672" y1="416.3" x2="492.9" y2="100.5"/>
			<line fill="none" stroke="#1A1A1A" stroke-width="4" stroke-miterlimit="10" x1="672" y1="416.3" x2="948.5" y2="176.8"/>
			<line fill="none" stroke="#FFFFFF" stroke-width="2" stroke-miterlimit="10" x1="672" y1="416.3" x2="590.1" y2="105"/>
			<line fill="none" stroke="#FFFFFF" stroke-width="2" stroke-miterlimit="10" x1="672" y1="416.3" x2="779.7" y2="30.1"/>
			<line fill="none" stroke="#FFFFFF" stroke-width="2" stroke-miterlimit="10" x1="672" y1="416.3" x2="1135.2" y2="143.1"/>
			<line fill="none" stroke="#FFFFFF" stroke-width="2" stroke-miterlimit="10" x1="672" y1="416.3" x2="119.1" y2="28.8"/>
		</g>
		<g>
			<circle stroke="#4D4D4D" stroke-width="4" stroke-miterlimit="10" cx="495.4" cy="292.4" r="14.8"/>
			<path stroke="#4D4D4D" stroke-width="4" stroke-miterlimit="10" d="M-83.2,112.1c0,175.3,142.1,317.3,317.3,317.3
				c175.3,0,317.3-142.1,317.3-317.3c0-175.3-142.1-317.3-317.3-317.3C58.9-205.2-83.2-63.2-83.2,112.1z"/>
		</g>
		<line fill="none" stroke="#FFFFFF" stroke-width="2" stroke-miterlimit="10" x1="672" y1="416.3" x2="289.9" y2="-56.6"/>
		<g>
			<circle stroke="#4D4D4D" stroke-width="4" stroke-miterlimit="10" cx="407.8" cy="90" r="14"/>
			<path stroke="#4D4D4D" stroke-width="4" stroke-miterlimit="10" d="M202.9-8.5c0,69.6,56.4,125.9,125.9,125.9
				c69.6,0,125.9-56.4,125.9-125.9s-56.4-125.9-125.9-125.9C259.3-134.4,202.9-78.1,202.9-8.5z"/>
		</g>
		<g>
			<path stroke="#4D4D4D" stroke-width="4" stroke-miterlimit="10" d="M592.4,167.5c5,6.4,14.3,7.6,20.8,2.5
				c6.4-5,7.6-14.3,2.5-20.8c-5-6.4-14.3-7.6-20.8-2.5C588.5,151.7,587.3,161,592.4,167.5z"/>
			<circle stroke="#4D4D4D" stroke-width="4" stroke-miterlimit="10" cx="582.3" cy="64.9" r="96.1"/>
		</g>
		<g>
			<path stroke="#4D4D4D" stroke-width="4" stroke-miterlimit="10" d="M722.3,190.7c3.7,7.3,12.6,10.2,19.9,6.5
				c7.3-3.7,10.2-12.6,6.5-19.9c-3.7-7.3-12.6-10.2-19.9-6.5C721.5,174.5,718.6,183.4,722.3,190.7z"/>
			<circle stroke="#4D4D4D" stroke-width="4" stroke-miterlimit="10" cx="779.7" cy="30.1" r="160.3"/>
		</g>
		<g>
			<circle stroke="#4D4D4D" stroke-width="4" stroke-miterlimit="10" cx="892.7" cy="287.2" r="14.8"/>
			<circle stroke="#4D4D4D" stroke-width="4" stroke-miterlimit="10" cx="1138.4" cy="136.6" r="288"/>
		</g>
		<line fill="none" stroke="#FFFFFF" stroke-width="2" stroke-miterlimit="10" x1="672" y1="416.3" x2="1028.8" y2="14.6"/>
		<g>
			<path stroke="#4D4D4D" stroke-width="4" stroke-miterlimit="10" d="M917.6,119.5c-2.4,7.8,2.1,16.1,9.9,18.5
				c7.8,2.4,16.1-2.1,18.5-9.9c2.4-7.8-2.1-16.1-9.9-18.5C928.2,107.2,920,111.6,917.6,119.5z"/>
			<path stroke="#4D4D4D" stroke-width="4" stroke-miterlimit="10" d="M890.1-26.2c-23.2,76.6,20.1,157.5,96.7,180.7
				c76.6,23.2,157.5-20.1,180.7-96.7c23.2-76.6-20.1-157.5-96.7-180.7C994.1-146.1,913.3-102.8,890.1-26.2z"/>
		</g>
		<line fill="none" stroke="#FFFFFF" stroke-width="5" stroke-miterlimit="10" x1="671.9" y1="414.1" x2="671.9" y2="720.1"/>
	</g>
</g>
<g>
	<text transform="matrix(1 0 0 1 91.1602 183.6245)"><tspan x="0" y="0" fill="#FFFFFF" font-family="'DIN-Bold'" font-size="30px" letter-spacing="3">SPOKEHUB</tspan><tspan x="178.3" y="0" fill="#FFFFFF" font-family="'DIN-Light'" font-size="30px" letter-spacing="3"> STARTS  </tspan><tspan x="0" y="35" fill="#FFFFFF" font-family="'DIN-Light'" font-size="30px" letter-spacing="3">WITH KNOWLEDGE  </tspan><tspan x="0" y="70" fill="#FFFFFF" font-family="'DIN-Light'" font-size="30px" letter-spacing="3">(NOT GUESS-LEDGE),  </tspan><tspan x="0" y="105" fill="#FFFFFF" font-family="'DIN-Light'" font-size="30px" letter-spacing="3">SO ALL OUR WORK IS  </tspan><tspan x="0" y="140" fill="#FFFFFF" font-family="'DIN-Light'" font-size="30px" letter-spacing="3">GROUNDED IN TRUTH.</tspan></text>
</g>
<g>
	<text transform="matrix(1 0 0 1 91.1602 129.6245)"><tspan x="0" y="0" fill="#808080" font-family="'DIN-Light'" font-size="72px" letter-spacing="-4">0</tspan><tspan x="32.7" y="0" fill="#808080" font-family="'DIN-Light'" font-size="72px" letter-spacing="7">1</tspan></text>
</g>
</svg>
