<?xml version="1.0" encoding="utf-8"?>
<!-- Generator: Adobe Illustrator 19.1.0, SVG Export Plug-In . SVG Version: 6.00 Build 0)  -->
<svg version="1.1" id="Layer_1" xmlns="http://www.w3.org/2000/svg" xmlns:xlink="http://www.w3.org/1999/xlink" x="0px" y="0px"
	 viewBox="0 0 1280 720" enable-background="new 0 0 1280 720" xml:space="preserve">
<rect x="0" y="0" width="1280" height="720"/>
<g>
	<defs>
		<rect id="SVGID_1_" x="0" y="0" width="1280" height="720"/>
	</defs>
	<use xlink:href="#SVGID_1_"  overflow="visible"/>
	<clipPath id="SVGID_2_">
		<use xlink:href="#SVGID_1_"  overflow="visible"/>
	</clipPath>
</g>
<g>
	<defs>
		<rect id="SVGID_3_" x="0" y="0" width="1280" height="720"/>
	</defs>
	<clipPath id="SVGID_4_">
		<use xlink:href="#SVGID_3_"  overflow="visible"/>
	</clipPath>
	<g clip-path="url(#SVGID_4_)">
		<g>
			<path fill="#FFFFFF" d="M0,494.6v-15.4c32.7,0,63.5-12.7,86.6-35.8c23.1-23.1,35.8-53.8,35.8-86.6h15.4
				c0,36.8-14.3,71.4-40.3,97.4C71.4,480.3,36.8,494.6,0,494.6z"/>
		</g>
		<g>
			<path fill="#FFFFFF" d="M0,474.2v-15.4c56.2,0,101.9-45.7,101.9-101.9h15.4C117.3,421.5,64.7,474.2,0,474.2z"/>
		</g>
		<g>
			<path fill="#FFFFFF" d="M0,453.5v-15.4c21.8,0,42.2-8.4,57.5-23.8c15.3-15.3,23.8-35.8,23.8-57.5h15.4c0,25.9-10,50.2-28.3,68.4
				C50.2,443.5,25.9,453.5,0,453.5z"/>
		</g>
	</g>
	<g clip-path="url(#SVGID_4_)">
		<g>
			<path fill="#FFFFFF" d="M219.1,438.2v15.4c-32.7,0-63.5,12.7-86.6,35.8c-23.1,23.1-35.8,53.8-35.8,86.6H81.4
				c0-36.8,14.3-71.4,40.3-97.4C147.7,452.5,182.3,438.2,219.1,438.2z"/>
		</g>
		<g>
			<path fill="#FFFFFF" d="M219.1,458.6V474c-56.2,0-101.9,45.7-101.9,101.9h-15.4C101.8,511.3,154.4,458.6,219.1,458.6z"/>
		</g>
		<g>
			<path fill="#FFFFFF" d="M219.1,479.3v15.4c-21.8,0-42.2,8.4-57.5,23.8c-15.3,15.3-23.8,35.8-23.8,57.5h-15.4
				c0-25.9,10-50.2,28.3-68.4C168.9,489.3,193.2,479.3,219.1,479.3z"/>
		</g>
	</g>
	<g clip-path="url(#SVGID_4_)">
		<g>
			<path fill="#FFFFFF" d="M0,719.4V704c32.7,0,63.5-12.7,86.6-35.8c23.1-23.1,35.8-53.8,35.8-86.6h15.4c0,36.8-14.3,71.4-40.3,97.4
				C71.4,705.1,36.8,719.4,0,719.4z"/>
		</g>
		<g>
			<path fill="#FFFFFF" d="M0,699v-15.4c56.2,0,101.9-45.7,101.9-101.9h15.4C117.3,646.3,64.7,699,0,699z"/>
		</g>
		<g>
			<path fill="#FFFFFF" d="M0,678.3V663c21.8,0,42.2-8.4,57.5-23.8c15.3-15.3,23.8-35.8,23.8-57.5h15.4c0,25.9-10,50.2-28.3,68.4
				C50.2,668.3,25.9,678.3,0,678.3z"/>
		</g>
	</g>
	<g clip-path="url(#SVGID_4_)">
		<g>
			<path fill="#FFFFFF" d="M219.1,663v15.4c-32.7,0-63.5,12.7-86.6,35.8c-23.1,23.1-35.8,53.8-35.8,86.6H81.4
				c0-36.8,14.3-71.4,40.3-97.4C147.7,677.3,182.3,663,219.1,663z"/>
		</g>
		<g>
			<path fill="#FFFFFF" d="M219.1,683.4v15.4c-56.2,0-101.9,45.7-101.9,101.9h-15.4C101.8,736,154.4,683.4,219.1,683.4z"/>
		</g>
		<g>
			<path fill="#FFFFFF" d="M219.1,704.1v15.4c-21.8,0-42.2,8.4-57.5,23.8c-15.3,15.3-23.8,35.8-23.8,57.5h-15.4
				c0-25.9,10-50.2,28.3-68.4C168.9,714.1,193.2,704.1,219.1,704.1z"/>
		</g>
	</g>
	<g clip-path="url(#SVGID_4_)">
		<g>
			<path fill="#FFFFFF" d="M137.7,800.7h-15.4c0-32.7-12.7-63.5-35.8-86.6C63.5,691.1,32.7,678.4,0,678.4V663
				c36.8,0,71.4,14.3,97.4,40.3C123.4,729.3,137.7,763.9,137.7,800.7z"/>
		</g>
		<g>
			<path fill="#FFFFFF" d="M117.3,800.7h-15.4c0-56.2-45.7-101.9-101.9-101.9v-15.4C64.7,683.4,117.3,736,117.3,800.7z"/>
		</g>
		<g>
			<path fill="#FFFFFF" d="M96.7,800.7H81.3c0-21.8-8.4-42.2-23.8-57.5C42.2,727.9,21.8,719.4,0,719.4v-15.4
				c25.9,0,50.2,10,68.4,28.3C86.6,750.6,96.7,774.8,96.7,800.7z"/>
		</g>
	</g>
	<g clip-path="url(#SVGID_4_)">
		<g>
			<path fill="#FFFFFF" d="M81.4,581.7h15.4c0,32.7,12.7,63.5,35.8,86.6c23.1,23.1,53.8,35.8,86.6,35.8v15.4
				c-36.8,0-71.4-14.3-97.4-40.3C95.7,653.1,81.4,618.5,81.4,581.7z"/>
		</g>
		<g>
			<path fill="#FFFFFF" d="M101.8,581.7h15.4c0,56.2,45.7,101.9,101.9,101.9v15.4C154.4,698.9,101.8,646.3,101.8,581.7z"/>
		</g>
		<g>
			<path fill="#FFFFFF" d="M122.4,581.7h15.4c0,21.8,8.4,42.2,23.8,57.5c15.3,15.3,35.8,23.8,57.5,23.8v15.4
				c-25.9,0-50.2-10-68.4-28.3C132.5,631.8,122.4,607.5,122.4,581.7z"/>
		</g>
	</g>
	<g clip-path="url(#SVGID_4_)">
		<g>
			<path fill="#808080" d="M812,147h-15.4c0-32.7-12.7-63.5-35.8-86.6c-23.1-23.1-53.8-35.8-86.6-35.8V9.2
				c36.8,0,71.4,14.3,97.4,40.3C797.7,75.5,812,110.1,812,147z"/>
		</g>
		<g>
			<path fill="#808080" d="M791.6,147h-15.4C776.2,90.8,730.5,45,674.3,45V29.7C739,29.7,791.6,82.3,791.6,147z"/>
		</g>
		<g>
			<path fill="#808080" d="M771,147h-15.4c0-21.8-8.4-42.2-23.8-57.5c-15.3-15.3-35.8-23.8-57.5-23.8V50.3c25.9,0,50.2,10,68.4,28.3
				C760.9,96.8,771,121.1,771,147z"/>
		</g>
	</g>
	<g clip-path="url(#SVGID_4_)">
		<g>
			<path fill="#CBCBCB" d="M688.9,213v15.4c-32.7,0-63.5,12.7-86.6,35.8c-23.1,23.1-35.8,53.8-35.8,86.6h-15.4
				c0-36.8,14.3-71.4,40.3-97.4C617.5,227.3,652.1,213,688.9,213z"/>
		</g>
		<g>
			<path fill="#CBCBCB" d="M688.9,233.5v15.4c-56.2,0-101.9,45.7-101.9,101.9h-15.4C571.6,286.1,624.3,233.5,688.9,233.5z"/>
		</g>
		<g>
			<path fill="#CBCBCB" d="M688.9,254.1v15.4c-21.8,0-42.2,8.4-57.5,23.8c-15.3,15.3-23.8,35.8-23.8,57.5h-15.4
				c0-25.9,10-50.2,28.3-68.4C638.8,264.1,663,254.1,688.9,254.1z"/>
		</g>
	</g>
	<g clip-path="url(#SVGID_4_)">
		<g>
			<path fill="#1A1A1A" d="M1129.3,454v-15.4c32.7,0,63.5-12.7,86.6-35.8c23.1-23.1,35.8-53.8,35.8-86.6h15.4
				c0,36.8-14.3,71.4-40.3,97.4C1200.7,439.7,1166.1,454,1129.3,454z"/>
		</g>
		<g>
			<path fill="#1A1A1A" d="M1129.3,433.5v-15.4c56.2,0,101.9-45.7,101.9-101.9h15.4C1246.5,380.9,1193.9,433.5,1129.3,433.5z"/>
		</g>
		<g>
			<path fill="#1A1A1A" d="M1129.3,412.9v-15.4c21.8,0,42.2-8.4,57.5-23.8c15.3-15.3,23.8-35.8,23.8-57.5h15.4
				c0,25.9-10,50.2-28.3,68.4C1179.4,402.9,1155.1,412.9,1129.3,412.9z"/>
		</g>
	</g>
	<g clip-path="url(#SVGID_4_)">
		<g>
			<path fill="#1A1A1A" d="M976.6,561.3H992c0,32.7,12.7,63.5,35.8,86.6c23.1,23.1,53.8,35.8,86.6,35.8V699
				c-36.8,0-71.4-14.3-97.4-40.3C990.9,632.7,976.6,598.1,976.6,561.3z"/>
		</g>
		<g>
			<path fill="#1A1A1A" d="M997,561.3h15.4c0,56.2,45.7,101.9,101.9,101.9v15.4C1049.6,678.5,997,625.9,997,561.3z"/>
		</g>
		<g>
			<path fill="#1A1A1A" d="M1017.7,561.3h15.4c0,21.8,8.4,42.2,23.8,57.5c15.3,15.3,35.8,23.8,57.5,23.8v15.4
				c-25.9,0-50.2-10-68.4-28.3C1027.7,611.4,1017.7,587.1,1017.7,561.3z"/>
		</g>
	</g>
	<g clip-path="url(#SVGID_4_)">
		<g>
			<path fill="#1A1A1A" d="M1298.3-65.6v15.4c-32.7,0-63.5,12.7-86.6,35.8c-23.1,23.1-35.8,53.8-35.8,86.6h-15.4
				c0-36.8,14.3-71.4,40.3-97.4C1226.9-51.3,1261.5-65.6,1298.3-65.6z"/>
		</g>
		<g>
			<path fill="#1A1A1A" d="M1298.3-45.1v15.4c-56.2,0-101.9,45.7-101.9,101.9H1181C1181,7.5,1233.6-45.1,1298.3-45.1z"/>
		</g>
		<g>
			<path fill="#1A1A1A" d="M1298.3-24.5v15.4c-21.8,0-42.2,8.4-57.5,23.8c-15.3,15.3-23.8,35.8-23.8,57.5h-15.4
				c0-25.9,10-50.2,28.3-68.4C1248.1-14.5,1272.4-24.5,1298.3-24.5z"/>
		</g>
	</g>
	<g clip-path="url(#SVGID_4_)">
		<g>
			<path fill="#1A1A1A" d="M1051.2-11.5V3.9c-32.7,0-63.5,12.7-86.6,35.8c-23.1,23.1-35.8,53.8-35.8,86.6h-15.4
				c0-36.8,14.3-71.4,40.3-97.4C979.8,2.9,1014.4-11.5,1051.2-11.5z"/>
		</g>
		<g>
			<path fill="#1A1A1A" d="M1051.2,9v15.4c-56.2,0-101.9,45.7-101.9,101.9H934C934,61.6,986.6,9,1051.2,9z"/>
		</g>
		<g>
			<path fill="#1A1A1A" d="M1051.2,29.6V45c-21.8,0-42.2,8.4-57.5,23.8c-15.3,15.3-23.8,35.8-23.8,57.5h-15.4
				c0-25.9,10-50.2,28.3-68.4C1001.1,39.7,1025.4,29.6,1051.2,29.6z"/>
		</g>
	</g>
	<g clip-path="url(#SVGID_4_)">
		<g>
			<path fill="#1A1A1A" d="M954.4,126.3h15.4c0,32.7,12.7,63.5,35.8,86.6c23.1,23.1,53.8,35.8,86.6,35.8V264
				c-36.8,0-71.4-14.3-97.4-40.3C968.7,197.7,954.4,163.1,954.4,126.3z"/>
		</g>
		<g>
			<path fill="#1A1A1A" d="M974.9,126.3h15.4c0,56.2,45.7,101.9,101.9,101.9v15.4C1027.5,243.5,974.9,190.9,974.9,126.3z"/>
		</g>
		<g>
			<path fill="#1A1A1A" d="M995.5,126.3h15.4c0,21.8,8.4,42.2,23.8,57.5c15.3,15.3,35.8,23.8,57.5,23.8v15.4
				c-25.9,0-50.2-10-68.4-28.3C1005.5,176.4,995.5,152.1,995.5,126.3z"/>
		</g>
	</g>
	<g clip-path="url(#SVGID_4_)">
		<g>
			<path fill="#FFFFFF" d="M305.6,582.3H321c0,32.7,12.7,63.5,35.8,86.6c23.1,23.1,53.8,35.8,86.6,35.8V720
				c-36.8,0-71.4-14.3-97.4-40.3C319.9,653.7,305.6,619.1,305.6,582.3z"/>
		</g>
		<g>
			<path fill="#FFFFFF" d="M326.1,582.3h15.4c0,56.2,45.7,101.9,101.9,101.9v15.4C378.7,699.5,326.1,646.9,326.1,582.3z"/>
		</g>
		<g>
			<path fill="#FFFFFF" d="M346.7,582.3H362c0,21.8,8.4,42.2,23.8,57.5c15.3,15.3,35.8,23.8,57.5,23.8v15.4
				c-25.9,0-50.2-10-68.4-28.3C356.7,632.4,346.7,608.1,346.7,582.3z"/>
		</g>
	</g>
	<g clip-path="url(#SVGID_4_)">
		<g>
			<path fill="#4D4D4D" d="M832.7,534.8h-15.4c0-32.7-12.7-63.5-35.8-86.6c-23.1-23.1-53.8-35.8-86.6-35.8v-15.4
				c36.8,0,71.4,14.3,97.4,40.3C818.4,463.4,832.7,498,832.7,534.8z"/>
		</g>
		<g>
			<path fill="#4D4D4D" d="M812.3,534.8h-15.4c0-56.2-45.7-101.9-101.9-101.9v-15.4C759.7,417.6,812.3,470.2,812.3,534.8z"/>
		</g>
		<g>
			<path fill="#4D4D4D" d="M791.7,534.8h-15.4c0-21.8-8.4-42.2-23.8-57.5c-15.3-15.3-35.8-23.8-57.5-23.8v-15.4
				c25.9,0,50.2,10,68.4,28.3C781.6,484.7,791.7,509,791.7,534.8z"/>
		</g>
	</g>
	<g clip-path="url(#SVGID_4_)">
		<g>
			<path fill="#333333" d="M913.6,212.8v15.4c-32.7,0-63.5,12.7-86.6,35.8c-23.1,23.1-35.8,53.8-35.8,86.6h-15.4
				c0-36.8,14.3-71.4,40.3-97.4C842.2,227.1,876.8,212.8,913.6,212.8z"/>
		</g>
		<g>
			<path fill="#333333" d="M913.6,233.3v15.4c-56.2,0-101.9,45.7-101.9,101.9h-15.4C796.4,285.9,849,233.3,913.6,233.3z"/>
		</g>
		<g>
			<path fill="#333333" d="M913.6,253.9v15.4c-21.8,0-42.2,8.4-57.5,23.8c-15.3,15.3-23.8,35.8-23.8,57.5H817
				c0-25.9,10-50.2,28.3-68.4C863.5,263.9,887.8,253.9,913.6,253.9z"/>
		</g>
	</g>
	<g clip-path="url(#SVGID_4_)">
		<g>
			<path fill="#333333" d="M991.5,357.3h15.4c0,32.7,12.7,63.5,35.8,86.6c23.1,23.1,53.8,35.8,86.6,35.8V495
				c-36.8,0-71.4-14.3-97.4-40.3C1005.8,428.7,991.5,394.1,991.5,357.3z"/>
		</g>
		<g>
			<path fill="#333333" d="M1011.9,357.3h15.4c0,56.2,45.7,101.9,101.9,101.9v15.4C1064.5,474.6,1011.9,422,1011.9,357.3z"/>
		</g>
		<g>
			<path fill="#333333" d="M1032.5,357.3h15.4c0,21.8,8.4,42.2,23.8,57.5c15.3,15.3,35.8,23.8,57.5,23.8V454
				c-25.9,0-50.2-10-68.4-28.3C1042.6,407.5,1032.5,383.2,1032.5,357.3z"/>
		</g>
	</g>
	<g clip-path="url(#SVGID_4_)">
		<g>
			<path fill="#989898" d="M832.3,350.7h-15.4c0-32.7-12.7-63.5-35.8-86.6c-23.1-23.1-53.8-35.8-86.6-35.8V213
				c36.8,0,71.4,14.3,97.4,40.3C818,279.3,832.3,313.9,832.3,350.7z"/>
		</g>
		<g>
			<path fill="#989898" d="M811.9,350.7h-15.4c0-56.2-45.7-101.9-101.9-101.9v-15.4C759.2,233.5,811.9,286.1,811.9,350.7z"/>
		</g>
		<g>
			<path fill="#989898" d="M791.2,350.7h-15.4c0-21.8-8.4-42.2-23.8-57.5c-15.3-15.3-35.8-23.8-57.5-23.8v-15.4
				c25.9,0,50.2,10,68.4,28.3C781.2,300.6,791.2,324.9,791.2,350.7z"/>
		</g>
	</g>
	<g clip-path="url(#SVGID_4_)">
		<g>
			<path fill="#FFFFFF" d="M137.7,575.9h-15.4c0-32.7-12.7-63.5-35.8-86.6C63.5,466.3,32.7,453.6,0,453.6v-15.4
				c36.8,0,71.4,14.3,97.4,40.3C123.4,504.5,137.7,539.1,137.7,575.9z"/>
		</g>
		<g>
			<path fill="#FFFFFF" d="M117.3,575.9h-15.4C101.9,519.7,56.2,474,0,474v-15.4C64.7,458.6,117.3,511.3,117.3,575.9z"/>
		</g>
		<g>
			<path fill="#FFFFFF" d="M96.7,575.9H81.3c0-21.8-8.4-42.2-23.8-57.5C42.2,503.1,21.8,494.6,0,494.6v-15.4
				c25.9,0,50.2,10,68.4,28.3C86.6,525.8,96.7,550,96.7,575.9z"/>
		</g>
	</g>
	<g clip-path="url(#SVGID_4_)">
		<g>
			<path fill="#FFFFFF" d="M305.4,356.9h15.4c0,32.7,12.7,63.5,35.8,86.6c23.1,23.1,53.8,35.8,86.6,35.8v15.4
				c-36.8,0-71.4-14.3-97.4-40.3C319.7,428.3,305.4,393.7,305.4,356.9z"/>
		</g>
		<g>
			<path fill="#FFFFFF" d="M325.9,356.9h15.4c0,56.2,45.7,101.9,101.9,101.9v15.4C378.5,474.2,325.9,421.5,325.9,356.9z"/>
		</g>
		<g>
			<path fill="#FFFFFF" d="M346.5,356.9h15.4c0,21.8,8.4,42.2,23.8,57.5c15.3,15.3,35.8,23.8,57.5,23.8v15.4
				c-25.9,0-50.2-10-68.4-28.3C356.5,407,346.5,382.8,346.5,356.9z"/>
		</g>
	</g>
	<g clip-path="url(#SVGID_4_)">
		<g>
			<path fill="#FFFFFF" d="M81.4,356.9h15.4c0,32.7,12.7,63.5,35.8,86.6c23.1,23.1,53.8,35.8,86.6,35.8v15.4
				c-36.8,0-71.4-14.3-97.4-40.3C95.7,428.3,81.4,393.7,81.4,356.9z"/>
		</g>
		<g>
			<path fill="#FFFFFF" d="M101.8,356.9h15.4c0,56.2,45.7,101.9,101.9,101.9v15.4C154.4,474.2,101.8,421.5,101.8,356.9z"/>
		</g>
		<g>
			<path fill="#FFFFFF" d="M122.4,356.9h15.4c0,21.8,8.4,42.2,23.8,57.5c15.3,15.3,35.8,23.8,57.5,23.8v15.4
				c-25.9,0-50.2-10-68.4-28.3C132.5,407,122.4,382.8,122.4,356.9z"/>
		</g>
	</g>
	<g clip-path="url(#SVGID_4_)">
		<g>
			<path fill="#FFFFFF" d="M0,45.1V29.7c32.7,0,63.5-12.7,86.6-35.8c23.1-23.1,35.8-53.8,35.8-86.6h15.4c0,36.8-14.3,71.4-40.3,97.4
				C71.4,30.8,36.8,45.1,0,45.1z"/>
		</g>
		<g>
			<path fill="#FFFFFF" d="M0,24.6V9.3c56.2,0,101.9-45.7,101.9-101.9h15.4C117.3-28,64.7,24.6,0,24.6z"/>
		</g>
		<g>
			<path fill="#FFFFFF" d="M0,4v-15.4c21.8,0,42.2-8.4,57.5-23.8c15.3-15.3,23.8-35.8,23.8-57.5h15.4c0,25.9-10,50.2-28.3,68.4
				C50.2-6,25.9,4,0,4z"/>
		</g>
	</g>
	<g clip-path="url(#SVGID_4_)">
		<g>
			<path fill="#FFFFFF" d="M219.1-11.3V4c-32.7,0-63.5,12.7-86.6,35.8c-23.1,23.1-35.8,53.8-35.8,86.6H81.4
				c0-36.8,14.3-71.4,40.3-97.4C147.7,3,182.3-11.3,219.1-11.3z"/>
		</g>
		<g>
			<path fill="#FFFFFF" d="M219.1,9.1v15.4c-56.2,0-101.9,45.7-101.9,101.9h-15.4C101.8,61.7,154.4,9.1,219.1,9.1z"/>
		</g>
		<g>
			<path fill="#FFFFFF" d="M219.1,29.8v15.4c-21.8,0-42.2,8.4-57.5,23.8c-15.3,15.3-23.8,35.8-23.8,57.5h-15.4
				c0-25.9,10-50.2,28.3-68.4C168.9,39.8,193.2,29.8,219.1,29.8z"/>
		</g>
	</g>
	<g clip-path="url(#SVGID_4_)">
		<g>
			<path fill="#FFFFFF" d="M0,269.9v-15.4c32.7,0,63.5-12.7,86.6-35.8c23.1-23.1,35.8-53.8,35.8-86.6h15.4
				c0,36.8-14.3,71.4-40.3,97.4C71.4,255.6,36.8,269.9,0,269.9z"/>
		</g>
		<g>
			<path fill="#FFFFFF" d="M0,249.4v-15.4c56.2,0,101.9-45.7,101.9-101.9h15.4C117.3,196.8,64.7,249.4,0,249.4z"/>
		</g>
		<g>
			<path fill="#FFFFFF" d="M0,228.8v-15.4c21.8,0,42.2-8.4,57.5-23.8c15.3-15.3,23.8-35.8,23.8-57.5h15.4c0,25.9-10,50.2-28.3,68.4
				C50.2,218.8,25.9,228.8,0,228.8z"/>
		</g>
	</g>
	<g clip-path="url(#SVGID_4_)">
		<g>
			<path fill="#FFFFFF" d="M219.1,213.5v15.4c-32.7,0-63.5,12.7-86.6,35.8c-23.1,23.1-35.8,53.8-35.8,86.6H81.4
				c0-36.8,14.3-71.4,40.3-97.4C147.7,227.8,182.3,213.5,219.1,213.5z"/>
		</g>
		<g>
			<path fill="#FFFFFF" d="M219.1,233.9v15.4c-56.2,0-101.9,45.7-101.9,101.9h-15.4C101.8,286.5,154.4,233.9,219.1,233.9z"/>
		</g>
		<g>
			<path fill="#FFFFFF" d="M219.1,254.5v15.4c-21.8,0-42.2,8.4-57.5,23.8c-15.3,15.3-23.8,35.8-23.8,57.5h-15.4
				c0-25.9,10-50.2,28.3-68.4C168.9,264.6,193.2,254.5,219.1,254.5z"/>
		</g>
	</g>
	<g clip-path="url(#SVGID_4_)">
		<g>
			<path fill="#FFFFFF" d="M137.7,351.2h-15.4c0-32.7-12.7-63.5-35.8-86.6C63.5,241.6,32.7,228.8,0,228.8v-15.4
				c36.8,0,71.4,14.3,97.4,40.3C123.4,279.8,137.7,314.4,137.7,351.2z"/>
		</g>
		<g>
			<path fill="#FFFFFF" d="M117.3,351.2h-15.4C101.9,295,56.2,249.3,0,249.3v-15.4C64.7,233.9,117.3,286.5,117.3,351.2z"/>
		</g>
		<g>
			<path fill="#FFFFFF" d="M96.7,351.2H81.3c0-21.8-8.4-42.2-23.8-57.5C42.2,278.4,21.8,269.9,0,269.9v-15.4
				c25.9,0,50.2,10,68.4,28.3C86.6,301,96.7,325.3,96.7,351.2z"/>
		</g>
	</g>
	<g clip-path="url(#SVGID_4_)">
		<g>
			<path fill="#FFFFFF" d="M81.4,132.2h15.4c0,32.7,12.7,63.5,35.8,86.6c23.1,23.1,53.8,35.8,86.6,35.8v15.4
				c-36.8,0-71.4-14.3-97.4-40.3C95.7,203.6,81.4,169,81.4,132.2z"/>
		</g>
		<g>
			<path fill="#FFFFFF" d="M101.8,132.2h15.4c0,56.2,45.7,101.9,101.9,101.9v15.4C154.4,249.4,101.8,196.8,101.8,132.2z"/>
		</g>
		<g>
			<path fill="#FFFFFF" d="M122.4,132.2h15.4c0,21.8,8.4,42.2,23.8,57.5c15.3,15.3,35.8,23.8,57.5,23.8v15.4
				c-25.9,0-50.2-10-68.4-28.3C132.5,182.3,122.4,158,122.4,132.2z"/>
		</g>
	</g>
	<g clip-path="url(#SVGID_4_)">
		<g>
			<path fill="#FFFFFF" d="M137.7,126.4h-15.4c0-32.7-12.7-63.5-35.8-86.6C63.5,16.8,32.7,4,0,4v-15.4C36.8-11.3,71.4,3,97.4,29
				C123.4,55,137.7,89.6,137.7,126.4z"/>
		</g>
		<g>
			<path fill="#FFFFFF" d="M117.3,126.4h-15.4C101.9,70.2,56.2,24.5,0,24.5V9.1C64.7,9.1,117.3,61.7,117.3,126.4z"/>
		</g>
		<g>
			<path fill="#FFFFFF" d="M96.7,126.4H81.3c0-21.8-8.4-42.2-23.8-57.5C42.2,53.6,21.8,45.1,0,45.1V29.8c25.9,0,50.2,10,68.4,28.3
				C86.6,76.2,96.7,100.5,96.7,126.4z"/>
		</g>
	</g>
	<g clip-path="url(#SVGID_4_)">
		<g>
			<path fill="#FFFFFF" d="M81.4-92.6h15.4c0,32.7,12.7,63.5,35.8,86.6c23.1,23.1,53.8,35.8,86.6,35.8v15.4
				c-36.8,0-71.4-14.3-97.4-40.3C95.7-21.2,81.4-55.8,81.4-92.6z"/>
		</g>
		<g>
			<path fill="#FFFFFF" d="M101.8-92.6h15.4c0,56.2,45.7,101.9,101.9,101.9v15.4C154.4,24.6,101.8-28,101.8-92.6z"/>
		</g>
		<g>
			<path fill="#FFFFFF" d="M122.4-92.6h15.4c0,21.8,8.4,42.2,23.8,57.5c15.3,15.3,35.8,23.8,57.5,23.8V4c-25.9,0-50.2-10-68.4-28.3
				C132.5-42.5,122.4-66.8,122.4-92.6z"/>
		</g>
	</g>
	<g clip-path="url(#SVGID_4_)">
		<g>
			<path fill="#FFFFFF" d="M224.8,494.6v-15.4c32.7,0,63.5-12.7,86.6-35.8c23.1-23.1,35.8-53.8,35.8-86.6h15.4
				c0,36.8-14.3,71.4-40.3,97.4C296.3,480.3,261.7,494.6,224.8,494.6z"/>
		</g>
		<g>
			<path fill="#FFFFFF" d="M224.8,474.2v-15.4c56.2,0,101.9-45.7,101.9-101.9h15.4C342.1,421.5,289.5,474.2,224.8,474.2z"/>
		</g>
		<g>
			<path fill="#FFFFFF" d="M224.8,453.5v-15.4c21.8,0,42.2-8.4,57.5-23.8c15.3-15.3,23.8-35.8,23.8-57.5h15.4
				c0,25.9-10,50.2-28.3,68.4C275,443.5,250.7,453.5,224.8,453.5z"/>
		</g>
	</g>
	<g clip-path="url(#SVGID_4_)">
		<g>
			<path fill="#FFFFFF" d="M443.9,438.2v15.4c-32.7,0-63.5,12.7-86.6,35.8c-23.1,23.1-35.8,53.8-35.8,86.6h-15.4
				c0-36.8,14.3-71.4,40.3-97.4C372.5,452.5,407.1,438.2,443.9,438.2z"/>
		</g>
		<g>
			<path fill="#FFFFFF" d="M443.9,458.6V474C387.7,474,342,519.7,342,575.9h-15.4C326.6,511.3,379.3,458.6,443.9,458.6z"/>
		</g>
		<g>
			<path fill="#FFFFFF" d="M443.9,479.3v15.4c-21.8,0-42.2,8.4-57.5,23.8c-15.3,15.3-23.8,35.8-23.8,57.5h-15.4
				c0-25.9,10-50.2,28.3-68.4C393.8,489.3,418,479.3,443.9,479.3z"/>
		</g>
	</g>
	<g clip-path="url(#SVGID_4_)">
		<g>
			<path fill="#666666" d="M910.2,495v-15.4c32.7,0,63.5-12.7,86.6-35.8c23.1-23.1,35.8-53.8,35.8-86.6h15.4
				c0,36.8-14.3,71.4-40.3,97.4C981.6,480.7,947,495,910.2,495z"/>
		</g>
		<g>
			<path fill="#666666" d="M910.2,474.6v-15.4c56.2,0,101.9-45.7,101.9-101.9h15.4C1027.4,421.9,974.8,474.6,910.2,474.6z"/>
		</g>
		<g>
			<path fill="#666666" d="M910.2,453.9v-15.4c21.8,0,42.2-8.4,57.5-23.8c15.3-15.3,23.8-35.8,23.8-57.5h15.4
				c0,25.9-10,50.2-28.3,68.4C960.3,443.9,936,453.9,910.2,453.9z"/>
		</g>
	</g>
	<g clip-path="url(#SVGID_4_)">
		<g>
			<path fill="#B2B2B2" d="M934.7,397.1v15.4c-32.7,0-63.5,12.7-86.6,35.8c-23.1,23.1-35.8,53.8-35.8,86.6H797
				c0-36.8,14.3-71.4,40.3-97.4C863.3,411.4,897.9,397.1,934.7,397.1z"/>
		</g>
		<g>
			<path fill="#B2B2B2" d="M934.7,417.5v15.4c-56.2,0-101.9,45.7-101.9,101.9h-15.4C817.4,470.1,870,417.5,934.7,417.5z"/>
		</g>
		<g>
			<path fill="#B2B2B2" d="M934.7,438.1v15.4c-21.8,0-42.2,8.4-57.5,23.8c-15.3,15.3-23.8,35.8-23.8,57.5H838
				c0-25.9,10-50.2,28.3-68.4C884.5,448.2,908.8,438.1,934.7,438.1z"/>
		</g>
	</g>
	<g clip-path="url(#SVGID_4_)">
		<g>
			<path fill="#FFFFFF" d="M709.6,621.7v15.4c-32.7,0-63.5,12.7-86.6,35.8c-23.1,23.1-35.8,53.8-35.8,86.6h-15.4
				c0-36.8,14.3-71.4,40.3-97.4C638.1,636.1,672.7,621.7,709.6,621.7z"/>
		</g>
		<g>
			<path fill="#FFFFFF" d="M709.6,642.2v15.4c-56.2,0-101.9,45.7-101.9,101.9h-15.4C592.3,694.8,644.9,642.2,709.6,642.2z"/>
		</g>
		<g>
			<path fill="#FFFFFF" d="M709.6,662.8v15.4c-21.8,0-42.2,8.4-57.5,23.8c-15.3,15.3-23.8,35.8-23.8,57.5h-15.4
				c0-25.9,10-50.2,28.3-68.4C659.4,672.9,683.7,662.8,709.6,662.8z"/>
		</g>
	</g>
	<g clip-path="url(#SVGID_4_)">
		<g>
			<path fill="#CBCBCB" d="M715.3,678.3v-15.4c32.7,0,63.5-12.7,86.6-35.8c23.1-23.1,35.8-53.8,35.8-86.6h15.4
				c0,36.8-14.3,71.4-40.3,97.4C786.8,663.9,752.2,678.3,715.3,678.3z"/>
		</g>
		<g>
			<path fill="#CBCBCB" d="M715.3,657.8v-15.4c56.2,0,101.9-45.7,101.9-101.9h15.4C832.6,605.2,780,657.8,715.3,657.8z"/>
		</g>
		<g>
			<path fill="#CBCBCB" d="M715.3,637.2v-15.4c21.8,0,42.2-8.4,57.5-23.8c15.3-15.3,23.8-35.8,23.8-57.5H812
				c0,25.9-10,50.2-28.3,68.4C765.5,627.1,741.2,637.2,715.3,637.2z"/>
		</g>
	</g>
	<g clip-path="url(#SVGID_4_)">
		<g>
			<path fill="#FFFFFF" d="M224.8,719.4V704c32.7,0,63.5-12.7,86.6-35.8c23.1-23.1,35.8-53.8,35.8-86.6h15.4
				c0,36.8-14.3,71.4-40.3,97.4C296.3,705.1,261.7,719.4,224.8,719.4z"/>
		</g>
		<g>
			<path fill="#FFFFFF" d="M224.8,699v-15.4c56.2,0,101.9-45.7,101.9-101.9h15.4C342.1,646.3,289.5,699,224.8,699z"/>
		</g>
		<g>
			<path fill="#FFFFFF" d="M224.8,678.3V663c21.8,0,42.2-8.4,57.5-23.8c15.3-15.3,23.8-35.8,23.8-57.5h15.4
				c0,25.9-10,50.2-28.3,68.4C275,668.3,250.7,678.3,224.8,678.3z"/>
		</g>
	</g>
	<g clip-path="url(#SVGID_4_)">
		<g>
			<path fill="#FFFFFF" d="M443.9,663v15.4c-32.7,0-63.5,12.7-86.6,35.8c-23.1,23.1-35.8,53.8-35.8,86.6h-15.4
				c0-36.8,14.3-71.4,40.3-97.4C372.5,677.3,407.1,663,443.9,663z"/>
		</g>
		<g>
			<path fill="#FFFFFF" d="M443.9,683.4v15.4c-56.2,0-101.9,45.7-101.9,101.9h-15.4C326.6,736,379.3,683.4,443.9,683.4z"/>
		</g>
		<g>
			<path fill="#FFFFFF" d="M443.9,704.1v15.4c-21.8,0-42.2,8.4-57.5,23.8c-15.3,15.3-23.8,35.8-23.8,57.5h-15.4
				c0-25.9,10-50.2,28.3-68.4C393.8,714.1,418,704.1,443.9,704.1z"/>
		</g>
	</g>
	<g clip-path="url(#SVGID_4_)">
		<g>
			<path fill="#FFFFFF" d="M362.6,800.7h-15.4c0-32.7-12.7-63.5-35.8-86.6c-23.1-23.1-53.8-35.8-86.6-35.8V663
				c36.8,0,71.4,14.3,97.4,40.3C348.2,729.3,362.6,763.9,362.6,800.7z"/>
		</g>
		<g>
			<path fill="#FFFFFF" d="M342.1,800.7h-15.4c0-56.2-45.7-101.9-101.9-101.9v-15.4C289.5,683.4,342.1,736,342.1,800.7z"/>
		</g>
		<g>
			<path fill="#FFFFFF" d="M321.5,800.7h-15.4c0-21.8-8.4-42.2-23.8-57.5c-15.3-15.3-35.8-23.8-57.5-23.8v-15.4
				c25.9,0,50.2,10,68.4,28.3C311.4,750.6,321.5,774.8,321.5,800.7z"/>
		</g>
	</g>
	<g clip-path="url(#SVGID_4_)">
		<g>
			<path fill="#FFFFFF" d="M306.2,581.7h15.4c0,32.7,12.7,63.5,35.8,86.6c23.1,23.1,53.8,35.8,86.6,35.8v15.4
				c-36.8,0-71.4-14.3-97.4-40.3C320.5,653.1,306.2,618.5,306.2,581.7z"/>
		</g>
		<g>
			<path fill="#FFFFFF" d="M326.6,581.7H342c0,56.2,45.7,101.9,101.9,101.9v15.4C379.3,698.9,326.6,646.3,326.6,581.7z"/>
		</g>
		<g>
			<path fill="#FFFFFF" d="M347.3,581.7h15.4c0,21.8,8.4,42.2,23.8,57.5c15.3,15.3,35.8,23.8,57.5,23.8v15.4
				c-25.9,0-50.2-10-68.4-28.3C357.3,631.8,347.3,607.5,347.3,581.7z"/>
		</g>
	</g>
	<g clip-path="url(#SVGID_4_)">
		<g>
			<path fill="#4D4D4D" d="M991.5,576.4h15.4c0-32.7,12.7-63.5,35.8-86.6c23.1-23.1,53.8-35.8,86.6-35.8v-15.4
				c-36.8,0-71.4,14.3-97.4,40.3C1005.9,505,991.5,539.6,991.5,576.4z"/>
		</g>
		<g>
			<path fill="#4D4D4D" d="M1012,576.4h15.4c0-56.2,45.7-101.9,101.9-101.9v-15.4C1064.6,459.2,1012,511.8,1012,576.4z"/>
		</g>
		<g>
			<path fill="#4D4D4D" d="M1032.6,576.4h15.4c0-21.8,8.4-42.2,23.8-57.5c15.3-15.3,35.8-23.8,57.5-23.8v-15.4
				c-25.9,0-50.2,10-68.4,28.3C1042.7,526.3,1032.6,550.6,1032.6,576.4z"/>
		</g>
	</g>
	<g clip-path="url(#SVGID_4_)">
		<g>
			<path fill="#FFFFFF" d="M362.6,575.9h-15.4c0-32.7-12.7-63.5-35.8-86.6c-23.1-23.1-53.8-35.8-86.6-35.8v-15.4
				c36.8,0,71.4,14.3,97.4,40.3C348.2,504.5,362.6,539.1,362.6,575.9z"/>
		</g>
		<g>
			<path fill="#FFFFFF" d="M342.1,575.9h-15.4c0-56.2-45.7-101.9-101.9-101.9v-15.4C289.5,458.6,342.1,511.3,342.1,575.9z"/>
		</g>
		<g>
			<path fill="#FFFFFF" d="M321.5,575.9h-15.4c0-21.8-8.4-42.2-23.8-57.5c-15.3-15.3-35.8-23.8-57.5-23.8v-15.4
				c25.9,0,50.2,10,68.4,28.3S321.5,550,321.5,575.9z"/>
		</g>
	</g>
	<g clip-path="url(#SVGID_4_)">
		<g>
			<path fill="#CBCBCB" d="M306.2,356.9h15.4c0,32.7,12.7,63.5,35.8,86.6c23.1,23.1,53.8,35.8,86.6,35.8v15.4
				c-36.8,0-71.4-14.3-97.4-40.3C320.5,428.3,306.2,393.7,306.2,356.9z"/>
		</g>
		<g>
			<path fill="#CBCBCB" d="M326.6,356.9H342c0,56.2,45.7,101.9,101.9,101.9v15.4C379.3,474.2,326.6,421.5,326.6,356.9z"/>
		</g>
		<g>
			<path fill="#CBCBCB" d="M347.3,356.9h15.4c0,21.8,8.4,42.2,23.8,57.5c15.3,15.3,35.8,23.8,57.5,23.8v15.4
				c-25.9,0-50.2-10-68.4-28.3C357.3,407,347.3,382.8,347.3,356.9z"/>
		</g>
	</g>
	<g clip-path="url(#SVGID_4_)">
		<g>
			<path fill="#FFFFFF" d="M224.8,45.1V29.7c32.7,0,63.5-12.7,86.6-35.8c23.1-23.1,35.8-53.8,35.8-86.6h15.4
				c0,36.8-14.3,71.4-40.3,97.4C296.3,30.8,261.7,45.1,224.8,45.1z"/>
		</g>
		<g>
			<path fill="#FFFFFF" d="M224.8,24.6V9.3c56.2,0,101.9-45.7,101.9-101.9h15.4C342.1-28,289.5,24.6,224.8,24.6z"/>
		</g>
		<g>
			<path fill="#FFFFFF" d="M224.8,4v-15.4c21.8,0,42.2-8.4,57.5-23.8c15.3-15.3,23.8-35.8,23.8-57.5h15.4c0,25.9-10,50.2-28.3,68.4
				C275-6,250.7,4,224.8,4z"/>
		</g>
	</g>
	<g clip-path="url(#SVGID_4_)">
		<g>
			<path fill="#FFFFFF" d="M443.9-11.3V4c-32.7,0-63.5,12.7-86.6,35.8c-23.1,23.1-35.8,53.8-35.8,86.6h-15.4
				c0-36.8,14.3-71.4,40.3-97.4C372.5,3,407.1-11.3,443.9-11.3z"/>
		</g>
		<g>
			<path fill="#FFFFFF" d="M443.9,9.1v15.4C387.7,24.5,342,70.2,342,126.4h-15.4C326.6,61.7,379.3,9.1,443.9,9.1z"/>
		</g>
		<g>
			<path fill="#FFFFFF" d="M443.9,29.8v15.4c-21.8,0-42.2,8.4-57.5,23.8c-15.3,15.3-23.8,35.8-23.8,57.5h-15.4
				c0-25.9,10-50.2,28.3-68.4C393.8,39.8,418,29.8,443.9,29.8z"/>
		</g>
	</g>
	<g clip-path="url(#SVGID_4_)">
		<g>
			<path fill="#FFFFFF" d="M224.8,269.9v-15.4c32.7,0,63.5-12.7,86.6-35.8c23.1-23.1,35.8-53.8,35.8-86.6h15.4
				c0,36.8-14.3,71.4-40.3,97.4C296.3,255.6,261.7,269.9,224.8,269.9z"/>
		</g>
		<g>
			<path fill="#FFFFFF" d="M224.8,249.4v-15.4c56.2,0,101.9-45.7,101.9-101.9h15.4C342.1,196.8,289.5,249.4,224.8,249.4z"/>
		</g>
		<g>
			<path fill="#FFFFFF" d="M224.8,228.8v-15.4c21.8,0,42.2-8.4,57.5-23.8c15.3-15.3,23.8-35.8,23.8-57.5h15.4
				c0,25.9-10,50.2-28.3,68.4C275,218.8,250.7,228.8,224.8,228.8z"/>
		</g>
	</g>
	<g clip-path="url(#SVGID_4_)">
		<g>
			<path fill="#CBCBCB" d="M443.9,213.5v15.4c-32.7,0-63.5,12.7-86.6,35.8c-23.1,23.1-35.8,53.8-35.8,86.6h-15.4
				c0-36.8,14.3-71.4,40.3-97.4C372.5,227.8,407.1,213.5,443.9,213.5z"/>
		</g>
		<g>
			<path fill="#CBCBCB" d="M443.9,233.9v15.4C387.7,249.3,342,295,342,351.2h-15.4C326.6,286.5,379.3,233.9,443.9,233.9z"/>
		</g>
		<g>
			<path fill="#CBCBCB" d="M443.9,254.5v15.4c-21.8,0-42.2,8.4-57.5,23.8c-15.3,15.3-23.8,35.8-23.8,57.5h-15.4
				c0-25.9,10-50.2,28.3-68.4C393.8,264.6,418,254.5,443.9,254.5z"/>
		</g>
	</g>
	<g clip-path="url(#SVGID_4_)">
		<g>
			<path fill="#FFFFFF" d="M362.6,351.2h-15.4c0-32.7-12.7-63.5-35.8-86.6c-23.1-23.1-53.8-35.8-86.6-35.8v-15.4
				c36.8,0,71.4,14.3,97.4,40.3C348.2,279.8,362.6,314.4,362.6,351.2z"/>
		</g>
		<g>
			<path fill="#FFFFFF" d="M342.1,351.2h-15.4c0-56.2-45.7-101.9-101.9-101.9v-15.4C289.5,233.9,342.1,286.5,342.1,351.2z"/>
		</g>
		<g>
			<path fill="#FFFFFF" d="M321.5,351.2h-15.4c0-21.8-8.4-42.2-23.8-57.5c-15.3-15.3-35.8-23.8-57.5-23.8v-15.4
				c25.9,0,50.2,10,68.4,28.3C311.4,301,321.5,325.3,321.5,351.2z"/>
		</g>
	</g>
	<g clip-path="url(#SVGID_4_)">
		<g>
			<path fill="#FFFFFF" d="M306.2,132.2h15.4c0,32.7,12.7,63.5,35.8,86.6c23.1,23.1,53.8,35.8,86.6,35.8v15.4
				c-36.8,0-71.4-14.3-97.4-40.3C320.5,203.6,306.2,169,306.2,132.2z"/>
		</g>
		<g>
			<path fill="#FFFFFF" d="M326.6,132.2H342c0,56.2,45.7,101.9,101.9,101.9v15.4C379.3,249.4,326.6,196.8,326.6,132.2z"/>
		</g>
		<g>
			<path fill="#FFFFFF" d="M347.3,132.2h15.4c0,21.8,8.4,42.2,23.8,57.5c15.3,15.3,35.8,23.8,57.5,23.8v15.4
				c-25.9,0-50.2-10-68.4-28.3C357.3,182.3,347.3,158,347.3,132.2z"/>
		</g>
	</g>
	<g clip-path="url(#SVGID_4_)">
		<g>
			<path fill="#FFFFFF" d="M362.6,126.4h-15.4c0-32.7-12.7-63.5-35.8-86.6C288.3,16.8,257.6,4,224.8,4v-15.4
				c36.8,0,71.4,14.3,97.4,40.3C348.2,55,362.6,89.6,362.6,126.4z"/>
		</g>
		<g>
			<path fill="#FFFFFF" d="M342.1,126.4h-15.4c0-56.2-45.7-101.9-101.9-101.9V9.1C289.5,9.1,342.1,61.7,342.1,126.4z"/>
		</g>
		<g>
			<path fill="#FFFFFF" d="M321.5,126.4h-15.4c0-21.8-8.4-42.2-23.8-57.5c-15.3-15.3-35.8-23.8-57.5-23.8V29.8
				c25.9,0,50.2,10,68.4,28.3C311.4,76.2,321.5,100.5,321.5,126.4z"/>
		</g>
	</g>
	<g clip-path="url(#SVGID_4_)">
		<g>
			<path fill="#FFFFFF" d="M306.2-92.6h15.4c0,32.7,12.7,63.5,35.8,86.6c23.1,23.1,53.8,35.8,86.6,35.8v15.4
				c-36.8,0-71.4-14.3-97.4-40.3C320.5-21.2,306.2-55.8,306.2-92.6z"/>
		</g>
		<g>
			<path fill="#FFFFFF" d="M326.6-92.6H342C342-36.4,387.7,9.3,443.9,9.3v15.4C379.3,24.6,326.6-28,326.6-92.6z"/>
		</g>
		<g>
			<path fill="#FFFFFF" d="M347.3-92.6h15.4c0,21.8,8.4,42.2,23.8,57.5c15.3,15.3,35.8,23.8,57.5,23.8V4C418,4,393.8-6,375.5-24.2
				C357.3-42.5,347.3-66.8,347.3-92.6z"/>
		</g>
	</g>
	<g clip-path="url(#SVGID_4_)">
		<g>
			<path fill="#E5E5E5" d="M449.6,719.4V704c32.7,0,63.5-12.7,86.6-35.8c23.1-23.1,35.8-53.8,35.8-86.6h15.4
				c0,36.8-14.3,71.4-40.3,97.4C521,705.1,486.4,719.4,449.6,719.4z"/>
		</g>
		<g>
			<path fill="#E5E5E5" d="M449.6,699v-15.4c56.2,0,101.9-45.7,101.9-101.9h15.4C566.9,646.3,514.3,699,449.6,699z"/>
		</g>
		<g>
			<path fill="#E5E5E5" d="M449.6,678.3V663c21.8,0,42.2-8.4,57.5-23.8c15.3-15.3,23.8-35.8,23.8-57.5h15.4
				c0,25.9-10,50.2-28.3,68.4C499.8,668.3,475.5,678.3,449.6,678.3z"/>
		</g>
	</g>
	<g clip-path="url(#SVGID_4_)">
		<g>
			<path fill="#FFFFFF" d="M587.3,800.7H572c0-32.7-12.7-63.5-35.8-86.6c-23.1-23.1-53.8-35.8-86.6-35.8V663
				c36.8,0,71.4,14.3,97.4,40.3C573,729.3,587.3,763.9,587.3,800.7z"/>
		</g>
		<g>
			<path fill="#FFFFFF" d="M566.9,800.7h-15.4c0-56.2-45.7-101.9-101.9-101.9v-15.4C514.3,683.4,566.9,736,566.9,800.7z"/>
		</g>
		<g>
			<path fill="#FFFFFF" d="M546.3,800.7h-15.4c0-21.8-8.4-42.2-23.8-57.5c-15.3-15.3-35.8-23.8-57.5-23.8v-15.4
				c25.9,0,50.2,10,68.4,28.3C536.2,750.6,546.3,774.8,546.3,800.7z"/>
		</g>
	</g>
	<g clip-path="url(#SVGID_4_)">
		<g>
			<path fill="#E5E5E5" d="M587.3,575.9H572c0-32.7-12.7-63.5-35.8-86.6c-23.1-23.1-53.8-35.8-86.6-35.8v-15.4
				c36.8,0,71.4,14.3,97.4,40.3C573,504.5,587.3,539.1,587.3,575.9z"/>
		</g>
		<g>
			<path fill="#E5E5E5" d="M566.9,575.9h-15.4c0-56.2-45.7-101.9-101.9-101.9v-15.4C514.3,458.6,566.9,511.3,566.9,575.9z"/>
		</g>
		<g>
			<path fill="#E5E5E5" d="M546.2,575.9h-15.4c0-21.8-8.4-42.2-23.8-57.5c-15.3-15.3-35.8-23.8-57.5-23.8v-15.4
				c25.9,0,50.2,10,68.4,28.3C536.2,525.8,546.2,550,546.2,575.9z"/>
		</g>
	</g>
	<g clip-path="url(#SVGID_4_)">
		<g>
			<path fill="#B2B2B2" d="M449.6,45.1V29.7c32.7,0,63.5-12.7,86.6-35.8C559.2-29.2,572-59.9,572-92.6h15.4
				c0,36.8-14.3,71.4-40.3,97.4C521,30.8,486.4,45.1,449.6,45.1z"/>
		</g>
		<g>
			<path fill="#B2B2B2" d="M449.6,24.6V9.3c56.2,0,101.9-45.7,101.9-101.9h15.4C566.9-28,514.3,24.6,449.6,24.6z"/>
		</g>
		<g>
			<path fill="#B2B2B2" d="M449.6,4v-15.4c21.8,0,42.2-8.4,57.5-23.8c15.3-15.3,23.8-35.8,23.8-57.5h15.4c0,25.9-10,50.2-28.3,68.4
				C499.8-6,475.5,4,449.6,4z"/>
		</g>
	</g>
	<g clip-path="url(#SVGID_4_)">
		<g>
			<path fill="#989898" d="M449.6,269.9v-15.4c32.7,0,63.5-12.7,86.6-35.8c23.1-23.1,35.8-53.8,35.8-86.6h15.4
				c0,36.8-14.3,71.4-40.3,97.4C521,255.6,486.4,269.9,449.6,269.9z"/>
		</g>
		<g>
			<path fill="#989898" d="M449.6,249.4v-15.4c56.2,0,101.9-45.7,101.9-101.9h15.4C566.9,196.8,514.3,249.4,449.6,249.4z"/>
		</g>
		<g>
			<path fill="#989898" d="M449.6,228.8v-15.4c21.8,0,42.2-8.4,57.5-23.8c15.3-15.3,23.8-35.8,23.8-57.5h15.4
				c0,25.9-10,50.2-28.3,68.4C499.8,218.8,475.5,228.8,449.6,228.8z"/>
		</g>
	</g>
	<g clip-path="url(#SVGID_4_)">
		<g>
			<path fill="#FFFFFF" d="M587.3,351.2H572c0-32.7-12.7-63.5-35.8-86.6c-23.1-23.1-53.8-35.8-86.6-35.8v-15.4
				c36.8,0,71.4,14.3,97.4,40.3C573,279.8,587.3,314.4,587.3,351.2z"/>
		</g>
		<g>
			<path fill="#FFFFFF" d="M566.9,351.2h-15.4c0-56.2-45.7-101.9-101.9-101.9v-15.4C514.3,233.9,566.9,286.5,566.9,351.2z"/>
		</g>
		<g>
			<path fill="#FFFFFF" d="M546.3,351.2h-15.4c0-21.8-8.4-42.2-23.8-57.5c-15.3-15.3-35.8-23.8-57.5-23.8v-15.4
				c25.9,0,50.2,10,68.4,28.3C536.2,301,546.3,325.3,546.3,351.2z"/>
		</g>
	</g>
	<g clip-path="url(#SVGID_4_)">
		<g>
			<path fill="#B2B2B2" d="M530.9,126.5h15.4c0-32.7,12.7-63.5,35.8-86.6c23.1-23.1,53.8-35.8,86.6-35.8v-15.4
				c-36.8,0-71.4,14.3-97.4,40.3C545.2,55.1,530.9,89.7,530.9,126.5z"/>
		</g>
		<g>
			<path fill="#B2B2B2" d="M551.4,126.5h15.4c0-56.2,45.7-101.9,101.9-101.9V9.2C604,9.2,551.4,61.8,551.4,126.5z"/>
		</g>
		<g>
			<path fill="#B2B2B2" d="M572,126.5h15.4c0-21.8,8.4-42.2,23.8-57.5c15.3-15.3,35.8-23.8,57.5-23.8V29.9
				c-25.9,0-50.2,10-68.4,28.3C582,76.3,572,100.6,572,126.5z"/>
		</g>
	</g>
</g>
<g>
	<text transform="matrix(1 0 0 1 847.9668 143.999)"><tspan x="0" y="0" fill="#808080" font-family="'DIN-Light'" font-size="72px" letter-spacing="-1">0</tspan><tspan x="35.6" y="0" fill="#808080" font-family="'DIN-Light'" font-size="72px" letter-spacing="7">2</tspan></text>
</g>
<g>
	<text transform="matrix(1 0 0 1 852.8467 197.999)"><tspan x="0" y="0" fill="#FFFFFF" font-family="'DIN-Bold'" font-size="30px" letter-spacing="3">SPOKEHUB</tspan><tspan x="178.3" y="0" fill="#FFFFFF" font-family="'DIN-Light'" font-size="30px" letter-spacing="3"> BREAKS  </tspan><tspan x="0" y="35" fill="#FFFFFF" font-family="'DIN-Light'" font-size="30px" letter-spacing="3">BAD HABITS, CYCLES  </tspan><tspan x="0" y="70" fill="#FFFFFF" font-family="'DIN-Light'" font-size="30px" letter-spacing="3">AND PATTERNS,  </tspan><tspan x="0" y="105" fill="#FFFFFF" font-family="'DIN-Light'" font-size="30px" letter-spacing="3">TO CLEAR THE DECKS  </tspan><tspan x="0" y="140" fill="#FFFFFF" font-family="'DIN-Light'" font-size="30px" letter-spacing="3">FOR NEW THINKING.</tspan></text>
</g>
</svg>
