<?xml version="1.0" encoding="utf-8"?>
<!-- Generator: Adobe Illustrator 19.1.0, SVG Export Plug-In . SVG Version: 6.00 Build 0)  -->
<svg version="1.1" id="Layer_1" xmlns="http://www.w3.org/2000/svg" xmlns:xlink="http://www.w3.org/1999/xlink" x="0px" y="0px"
	 viewBox="0 0 1280 720" enable-background="new 0 0 1280 720" xml:space="preserve">
<g>
	<rect x="0" y="-0.2" width="1280" height="720"/>
	<g>
		<defs>
			<rect id="SVGID_1_" x="0" y="-0.2" width="1280" height="720"/>
		</defs>
		<clipPath id="SVGID_2_">
			<use xlink:href="#SVGID_1_"  overflow="visible"/>
		</clipPath>
	</g>
	<g>
		<defs>
			<rect id="SVGID_3_" x="0" y="1.7" width="1280" height="718.6"/>
		</defs>
		<clipPath id="SVGID_4_">
			<use xlink:href="#SVGID_3_"  overflow="visible"/>
		</clipPath>
		<g clip-path="url(#SVGID_4_)">
			<line fill="none" stroke="#000000" stroke-width="2.997" stroke-miterlimit="10" x1="264.3" y1="492.5" x2="1362.1" y2="49.8"/>
			<line fill="none" stroke="#0A0A0A" stroke-width="11.6134" stroke-miterlimit="10" x1="277" y1="362.1" x2="1333.2" y2="87.5"/>
			
				<line fill="none" stroke="#131313" stroke-width="20.2298" stroke-miterlimit="10" x1="289.7" y1="231.8" x2="1304.3" y2="125.2"/>
			
				<line fill="none" stroke="#1D1D1D" stroke-width="28.8462" stroke-miterlimit="10" x1="302.4" y1="101.4" x2="1275.4" y2="162.9"/>
			
				<line fill="none" stroke="#272727" stroke-width="37.4626" stroke-miterlimit="10" x1="315.1" y1="-28.9" x2="1246.5" y2="200.6"/>
			
				<line fill="none" stroke="#303030" stroke-width="46.079" stroke-miterlimit="10" x1="327.8" y1="-159.3" x2="1217.6" y2="238.3"/>
			
				<line fill="none" stroke="#3A3A3A" stroke-width="54.6954" stroke-miterlimit="10" x1="340.5" y1="-289.7" x2="1188.7" y2="276"/>
			
				<line fill="none" stroke="#434343" stroke-width="63.3118" stroke-miterlimit="10" x1="353.2" y1="-420" x2="1159.8" y2="313.8"/>
			
				<line fill="none" stroke="#4D4D4D" stroke-width="71.9282" stroke-miterlimit="10" x1="365.8" y1="-550.4" x2="1130.9" y2="351.5"/>
		</g>
		<g clip-path="url(#SVGID_4_)">
			<line fill="none" stroke="#666666" stroke-width="71.9282" stroke-miterlimit="10" x1="795.5" y1="-92" x2="1668.5" y2="706.1"/>
			
				<line fill="none" stroke="#797979" stroke-width="73.4372" stroke-miterlimit="10" x1="842.7" y1="-35.3" x2="1470.6" y2="652.1"/>
			<line fill="none" stroke="#8C8C8C" stroke-width="74.9462" stroke-miterlimit="10" x1="889.8" y1="21.5" x2="1272.6" y2="598"/>
			<line fill="none" stroke="#9F9F9F" stroke-width="76.4551" stroke-miterlimit="10" x1="937" y1="78.2" x2="1074.7" y2="543.9"/>
			<line fill="none" stroke="#B3B3B3" stroke-width="77.9641" stroke-miterlimit="10" x1="984.2" y1="135" x2="876.7" y2="489.8"/>
			
				<line fill="none" stroke="#C6C6C6" stroke-width="79.4731" stroke-miterlimit="10" x1="1031.4" y1="191.7" x2="678.8" y2="435.8"/>
			
				<line fill="none" stroke="#D9D9D9" stroke-width="80.982" stroke-miterlimit="10" x1="1078.6" y1="248.5" x2="480.8" y2="381.7"/>
			
				<line fill="none" stroke="#ECECEC" stroke-width="82.491" stroke-miterlimit="10" x1="1125.8" y1="305.2" x2="282.8" y2="327.6"/>
			<line fill="none" stroke="#FFFFFF" stroke-width="84" stroke-miterlimit="10" x1="1172.9" y1="362" x2="84.9" y2="273.5"/>
		</g>
	</g>
	<g>
		<g>
			<g>
				<text transform="matrix(0.9967 8.107000e-02 -8.107000e-02 0.9967 219.7872 280.8634)"><tspan x="0" y="0" font-family="'DIN-Bold'" font-size="30px" letter-spacing="3">SPOKEHUB</tspan><tspan x="178.3" y="0" font-family="'DIN-Light'" font-size="30px" letter-spacing="3"> REDRESSES IMBALANCES; IN DISCUSSION,  </tspan><tspan x="0" y="31" font-family="'DIN-Light'" font-size="30px" letter-spacing="3">IN DESIGN AND IN SOCIETY.</tspan></text>
			</g>
		</g>
	</g>
	<g>
		
			<text transform="matrix(0.9967 8.107000e-02 -8.107000e-02 0.9967 111.3699 303.6736)" font-family="'DIN-Light'" font-size="72px" letter-spacing="1">04</text>
	</g>
</g>
</svg>
